Handy0-Regular.ufo
<glyph name="glyph1" format="2">
  <advance width="663"/>
  <unicode hex="0000"/>
  <outline>
    <contour>
      <point x="15" y="1290" type="line" smooth="yes"/>
      <point x="15" y="1304"/>
      <point x="20" y="1316"/>
      <point x="30" y="1326" type="curve" smooth="yes"/>
      <point x="40" y="1336"/>
      <point x="51" y="1341"/>
      <point x="66" y="1341" type="curve" smooth="yes"/>
      <point x="578" y="1341" type="line" smooth="yes"/>
      <point x="592" y="1341"/>
      <point x="604" y="1336"/>
      <point x="614" y="1326" type="curve" smooth="yes"/>
      <point x="624" y="1316"/>
      <point x="629" y="1304"/>
      <point x="629" y="1290" type="curve" smooth="yes"/>
      <point x="629" y="229" type="line" smooth="yes"/>
      <point x="629" y="215"/>
      <point x="624" y="203"/>
      <point x="614" y="193" type="curve" smooth="yes"/>
      <point x="604" y="183"/>
      <point x="592" y="178"/>
      <point x="578" y="178" type="curve" smooth="yes"/>
      <point x="66" y="178" type="line" smooth="yes"/>
      <point x="51" y="178"/>
      <point x="40" y="183"/>
      <point x="30" y="193" type="curve" smooth="yes"/>
      <point x="20" y="203"/>
      <point x="15" y="215"/>
      <point x="15" y="229" type="curve" smooth="yes"/>
    </contour>
    <contour>
      <point x="527" y="1239" type="line"/>
      <point x="117" y="1239" type="line"/>
      <point x="117" y="281" type="line"/>
      <point x="527" y="281" type="line"/>
    </contour>
  </outline>
</glyph>
<glyph name="exclam" format="2">
  <advance width="1644"/>
  <unicode hex="0021"/>
  <outline>
    <contour>
      <point x="1334" y="1540" type="curve" smooth="yes"/>
      <point x="1334" y="984" type="line" smooth="yes"/>
      <point x="1336" y="948"/>
      <point x="1330.33" y="914.833"/>
      <point x="1317" y="884.5" type="curve" smooth="yes"/>
      <point x="1303.67" y="854.167"/>
      <point x="1283.17" y="827"/>
      <point x="1255.5" y="803" type="curve" smooth="yes"/>
      <point x="1227.83" y="779"/>
      <point x="1199.83" y="758.667"/>
      <point x="1171.5" y="742" type="curve" smooth="yes"/>
      <point x="1143.17" y="725.333"/>
      <point x="1109.33" y="708"/>
      <point x="1070" y="690" type="curve" smooth="yes"/>
      <point x="1016.67" y="666"/>
      <point x="974.667" y="654"/>
      <point x="944" y="654" type="curve" smooth="yes"/>
      <point x="936" y="654"/>
      <point x="928.667" y="654.667"/>
      <point x="922" y="656" type="curve" smooth="yes"/>
      <point x="884.667" y="656"/>
      <point x="859" y="662.667"/>
      <point x="845" y="676" type="curve" smooth="yes"/>
      <point x="831" y="689.333"/>
      <point x="824" y="715.333"/>
      <point x="824" y="754" type="curve" smooth="yes"/>
      <point x="824" y="820" type="line"/>
      <point x="868" y="820" type="line"/>
      <point x="870" y="823.333"/>
      <point x="875.667" y="834.333"/>
      <point x="885" y="853" type="curve" smooth="yes"/>
      <point x="894.333" y="871.667"/>
      <point x="904.667" y="890.167"/>
      <point x="916" y="908.5" type="curve" smooth="yes"/>
      <point x="927.333" y="926.833"/>
      <point x="939.333" y="942"/>
      <point x="952" y="954" type="curve" smooth="yes"/>
      <point x="994" y="994"/>
      <point x="1022" y="1039.33"/>
      <point x="1036" y="1090" type="curve" smooth="yes"/>
      <point x="1042.67" y="1116.67"/>
      <point x="1050.5" y="1146.17"/>
      <point x="1059.5" y="1178.5" type="curve" smooth="yes"/>
      <point x="1068.5" y="1210.83"/>
      <point x="1074.67" y="1233.5"/>
      <point x="1078" y="1246.5" type="curve" smooth="yes"/>
      <point x="1081.33" y="1259.5"/>
      <point x="1084.67" y="1275.5"/>
      <point x="1088" y="1294.5" type="curve" smooth="yes"/>
      <point x="1091.33" y="1313.5"/>
      <point x="1092.67" y="1330.67"/>
      <point x="1092" y="1346" type="curve" smooth="yes"/>
      <point x="1091.33" y="1361.33"/>
      <point x="1089.33" y="1379.33"/>
      <point x="1086" y="1400" type="curve"/>
      <point x="1086.67" y="1418"/>
      <point x="1087" y="1435.67"/>
      <point x="1087" y="1453" type="curve" smooth="yes"/>
      <point x="1087" y="1531"/>
      <point x="1077.67" y="1607.33"/>
      <point x="1059" y="1682" type="curve" smooth="yes"/>
      <point x="1035.67" y="1774"/>
      <point x="993.333" y="1892.67"/>
      <point x="932" y="2038" type="curve" smooth="yes"/>
      <point x="826.667" y="2288"/>
      <point x="774" y="2450"/>
      <point x="774" y="2524" type="curve"/>
      <point x="764" y="2562.67"/>
      <point x="774.667" y="2582"/>
      <point x="806" y="2582" type="curve" smooth="yes"/>
      <point x="890" y="2582"/>
      <point x="959" y="2559.33"/>
      <point x="1013" y="2514" type="curve" smooth="yes"/>
      <point x="1067" y="2468.67"/>
      <point x="1114" y="2395.33"/>
      <point x="1154" y="2294" type="curve" smooth="yes"/>
      <point x="1177.33" y="2236"/>
      <point x="1196.17" y="2186.33"/>
      <point x="1210.5" y="2145" type="curve" smooth="yes"/>
      <point x="1224.83" y="2103.67"/>
      <point x="1234.33" y="2074.5"/>
      <point x="1239" y="2057.5" type="curve" smooth="yes"/>
      <point x="1243.67" y="2040.5"/>
      <point x="1251.67" y="2008.5"/>
      <point x="1263" y="1961.5" type="curve" smooth="yes"/>
      <point x="1274.33" y="1914.5"/>
      <point x="1283.33" y="1878"/>
      <point x="1290" y="1852" type="curve"/>
      <point x="1290" y="1770" type="line" smooth="yes"/>
      <point x="1290" y="1752.67"/>
      <point x="1297.33" y="1713.5"/>
      <point x="1312" y="1652.5" type="curve" smooth="yes"/>
      <point x="1326.67" y="1591.5"/>
      <point x="1334" y="1554"/>
    </contour>
    <contour>
      <point x="1026" y="152" type="curve"/>
      <point x="1004.67" y="146.667"/>
      <point x="982" y="164.667"/>
      <point x="958" y="206" type="curve" smooth="yes"/>
      <point x="934" y="247.333"/>
      <point x="915" y="291.833"/>
      <point x="901" y="339.5" type="curve" smooth="yes"/>
      <point x="887" y="387.167"/>
      <point x="880" y="422"/>
      <point x="880" y="444" type="curve" smooth="yes"/>
      <point x="880" y="508" type="line" smooth="yes"/>
      <point x="880" y="523.333"/>
      <point x="886" y="528"/>
      <point x="898" y="522" type="curve" smooth="yes"/>
      <point x="911.333" y="515.333"/>
      <point x="935.333" y="512"/>
      <point x="970" y="512" type="curve" smooth="yes"/>
      <point x="1160" y="512" type="line"/>
      <point x="1161.33" y="504"/>
      <point x="1167" y="492"/>
      <point x="1177" y="476" type="curve" smooth="yes"/>
      <point x="1187" y="460"/>
      <point x="1192" y="440.667"/>
      <point x="1192" y="418" type="curve" smooth="yes"/>
      <point x="1192" y="394.667"/>
      <point x="1183.33" y="362"/>
      <point x="1166" y="320" type="curve" smooth="yes"/>
      <point x="1148.67" y="278"/>
      <point x="1126.5" y="239.5"/>
      <point x="1099.5" y="204.5" type="curve" smooth="yes"/>
      <point x="1072.5" y="169.5"/>
      <point x="1048" y="152"/>
    </contour>
  </outline>
</glyph>
<glyph name="quotedbl" format="2">
  <advance width="1134"/>
  <unicode hex="0022"/>
  <outline>
    <contour>
      <point x="792" y="2704" type="curve"/>
      <point x="798" y="2690.67"/>
      <point x="795" y="2678.5"/>
      <point x="783" y="2667.5" type="curve" smooth="yes"/>
      <point x="771" y="2656.5"/>
      <point x="755.333" y="2646.67"/>
      <point x="736" y="2638" type="curve" smooth="yes"/>
      <point x="716.667" y="2629.33"/>
      <point x="706" y="2624"/>
      <point x="704" y="2622" type="curve" smooth="yes"/>
      <point x="698" y="2622"/>
      <point x="692.333" y="2625.67"/>
      <point x="687" y="2633" type="curve" smooth="yes"/>
      <point x="681.667" y="2640.33"/>
      <point x="676.833" y="2650"/>
      <point x="672.5" y="2662" type="curve" smooth="yes"/>
      <point x="668.167" y="2674"/>
      <point x="664.333" y="2685.83"/>
      <point x="661" y="2697.5" type="curve" smooth="yes"/>
      <point x="657.667" y="2709.17"/>
      <point x="654.5" y="2720.83"/>
      <point x="651.5" y="2732.5" type="curve" smooth="yes"/>
      <point x="648.5" y="2744.17"/>
      <point x="646.667" y="2751.33"/>
      <point x="646" y="2754" type="curve" smooth="yes"/>
      <point x="632.667" y="2795.33"/>
      <point x="637.833" y="2834.67"/>
      <point x="661.5" y="2872" type="curve" smooth="yes"/>
      <point x="685.167" y="2909.33"/>
      <point x="715.333" y="2928"/>
      <point x="752" y="2928" type="curve" smooth="yes"/>
      <point x="788.667" y="2928"/>
      <point x="825" y="2909.17"/>
      <point x="861" y="2871.5" type="curve" smooth="yes"/>
      <point x="897" y="2833.83"/>
      <point x="918.667" y="2796"/>
      <point x="926" y="2758" type="curve" smooth="yes"/>
      <point x="939.333" y="2679.33"/>
      <point x="947.667" y="2626.83"/>
      <point x="951" y="2600.5" type="curve" smooth="yes"/>
      <point x="954.333" y="2574.17"/>
      <point x="956" y="2542.67"/>
      <point x="956" y="2506" type="curve" smooth="yes"/>
      <point x="956" y="2445.33"/>
      <point x="950.667" y="2405.5"/>
      <point x="940" y="2386.5" type="curve" smooth="yes"/>
      <point x="929.333" y="2367.5"/>
      <point x="905.333" y="2358"/>
      <point x="868" y="2358" type="curve"/>
      <point x="896.667" y="2374"/>
      <point x="909.333" y="2404.17"/>
      <point x="906" y="2448.5" type="curve" smooth="yes"/>
      <point x="902.667" y="2492.83"/>
      <point x="893.167" y="2537.17"/>
      <point x="877.5" y="2581.5" type="curve" smooth="yes"/>
      <point x="861.833" y="2625.83"/>
      <point x="848" y="2654"/>
      <point x="836" y="2666" type="curve" smooth="yes"/>
      <point x="834" y="2668"/>
      <point x="826.667" y="2674.33"/>
      <point x="814" y="2685" type="curve" smooth="yes"/>
      <point x="801.333" y="2695.67"/>
      <point x="794" y="2702"/>
    </contour>
    <contour>
      <point x="398" y="2704" type="curve"/>
      <point x="404" y="2690.67"/>
      <point x="401" y="2678.5"/>
      <point x="389" y="2667.5" type="curve" smooth="yes"/>
      <point x="377" y="2656.5"/>
      <point x="361.333" y="2646.67"/>
      <point x="342" y="2638" type="curve" smooth="yes"/>
      <point x="322.667" y="2629.33"/>
      <point x="312" y="2624"/>
      <point x="310" y="2622" type="curve" smooth="yes"/>
      <point x="304.667" y="2622"/>
      <point x="299.333" y="2625.83"/>
      <point x="294" y="2633.5" type="curve" smooth="yes"/>
      <point x="288.667" y="2641.17"/>
      <point x="283.833" y="2651"/>
      <point x="279.5" y="2663" type="curve" smooth="yes"/>
      <point x="275.167" y="2675"/>
      <point x="271.5" y="2686.83"/>
      <point x="268.5" y="2698.5" type="curve" smooth="yes"/>
      <point x="265.5" y="2710.17"/>
      <point x="262.5" y="2721.67"/>
      <point x="259.5" y="2733" type="curve" smooth="yes"/>
      <point x="256.5" y="2744.33"/>
      <point x="254.667" y="2751.33"/>
      <point x="254" y="2754" type="curve" smooth="yes"/>
      <point x="241.333" y="2794"/>
      <point x="246.5" y="2833"/>
      <point x="269.5" y="2871" type="curve" smooth="yes"/>
      <point x="292.5" y="2909"/>
      <point x="321.333" y="2928"/>
      <point x="356" y="2928" type="curve" smooth="yes"/>
      <point x="394.667" y="2927.33"/>
      <point x="436.333" y="2904.67"/>
      <point x="481" y="2860" type="curve" smooth="yes"/>
      <point x="519.667" y="2820.67"/>
      <point x="539" y="2782.33"/>
      <point x="539" y="2745" type="curve" smooth="yes"/>
      <point x="539" y="2739"/>
      <point x="538.667" y="2733.33"/>
      <point x="538" y="2728" type="curve" smooth="yes"/>
      <point x="539.333" y="2711.33"/>
      <point x="542.333" y="2685.67"/>
      <point x="547" y="2651" type="curve" smooth="yes"/>
      <point x="551.667" y="2616.33"/>
      <point x="555.667" y="2585.67"/>
      <point x="559" y="2559" type="curve" smooth="yes"/>
      <point x="562.333" y="2532.33"/>
      <point x="563.833" y="2503.83"/>
      <point x="563.5" y="2473.5" type="curve" smooth="yes"/>
      <point x="563.167" y="2443.17"/>
      <point x="560" y="2418.67"/>
      <point x="554" y="2400" type="curve"/>
      <point x="496" y="2326" type="line"/>
      <point x="495.333" y="2342.67"/>
      <point x="497.667" y="2373.83"/>
      <point x="503" y="2419.5" type="curve" smooth="yes"/>
      <point x="508.333" y="2465.17"/>
      <point x="508" y="2497.33"/>
      <point x="502" y="2516" type="curve" smooth="yes"/>
      <point x="492.667" y="2564"/>
      <point x="480.5" y="2602.67"/>
      <point x="465.5" y="2632" type="curve" smooth="yes"/>
      <point x="450.5" y="2661.33"/>
      <point x="428" y="2685.33"/>
    </contour>
  </outline>
</glyph>
<glyph name="numbersign" format="2">
  <advance width="1410"/>
  <unicode hex="0023"/>
  <outline>
    <contour>
      <point x="1027" y="459" type="line"/>
      <point x="1028" y="474"/>
      <point x="1028" y="490"/>
      <point x="1028" y="508" type="curve" smooth="yes"/>
      <point x="1028" y="528"/>
      <point x="1027" y="549"/>
      <point x="1026" y="572" type="curve" smooth="yes"/>
      <point x="1023" y="616"/>
      <point x="1020" y="651"/>
      <point x="1014" y="676" type="curve"/>
      <point x="711" y="676" type="line"/>
      <point x="711" y="459" type="line"/>
    </contour>
    <contour>
      <point x="680" y="180" type="curve"/>
      <point x="679" y="163"/>
      <point x="672" y="145"/>
      <point x="661" y="129" type="curve" smooth="yes"/>
      <point x="650" y="113"/>
      <point x="635" y="101"/>
      <point x="618" y="94" type="curve" smooth="yes"/>
      <point x="601" y="87"/>
      <point x="583" y="88"/>
      <point x="563" y="98" type="curve"/>
      <point x="608" y="168" type="line" smooth="yes"/>
      <point x="636" y="211"/>
      <point x="650" y="282"/>
      <point x="650" y="381" type="curve"/>
      <point x="614" y="381" type="line"/>
      <point x="540" y="364"/>
      <point x="471" y="320"/>
      <point x="406" y="248" type="curve"/>
      <point x="406" y="260" type="line"/>
      <point x="438" y="346" type="line"/>
      <point x="508" y="420" type="line"/>
      <point x="639" y="480" type="line"/>
      <point x="646" y="533" type="line"/>
      <point x="646" y="564"/>
      <point x="643" y="602"/>
      <point x="636" y="647" type="curve"/>
      <point x="588" y="637"/>
      <point x="545" y="621"/>
      <point x="508" y="600" type="curve" smooth="yes"/>
      <point x="471" y="579"/>
      <point x="437" y="552"/>
      <point x="406" y="518" type="curve"/>
      <point x="406" y="530" type="line"/>
      <point x="438" y="616" type="line"/>
      <point x="508" y="690" type="line"/>
      <point x="615" y="739" type="line"/>
      <point x="593" y="830"/>
      <point x="554" y="901"/>
      <point x="497" y="953" type="curve"/>
      <point x="592" y="913" type="line"/>
      <point x="666" y="844" type="line"/>
      <point x="716" y="734" type="line"/>
      <point x="999" y="731" type="line"/>
      <point x="975" y="827"/>
      <point x="934" y="901"/>
      <point x="877" y="953" type="curve"/>
      <point x="973" y="913" type="line"/>
      <point x="1047" y="844" type="line"/>
      <point x="1101" y="725" type="line"/>
      <point x="1130" y="721" type="line"/>
      <point x="1130" y="711" type="line"/>
      <point x="1147" y="711"/>
      <point x="1161" y="709"/>
      <point x="1171" y="705" type="curve"/>
      <point x="1187" y="705"/>
      <point x="1206" y="697"/>
      <point x="1228" y="681" type="curve" smooth="yes"/>
      <point x="1250" y="665"/>
      <point x="1262" y="650"/>
      <point x="1262" y="636" type="curve" smooth="yes"/>
      <point x="1262" y="629"/>
      <point x="1261" y="618"/>
      <point x="1259" y="606" type="curve" smooth="yes"/>
      <point x="1257" y="594"/>
      <point x="1255" y="588"/>
      <point x="1253" y="588" type="curve" smooth="yes"/>
      <point x="1184" y="633" type="line"/>
      <point x="1162" y="649"/>
      <point x="1131" y="661"/>
      <point x="1092" y="668" type="curve"/>
      <point x="1092" y="450" type="line"/>
      <point x="1130" y="450" type="line"/>
      <point x="1130" y="440" type="line"/>
      <point x="1147" y="440"/>
      <point x="1161" y="438"/>
      <point x="1171" y="434" type="curve"/>
      <point x="1187" y="434"/>
      <point x="1206" y="426"/>
      <point x="1228" y="410" type="curve" smooth="yes"/>
      <point x="1250" y="394"/>
      <point x="1262" y="379"/>
      <point x="1262" y="365" type="curve" smooth="yes"/>
      <point x="1262" y="358"/>
      <point x="1261" y="348"/>
      <point x="1259" y="336" type="curve" smooth="yes"/>
      <point x="1257" y="324"/>
      <point x="1255" y="317"/>
      <point x="1253" y="317" type="curve" smooth="yes"/>
      <point x="1184" y="362" type="line"/>
      <point x="1162" y="378"/>
      <point x="1131" y="390"/>
      <point x="1092" y="397" type="curve"/>
      <point x="1092" y="303" type="line"/>
      <point x="1067" y="205" type="line"/>
      <point x="1067" y="199"/>
      <point x="1065" y="191"/>
      <point x="1061" y="180" type="curve"/>
      <point x="1060" y="163"/>
      <point x="1053" y="145"/>
      <point x="1042" y="129" type="curve" smooth="yes"/>
      <point x="1031" y="113"/>
      <point x="1017" y="101"/>
      <point x="1000" y="94" type="curve" smooth="yes"/>
      <point x="983" y="87"/>
      <point x="964" y="88"/>
      <point x="944" y="98" type="curve"/>
      <point x="989" y="168" type="line" smooth="yes"/>
      <point x="1016" y="213"/>
      <point x="1030" y="291"/>
      <point x="1030" y="403" type="curve"/>
      <point x="710" y="403" type="line"/>
      <point x="710" y="303" type="line"/>
      <point x="686" y="205" type="line"/>
      <point x="686" y="199"/>
      <point x="684" y="191"/>
    </contour>
  </outline>
</glyph>
<glyph name="dollar" format="2">
  <advance width="1466"/>
  <unicode hex="0024"/>
  <outline>
    <contour>
      <point x="778" y="3076" type="curve"/>
      <point x="790.667" y="3092"/>
      <point x="807.667" y="3116.5"/>
      <point x="829" y="3149.5" type="curve" smooth="yes"/>
      <point x="850.333" y="3182.5"/>
      <point x="868.167" y="3208.5"/>
      <point x="882.5" y="3227.5" type="curve" smooth="yes"/>
      <point x="896.833" y="3246.5"/>
      <point x="916.5" y="3265"/>
      <point x="941.5" y="3283" type="curve" smooth="yes"/>
      <point x="966.5" y="3301"/>
      <point x="993.333" y="3311.33"/>
      <point x="1022" y="3314" type="curve" smooth="yes"/>
      <point x="1053.33" y="3317.33"/>
      <point x="1082" y="3310.83"/>
      <point x="1108" y="3294.5" type="curve" smooth="yes"/>
      <point x="1134" y="3278.17"/>
      <point x="1150" y="3257.67"/>
      <point x="1156" y="3233" type="curve" smooth="yes"/>
      <point x="1162" y="3208.33"/>
      <point x="1155.33" y="3182"/>
      <point x="1136" y="3154" type="curve"/>
      <point x="1070" y="3076"/>
      <point x="1018" y="3006"/>
      <point x="980" y="2944" type="curve"/>
      <point x="1022.67" y="2907.33"/>
      <point x="1044" y="2874.67"/>
      <point x="1044" y="2846" type="curve" smooth="yes"/>
      <point x="1044" y="2820"/>
      <point x="1034.67" y="2797.33"/>
      <point x="1016" y="2778" type="curve" smooth="yes"/>
      <point x="997.333" y="2758.67"/>
      <point x="975" y="2746.67"/>
      <point x="949" y="2742" type="curve" smooth="yes"/>
      <point x="923" y="2737.33"/>
      <point x="896" y="2739.33"/>
      <point x="868" y="2748" type="curve"/>
      <point x="738" y="2486"/>
      <point x="670" y="2209.33"/>
      <point x="664" y="1918" type="curve"/>
      <point x="692" y="1900.67"/>
      <point x="756" y="1839.33"/>
      <point x="856" y="1734" type="curve" smooth="yes"/>
      <point x="956" y="1628.67"/>
      <point x="1017.33" y="1560"/>
      <point x="1040" y="1528" type="curve" smooth="yes"/>
      <point x="1147.33" y="1392"/>
      <point x="1217.5" y="1274.33"/>
      <point x="1250.5" y="1175" type="curve" smooth="yes"/>
      <point x="1283.5" y="1075.67"/>
      <point x="1300" y="935.333"/>
      <point x="1300" y="754" type="curve" smooth="yes"/>
      <point x="1300" y="372" type="line" smooth="yes"/>
      <point x="1300" y="365"/>
      <point x="1300" y="365"/>
      <point x="1300" y="359" type="curve" smooth="yes"/>
      <point x="1300" y="265.667"/>
      <point x="1280" y="197.333"/>
      <point x="1240" y="154" type="curve"/>
      <point x="1246" y="143.333"/>
      <point x="1243.5" y="128.167"/>
      <point x="1232.5" y="108.5" type="curve" smooth="yes"/>
      <point x="1221.5" y="88.8333"/>
      <point x="1216" y="78.6667"/>
      <point x="1216" y="78" type="curve" smooth="yes"/>
      <point x="1224" y="38"/>
      <point x="1228" y="10.6667"/>
      <point x="1228" y="-4" type="curve" smooth="yes"/>
      <point x="1228" y="-24"/>
      <point x="1214.17" y="-42.6667"/>
      <point x="1186.5" y="-60" type="curve" smooth="yes"/>
      <point x="1158.83" y="-77.3333"/>
      <point x="1132" y="-86"/>
      <point x="1106" y="-86" type="curve" smooth="yes"/>
      <point x="1036" y="-86"/>
      <point x="990" y="-50"/>
      <point x="968" y="22" type="curve"/>
      <point x="968" y="34" type="line"/>
      <point x="919.333" y="22.6667"/>
      <point x="870" y="16.6667"/>
      <point x="820" y="16" type="curve" smooth="yes"/>
      <point x="816" y="16"/>
      <point x="816" y="16"/>
      <point x="813" y="16" type="curve" smooth="yes"/>
      <point x="765.667" y="16"/>
      <point x="722" y="19.3333"/>
      <point x="682" y="26" type="curve" smooth="yes"/>
      <point x="640.667" y="32"/>
      <point x="595.667" y="44.1667"/>
      <point x="547" y="62.5" type="curve" smooth="yes"/>
      <point x="498.333" y="80.8333"/>
      <point x="457.5" y="97.5"/>
      <point x="424.5" y="112.5" type="curve" smooth="yes"/>
      <point x="391.5" y="127.5"/>
      <point x="351.667" y="149.167"/>
      <point x="305" y="177.5" type="curve" smooth="yes"/>
      <point x="258.333" y="205.833"/>
      <point x="223.167" y="228"/>
      <point x="199.5" y="244" type="curve" smooth="yes"/>
      <point x="175.833" y="260"/>
      <point x="142.667" y="282.667"/>
      <point x="100" y="312" type="curve" smooth="yes"/>
      <point x="79.3333" y="326.667"/>
      <point x="67.1667" y="344.5"/>
      <point x="63.5" y="365.5" type="curve" smooth="yes"/>
      <point x="59.8333" y="386.5"/>
      <point x="63" y="406.167"/>
      <point x="73" y="424.5" type="curve" smooth="yes"/>
      <point x="83" y="442.833"/>
      <point x="98.3333" y="458.167"/>
      <point x="119" y="470.5" type="curve" smooth="yes"/>
      <point x="139.667" y="482.833"/>
      <point x="162" y="488.667"/>
      <point x="186" y="488" type="curve" smooth="yes"/>
      <point x="219.333" y="488"/>
      <point x="260.667" y="471.333"/>
      <point x="310" y="438" type="curve" smooth="yes"/>
      <point x="314.667" y="435.333"/>
      <point x="321.667" y="431"/>
      <point x="331" y="425" type="curve" smooth="yes"/>
      <point x="371" y="400.333"/>
      <point x="402.667" y="381"/>
      <point x="426" y="367" type="curve" smooth="yes"/>
      <point x="449.333" y="353"/>
      <point x="482.833" y="334.5"/>
      <point x="526.5" y="311.5" type="curve" smooth="yes"/>
      <point x="570.167" y="288.5"/>
      <point x="607.5" y="271.167"/>
      <point x="638.5" y="259.5" type="curve" smooth="yes"/>
      <point x="669.5" y="247.833"/>
      <point x="704.167" y="238.167"/>
      <point x="742.5" y="230.5" type="curve" smooth="yes"/>
      <point x="780.833" y="222.833"/>
      <point x="815.333" y="220.667"/>
      <point x="846" y="224" type="curve"/>
      <point x="827.333" y="264.667"/>
      <point x="799.667" y="323.333"/>
      <point x="763" y="400" type="curve" smooth="yes"/>
      <point x="726.333" y="476.667"/>
      <point x="697.5" y="538.167"/>
      <point x="676.5" y="584.5" type="curve" smooth="yes"/>
      <point x="655.5" y="630.833"/>
      <point x="629.667" y="690.5"/>
      <point x="599" y="763.5" type="curve" smooth="yes"/>
      <point x="568.333" y="836.5"/>
      <point x="544" y="903.167"/>
      <point x="526" y="963.5" type="curve" smooth="yes"/>
      <point x="508" y="1023.83"/>
      <point x="490" y="1091.83"/>
      <point x="472" y="1167.5" type="curve" smooth="yes"/>
      <point x="454" y="1243.17"/>
      <point x="440.833" y="1321.5"/>
      <point x="432.5" y="1402.5" type="curve" smooth="yes"/>
      <point x="424.167" y="1483.5"/>
      <point x="420" y="1567.33"/>
      <point x="420" y="1654" type="curve" smooth="yes"/>
      <point x="420" y="1678.67"/>
      <point x="418.167" y="1712.17"/>
      <point x="414.5" y="1754.5" type="curve" smooth="yes"/>
      <point x="410.833" y="1796.83"/>
      <point x="408.667" y="1826.67"/>
      <point x="408" y="1844" type="curve"/>
      <point x="392" y="1861.33"/>
      <point x="368" y="1887"/>
      <point x="336" y="1921" type="curve" smooth="yes"/>
      <point x="304" y="1955"/>
      <point x="280" y="1980.83"/>
      <point x="264" y="1998.5" type="curve" smooth="yes"/>
      <point x="248" y="2016.17"/>
      <point x="226.5" y="2040.5"/>
      <point x="199.5" y="2071.5" type="curve" smooth="yes"/>
      <point x="172.5" y="2102.5"/>
      <point x="151.833" y="2128.67"/>
      <point x="137.5" y="2150" type="curve" smooth="yes"/>
      <point x="123.167" y="2171.33"/>
      <point x="105.833" y="2197.83"/>
      <point x="85.5" y="2229.5" type="curve" smooth="yes"/>
      <point x="65.1667" y="2261.17"/>
      <point x="49.5" y="2291"/>
      <point x="38.5" y="2319" type="curve" smooth="yes"/>
      <point x="27.5" y="2347"/>
      <point x="16.1667" y="2378.5"/>
      <point x="4.5" y="2413.5" type="curve" smooth="yes"/>
      <point x="-7.16667" y="2448.5"/>
      <point x="-15.8333" y="2485.17"/>
      <point x="-21.5" y="2523.5" type="curve" smooth="yes"/>
      <point x="-27.1667" y="2561.83"/>
      <point x="-30.6667" y="2602"/>
      <point x="-32" y="2644" type="curve" smooth="yes"/>
      <point x="-32.6667" y="2678.67"/>
      <point x="-33" y="2704.67"/>
      <point x="-33" y="2722" type="curve" smooth="yes"/>
      <point x="-33" y="2739.33"/>
      <point x="-32.8333" y="2765.33"/>
      <point x="-32.5" y="2800" type="curve" smooth="yes"/>
      <point x="-32.1667" y="2834.67"/>
      <point x="-32" y="2860.67"/>
      <point x="-32" y="2878" type="curve" smooth="yes"/>
      <point x="-31.3333" y="3049.33"/>
      <point x="49.3333" y="3142.67"/>
      <point x="210" y="3158" type="curve"/>
      <point x="334" y="3158" type="line"/>
      <point x="402.667" y="3155.33"/>
      <point x="480.333" y="3146.5"/>
      <point x="567" y="3131.5" type="curve" smooth="yes"/>
      <point x="653.667" y="3116.5"/>
      <point x="724" y="3098"/>
    </contour>
    <contour>
      <point x="1044" y="742" type="line" smooth="yes"/>
      <point x="1042.67" y="752"/>
      <point x="1037.83" y="799.5"/>
      <point x="1029.5" y="884.5" type="curve" smooth="yes"/>
      <point x="1021.17" y="969.5"/>
      <point x="1011.67" y="1039.33"/>
      <point x="1001" y="1094" type="curve" smooth="yes"/>
      <point x="990.333" y="1148.67"/>
      <point x="976.667" y="1184.67"/>
      <point x="960" y="1202" type="curve"/>
      <point x="912" y="1310"/>
      <point x="815.333" y="1438.67"/>
      <point x="670" y="1588" type="curve"/>
      <point x="670" y="1576"/>
      <point x="670" y="1576"/>
      <point x="670" y="1565" type="curve" smooth="yes"/>
      <point x="670" y="1504.33"/>
      <point x="672.333" y="1446"/>
      <point x="677" y="1390" type="curve" smooth="yes"/>
      <point x="682.333" y="1326.67"/>
      <point x="692.167" y="1265.17"/>
      <point x="706.5" y="1205.5" type="curve" smooth="yes"/>
      <point x="720.833" y="1145.83"/>
      <point x="734.833" y="1092.33"/>
      <point x="748.5" y="1045" type="curve" smooth="yes"/>
      <point x="762.167" y="997.667"/>
      <point x="781.833" y="944.167"/>
      <point x="807.5" y="884.5" type="curve" smooth="yes"/>
      <point x="833.167" y="824.833"/>
      <point x="855" y="775.5"/>
      <point x="873" y="736.5" type="curve" smooth="yes"/>
      <point x="891" y="697.5"/>
      <point x="916.333" y="644"/>
      <point x="949" y="576" type="curve" smooth="yes"/>
      <point x="981.667" y="508"/>
      <point x="1007.33" y="454"/>
      <point x="1026" y="414" type="curve"/>
      <point x="1038" y="472"/>
      <point x="1044" y="556.667"/>
      <point x="1044" y="668" type="curve" smooth="yes"/>
    </contour>
    <contour>
      <point x="352" y="2960" type="curve"/>
      <point x="334.667" y="2960"/>
      <point x="296" y="2958"/>
      <point x="236" y="2954" type="curve"/>
      <point x="228" y="2940"/>
      <point x="224" y="2914.67"/>
      <point x="224" y="2878" type="curve" smooth="yes"/>
      <point x="224" y="2644" type="line" smooth="yes"/>
      <point x="224" y="2492.67"/>
      <point x="292" y="2334"/>
      <point x="428" y="2168" type="curve"/>
      <point x="462" y="2418"/>
      <point x="541.333" y="2658.67"/>
      <point x="666" y="2890" type="curve"/>
      <point x="642" y="2901.33"/>
      <point x="587.5" y="2914.67"/>
      <point x="502.5" y="2930" type="curve" smooth="yes"/>
      <point x="417.5" y="2945.33"/>
      <point x="367.333" y="2955.33"/>
    </contour>
  </outline>
</glyph>
<glyph name="percent" format="2">
  <advance width="2800"/>
  <unicode hex="0025"/>
  <outline>
    <contour>
      <point x="1314" y="2724" type="curve" smooth="yes"/>
      <point x="1284" y="2688.67"/>
      <point x="1247.83" y="2667.5"/>
      <point x="1205.5" y="2660.5" type="curve" smooth="yes"/>
      <point x="1163.17" y="2653.5"/>
      <point x="1123.67" y="2660.67"/>
      <point x="1087" y="2682" type="curve" smooth="yes"/>
      <point x="1050.33" y="2703.33"/>
      <point x="1024" y="2734.67"/>
      <point x="1008" y="2776" type="curve" smooth="yes"/>
      <point x="999.333" y="2800"/>
      <point x="994.833" y="2823.33"/>
      <point x="994.5" y="2846" type="curve" smooth="yes"/>
      <point x="994.167" y="2868.67"/>
      <point x="998.167" y="2888.83"/>
      <point x="1006.5" y="2906.5" type="curve" smooth="yes"/>
      <point x="1014.83" y="2924.17"/>
      <point x="1025.67" y="2940.33"/>
      <point x="1039" y="2955" type="curve" smooth="yes"/>
      <point x="1052.33" y="2969.67"/>
      <point x="1068" y="2981.5"/>
      <point x="1086" y="2990.5" type="curve" smooth="yes"/>
      <point x="1104" y="2999.5"/>
      <point x="1122.5" y="3006.33"/>
      <point x="1141.5" y="3011" type="curve" smooth="yes"/>
      <point x="1160.5" y="3015.67"/>
      <point x="1180.17" y="3016.67"/>
      <point x="1200.5" y="3014" type="curve" smooth="yes"/>
      <point x="1220.83" y="3011.33"/>
      <point x="1240" y="3006"/>
      <point x="1258" y="2998" type="curve" smooth="yes"/>
      <point x="1276" y="2990"/>
      <point x="1292.5" y="2977.67"/>
      <point x="1307.5" y="2961" type="curve" smooth="yes"/>
      <point x="1322.5" y="2944.33"/>
      <point x="1334.67" y="2924.67"/>
      <point x="1344" y="2902" type="curve" smooth="yes"/>
      <point x="1352.67" y="2878.67"/>
      <point x="1357" y="2856"/>
      <point x="1357" y="2834" type="curve" smooth="yes"/>
      <point x="1357" y="2794"/>
      <point x="1342.67" y="2757.33"/>
    </contour>
    <contour>
      <point x="1226" y="576" type="curve" smooth="yes"/>
      <point x="1236.67" y="547.333"/>
      <point x="1240.83" y="521.333"/>
      <point x="1238.5" y="498" type="curve" smooth="yes"/>
      <point x="1236.17" y="474.667"/>
      <point x="1229.83" y="452.833"/>
      <point x="1219.5" y="432.5" type="curve" smooth="yes"/>
      <point x="1209.17" y="412.167"/>
      <point x="1195" y="395.333"/>
      <point x="1177" y="382" type="curve" smooth="yes"/>
      <point x="1159" y="368.667"/>
      <point x="1139.67" y="357.667"/>
      <point x="1119" y="349" type="curve" smooth="yes"/>
      <point x="1098.33" y="340.333"/>
      <point x="1076.33" y="336.167"/>
      <point x="1053" y="336.5" type="curve" smooth="yes"/>
      <point x="1029.67" y="336.833"/>
      <point x="1007.67" y="340.5"/>
      <point x="987" y="347.5" type="curve" smooth="yes"/>
      <point x="966.333" y="354.5"/>
      <point x="947.167" y="366.667"/>
      <point x="929.5" y="384" type="curve" smooth="yes"/>
      <point x="911.833" y="401.333"/>
      <point x="898" y="422.667"/>
      <point x="888" y="448" type="curve" smooth="yes"/>
      <point x="877.333" y="478.667"/>
      <point x="873.5" y="508.167"/>
      <point x="876.5" y="536.5" type="curve" smooth="yes"/>
      <point x="879.5" y="564.833"/>
      <point x="888.833" y="588.833"/>
      <point x="904.5" y="608.5" type="curve" smooth="yes"/>
      <point x="920.167" y="628.167"/>
      <point x="938.667" y="645.167"/>
      <point x="960" y="659.5" type="curve" smooth="yes"/>
      <point x="981.333" y="673.833"/>
      <point x="1005.33" y="682.667"/>
      <point x="1032" y="686" type="curve" smooth="yes"/>
      <point x="1058.67" y="689.333"/>
      <point x="1084" y="688.5"/>
      <point x="1108" y="683.5" type="curve" smooth="yes"/>
      <point x="1132" y="678.5"/>
      <point x="1154.83" y="666.667"/>
      <point x="1176.5" y="648" type="curve" smooth="yes"/>
      <point x="1198.17" y="629.333"/>
      <point x="1214.67" y="605.333"/>
    </contour>
    <contour>
      <point x="292" y="14" type="curve" smooth="yes"/>
      <point x="284" y="-20"/>
      <point x="263.667" y="-42.5"/>
      <point x="231" y="-53.5" type="curve" smooth="yes"/>
      <point x="198.333" y="-64.5"/>
      <point x="167" y="-62"/>
      <point x="137" y="-46" type="curve" smooth="yes"/>
      <point x="107" y="-30"/>
      <point x="91.3333" y="-6"/>
      <point x="90" y="26" type="curve" smooth="yes"/>
      <point x="90" y="40.6667"/>
      <point x="91.3333" y="54.6667"/>
      <point x="94" y="68" type="curve" smooth="yes"/>
      <point x="198.667" y="461.333"/>
      <point x="414" y="868"/>
      <point x="740" y="1288" type="curve" smooth="yes"/>
      <point x="762.667" y="1316.67"/>
      <point x="799.667" y="1375.83"/>
      <point x="851" y="1465.5" type="curve" smooth="yes"/>
      <point x="902.333" y="1555.17"/>
      <point x="956" y="1651"/>
      <point x="1012" y="1753" type="curve" smooth="yes"/>
      <point x="1068" y="1855"/>
      <point x="1102.67" y="1917.33"/>
      <point x="1116" y="1940" type="curve" smooth="yes"/>
      <point x="1271.33" y="2200.67"/>
      <point x="1438.67" y="2411.67"/>
      <point x="1618" y="2573" type="curve" smooth="yes"/>
      <point x="1797.33" y="2734.33"/>
      <point x="2010" y="2870"/>
      <point x="2256" y="2980" type="curve" smooth="yes"/>
      <point x="2276" y="2988.67"/>
      <point x="2298.83" y="2998.33"/>
      <point x="2324.5" y="3009" type="curve" smooth="yes"/>
      <point x="2350.17" y="3019.67"/>
      <point x="2366" y="3026.33"/>
      <point x="2372" y="3029" type="curve" smooth="yes"/>
      <point x="2378" y="3031.67"/>
      <point x="2388.33" y="3037"/>
      <point x="2403" y="3045" type="curve" smooth="yes"/>
      <point x="2417.67" y="3053"/>
      <point x="2430.33" y="3061"/>
      <point x="2441" y="3069" type="curve" smooth="yes"/>
      <point x="2451.67" y="3077"/>
      <point x="2468" y="3089.33"/>
      <point x="2490" y="3106" type="curve" smooth="yes"/>
      <point x="2538.67" y="3140.67"/>
      <point x="2586.67" y="3158"/>
      <point x="2634" y="3158" type="curve" smooth="yes"/>
      <point x="2662" y="3158"/>
      <point x="2687.33" y="3147.83"/>
      <point x="2710" y="3127.5" type="curve" smooth="yes"/>
      <point x="2732.67" y="3107.17"/>
      <point x="2744" y="3084"/>
      <point x="2744" y="3058" type="curve" smooth="yes"/>
      <point x="2744" y="3034"/>
      <point x="2735.33" y="3011.67"/>
      <point x="2718" y="2991" type="curve" smooth="yes"/>
      <point x="2700.67" y="2970.33"/>
      <point x="2681.33" y="2958.67"/>
      <point x="2660" y="2956" type="curve" smooth="yes"/>
      <point x="2644" y="2954"/>
      <point x="2613.67" y="2938.17"/>
      <point x="2569" y="2908.5" type="curve" smooth="yes"/>
      <point x="2524.33" y="2878.83"/>
      <point x="2499.33" y="2862.67"/>
      <point x="2494" y="2860" type="curve" smooth="yes"/>
      <point x="2282.67" y="2767.33"/>
      <point x="2153.33" y="2707.33"/>
      <point x="2106" y="2680" type="curve" smooth="yes"/>
      <point x="2052" y="2648.67"/>
      <point x="2000" y="2615"/>
      <point x="1950" y="2579" type="curve" smooth="yes"/>
      <point x="1900" y="2543"/>
      <point x="1853.83" y="2507.5"/>
      <point x="1811.5" y="2472.5" type="curve" smooth="yes"/>
      <point x="1769.17" y="2437.5"/>
      <point x="1727.17" y="2398.17"/>
      <point x="1685.5" y="2354.5" type="curve" smooth="yes"/>
      <point x="1643.83" y="2310.83"/>
      <point x="1606.33" y="2270"/>
      <point x="1573" y="2232" type="curve" smooth="yes"/>
      <point x="1539.67" y="2194"/>
      <point x="1504.33" y="2148.83"/>
      <point x="1467" y="2096.5" type="curve" smooth="yes"/>
      <point x="1429.67" y="2044.17"/>
      <point x="1397.17" y="1997.5"/>
      <point x="1369.5" y="1956.5" type="curve" smooth="yes"/>
      <point x="1341.83" y="1915.5"/>
      <point x="1309.83" y="1864.5"/>
      <point x="1273.5" y="1803.5" type="curve" smooth="yes"/>
      <point x="1237.17" y="1742.5"/>
      <point x="1206.17" y="1689.83"/>
      <point x="1180.5" y="1645.5" type="curve" smooth="yes"/>
      <point x="1154.83" y="1601.17"/>
      <point x="1122.67" y="1544.67"/>
      <point x="1084" y="1476" type="curve" smooth="yes"/>
      <point x="971.333" y="1276.67"/>
      <point x="910.667" y="1172.67"/>
      <point x="902" y="1164" type="curve" smooth="yes"/>
      <point x="582" y="780.667"/>
      <point x="378.667" y="397.333"/>
    </contour>
  </outline>
</glyph>
<glyph name="ampersand" format="2">
  <advance width="1642"/>
  <unicode hex="0026"/>
  <outline>
    <contour>
      <point x="738" y="336" type="curve" smooth="yes"/>
      <point x="781.333" y="336"/>
      <point x="824.167" y="354.5"/>
      <point x="866.5" y="391.5" type="curve" smooth="yes"/>
      <point x="908.833" y="428.5"/>
      <point x="931.333" y="468.667"/>
      <point x="934" y="512" type="curve"/>
      <point x="934" y="690" type="line" smooth="yes"/>
      <point x="935.333" y="727.333"/>
      <point x="935.667" y="753.833"/>
      <point x="935" y="769.5" type="curve" smooth="yes"/>
      <point x="934.333" y="785.167"/>
      <point x="931.5" y="812.833"/>
      <point x="926.5" y="852.5" type="curve" smooth="yes"/>
      <point x="921.5" y="892.167"/>
      <point x="918.667" y="916.667"/>
      <point x="918" y="926" type="curve" smooth="yes"/>
      <point x="916.667" y="935.333"/>
      <point x="915.5" y="942.833"/>
      <point x="914.5" y="948.5" type="curve" smooth="yes"/>
      <point x="913.5" y="954.167"/>
      <point x="912" y="961.5"/>
      <point x="910" y="970.5" type="curve" smooth="yes"/>
      <point x="908" y="979.5"/>
      <point x="906" y="986.833"/>
      <point x="904" y="992.5" type="curve" smooth="yes"/>
      <point x="902" y="998.167"/>
      <point x="899.333" y="1004.33"/>
      <point x="896" y="1011" type="curve" smooth="yes"/>
      <point x="892.667" y="1017.67"/>
      <point x="888.667" y="1022.83"/>
      <point x="884" y="1026.5" type="curve" smooth="yes"/>
      <point x="879.333" y="1030.17"/>
      <point x="874.167" y="1033.5"/>
      <point x="868.5" y="1036.5" type="curve" smooth="yes"/>
      <point x="862.833" y="1039.5"/>
      <point x="856.167" y="1040.83"/>
      <point x="848.5" y="1040.5" type="curve" smooth="yes"/>
      <point x="840.833" y="1040.17"/>
      <point x="832.667" y="1038.67"/>
      <point x="824" y="1036" type="curve"/>
      <point x="728" y="1036" type="line"/>
      <point x="654.667" y="978.667"/>
      <point x="597.333" y="910.167"/>
      <point x="556" y="830.5" type="curve" smooth="yes"/>
      <point x="514.667" y="750.833"/>
      <point x="491.333" y="669.333"/>
      <point x="486" y="586" type="curve"/>
      <point x="486" y="476" type="line"/>
      <point x="510" y="382.667"/>
      <point x="594" y="336"/>
    </contour>
    <contour>
      <point x="708" y="2904" type="curve"/>
      <point x="678" y="2905.33"/>
      <point x="651.167" y="2901.83"/>
      <point x="627.5" y="2893.5" type="curve" smooth="yes"/>
      <point x="603.833" y="2885.17"/>
      <point x="584" y="2874.17"/>
      <point x="568" y="2860.5" type="curve" smooth="yes"/>
      <point x="552" y="2846.83"/>
      <point x="538" y="2828.17"/>
      <point x="526" y="2804.5" type="curve" smooth="yes"/>
      <point x="514" y="2780.83"/>
      <point x="504.5" y="2758.17"/>
      <point x="497.5" y="2736.5" type="curve" smooth="yes"/>
      <point x="490.5" y="2714.83"/>
      <point x="484.667" y="2687.83"/>
      <point x="480" y="2655.5" type="curve" smooth="yes"/>
      <point x="475.333" y="2623.17"/>
      <point x="472.167" y="2595.17"/>
      <point x="470.5" y="2571.5" type="curve" smooth="yes"/>
      <point x="468.833" y="2547.83"/>
      <point x="467.333" y="2518.67"/>
      <point x="466" y="2484" type="curve" smooth="yes"/>
      <point x="466" y="2306" type="line" smooth="yes"/>
      <point x="466" y="2230.67"/>
      <point x="472.667" y="2170"/>
      <point x="486" y="2124" type="curve"/>
      <point x="482" y="2110.67"/>
      <point x="491.167" y="2088.67"/>
      <point x="513.5" y="2058" type="curve" smooth="yes"/>
      <point x="535.833" y="2027.33"/>
      <point x="561.167" y="1997"/>
      <point x="589.5" y="1967" type="curve" smooth="yes"/>
      <point x="617.833" y="1937"/>
      <point x="642.667" y="1906.33"/>
      <point x="664" y="1875" type="curve" smooth="yes"/>
      <point x="685.333" y="1843.67"/>
      <point x="693.333" y="1820.67"/>
      <point x="688" y="1806" type="curve"/>
      <point x="688" y="1784" type="line"/>
      <point x="719.333" y="1758.67"/>
      <point x="744" y="1756.67"/>
      <point x="762" y="1778" type="curve" smooth="yes"/>
      <point x="772" y="1789.33"/>
      <point x="788.667" y="1825.33"/>
      <point x="812" y="1886" type="curve" smooth="yes"/>
      <point x="813" y="1888"/>
      <point x="813" y="1888"/>
      <point x="814" y="1890" type="curve" smooth="yes"/>
      <point x="822.667" y="1912"/>
      <point x="831.333" y="1933.5"/>
      <point x="840" y="1954.5" type="curve" smooth="yes"/>
      <point x="848.667" y="1975.5"/>
      <point x="854.333" y="1988.5"/>
      <point x="857" y="1993.5" type="curve" smooth="yes"/>
      <point x="859.667" y="1998.5"/>
      <point x="862.5" y="2007"/>
      <point x="865.5" y="2019" type="curve" smooth="yes"/>
      <point x="868.5" y="2031"/>
      <point x="870.5" y="2041.33"/>
      <point x="871.5" y="2050" type="curve" smooth="yes"/>
      <point x="872.5" y="2058.67"/>
      <point x="874" y="2074.67"/>
      <point x="876" y="2098" type="curve" smooth="yes"/>
      <point x="877.333" y="2124.67"/>
      <point x="884.333" y="2181.33"/>
      <point x="897" y="2268" type="curve" smooth="yes"/>
      <point x="909.667" y="2354.67"/>
      <point x="916" y="2422"/>
      <point x="916" y="2470" type="curve" smooth="yes"/>
      <point x="916" y="2570"/>
      <point x="897.333" y="2658.17"/>
      <point x="860" y="2734.5" type="curve" smooth="yes"/>
      <point x="822.667" y="2810.83"/>
      <point x="772" y="2867.33"/>
    </contour>
    <contour>
      <point x="1374" y="880" type="curve" smooth="yes"/>
      <point x="1374" y="860.667"/>
      <point x="1370" y="845.333"/>
      <point x="1362" y="834" type="curve" smooth="yes"/>
      <point x="1354" y="822.667"/>
      <point x="1343.33" y="812.5"/>
      <point x="1330" y="803.5" type="curve" smooth="yes"/>
      <point x="1316.67" y="794.5"/>
      <point x="1307.33" y="785.333"/>
      <point x="1302" y="776" type="curve"/>
      <point x="1372" y="668"/>
      <point x="1432.67" y="566"/>
      <point x="1484" y="470" type="curve"/>
      <point x="1524" y="458"/>
      <point x="1544" y="433.333"/>
      <point x="1544" y="396" type="curve" smooth="yes"/>
      <point x="1544" y="353.333"/>
      <point x="1531.5" y="323"/>
      <point x="1506.5" y="305" type="curve" smooth="yes"/>
      <point x="1481.5" y="287"/>
      <point x="1454.67" y="282.167"/>
      <point x="1426" y="290.5" type="curve" smooth="yes"/>
      <point x="1397.33" y="298.833"/>
      <point x="1377.33" y="315.333"/>
      <point x="1366" y="340" type="curve" smooth="yes"/>
      <point x="1332" y="408"/>
      <point x="1284" y="492"/>
      <point x="1222" y="592" type="curve"/>
      <point x="1206" y="541.333"/>
      <point x="1187.33" y="496.833"/>
      <point x="1166" y="458.5" type="curve" smooth="yes"/>
      <point x="1144.67" y="420.167"/>
      <point x="1125" y="390.833"/>
      <point x="1107" y="370.5" type="curve" smooth="yes"/>
      <point x="1089" y="350.167"/>
      <point x="1064.83" y="324"/>
      <point x="1034.5" y="292" type="curve" smooth="yes"/>
      <point x="1004.17" y="260"/>
      <point x="978.667" y="230.667"/>
      <point x="958" y="204" type="curve" smooth="yes"/>
      <point x="902" y="132"/>
      <point x="806" y="96"/>
      <point x="670" y="96" type="curve" smooth="yes"/>
      <point x="642.667" y="96"/>
      <point x="614.5" y="100.667"/>
      <point x="585.5" y="110" type="curve" smooth="yes"/>
      <point x="556.5" y="119.333"/>
      <point x="534.5" y="127.833"/>
      <point x="519.5" y="135.5" type="curve" smooth="yes"/>
      <point x="504.5" y="143.167"/>
      <point x="479.167" y="158.5"/>
      <point x="443.5" y="181.5" type="curve" smooth="yes"/>
      <point x="407.833" y="204.5"/>
      <point x="385.333" y="218.667"/>
      <point x="376" y="224" type="curve" smooth="yes"/>
      <point x="306.667" y="265.333"/>
      <point x="253.333" y="314.333"/>
      <point x="216" y="371" type="curve" smooth="yes"/>
      <point x="178.667" y="427.667"/>
      <point x="160" y="504"/>
      <point x="160" y="600" type="curve"/>
      <point x="172.667" y="658.667"/>
      <point x="193" y="718.333"/>
      <point x="221" y="779" type="curve" smooth="yes"/>
      <point x="249" y="839.667"/>
      <point x="283.5" y="899.5"/>
      <point x="324.5" y="958.5" type="curve" smooth="yes"/>
      <point x="365.5" y="1017.5"/>
      <point x="403.833" y="1069.5"/>
      <point x="439.5" y="1114.5" type="curve" smooth="yes"/>
      <point x="475.167" y="1159.5"/>
      <point x="517.167" y="1210.83"/>
      <point x="565.5" y="1268.5" type="curve" smooth="yes"/>
      <point x="613.833" y="1326.17"/>
      <point x="648.667" y="1368.67"/>
      <point x="670" y="1396" type="curve"/>
      <point x="506" y="1647.33"/>
      <point x="390" y="1836"/>
      <point x="322" y="1962" type="curve" smooth="yes"/>
      <point x="259.333" y="2078"/>
      <point x="218.667" y="2190"/>
      <point x="200" y="2298" type="curve" smooth="yes"/>
      <point x="181.333" y="2406"/>
      <point x="172" y="2559.33"/>
      <point x="172" y="2758" type="curve" smooth="yes"/>
      <point x="172" y="2939.33"/>
      <point x="205.333" y="3069.33"/>
      <point x="272" y="3148" type="curve" smooth="yes"/>
      <point x="313.333" y="3197.33"/>
      <point x="365.333" y="3222"/>
      <point x="428" y="3222" type="curve" smooth="yes"/>
      <point x="530" y="3222" type="line" smooth="yes"/>
      <point x="678.667" y="3222"/>
      <point x="790" y="3178"/>
      <point x="864" y="3090" type="curve" smooth="yes"/>
      <point x="928" y="3014"/>
      <point x="975.5" y="2911.5"/>
      <point x="1006.5" y="2782.5" type="curve" smooth="yes"/>
      <point x="1037.5" y="2653.5"/>
      <point x="1064.67" y="2478"/>
      <point x="1088" y="2256" type="curve" smooth="yes"/>
      <point x="1094.67" y="2190"/>
      <point x="1098" y="2127.67"/>
      <point x="1098" y="2069" type="curve" smooth="yes"/>
      <point x="1098" y="1969.67"/>
      <point x="1088.33" y="1879.33"/>
      <point x="1069" y="1798" type="curve" smooth="yes"/>
      <point x="1037.67" y="1669.33"/>
      <point x="974" y="1533.33"/>
      <point x="878" y="1390" type="curve"/>
      <point x="1202" y="922" type="line"/>
      <point x="1236.67" y="960.667"/>
      <point x="1266" y="980"/>
      <point x="1290" y="980" type="curve" smooth="yes"/>
      <point x="1316" y="980"/>
      <point x="1336.5" y="970.667"/>
      <point x="1351.5" y="952" type="curve" smooth="yes"/>
      <point x="1366.5" y="933.333"/>
      <point x="1374" y="909.333"/>
    </contour>
  </outline>
</glyph>
<glyph name="quotesingle" format="2">
  <advance width="362"/>
  <unicode hex="0027"/>
  <outline>
    <contour>
      <point x="356" y="1364" type="curve" smooth="yes"/>
      <point x="356" y="1359"/>
      <point x="359" y="1340"/>
      <point x="365" y="1306" type="curve" smooth="yes"/>
      <point x="369" y="1284"/>
      <point x="370" y="1266"/>
      <point x="370" y="1254" type="curve" smooth="yes"/>
      <point x="370" y="1247"/>
      <point x="369" y="1241"/>
      <point x="368" y="1237" type="curve"/>
      <point x="368" y="1227"/>
      <point x="368" y="1218"/>
      <point x="367" y="1212" type="curve" smooth="yes"/>
      <point x="366" y="1206"/>
      <point x="364" y="1199"/>
      <point x="361" y="1193" type="curve" smooth="yes"/>
      <point x="358" y="1187"/>
      <point x="355" y="1182"/>
      <point x="349" y="1180" type="curve" smooth="yes"/>
      <point x="343" y="1178"/>
      <point x="346" y="1164"/>
      <point x="336" y="1166" type="curve"/>
      <point x="350" y="1174"/>
      <point x="345" y="1202"/>
      <point x="343" y="1224" type="curve" smooth="yes"/>
      <point x="341" y="1246"/>
      <point x="337" y="1269"/>
      <point x="329" y="1291" type="curve" smooth="yes"/>
      <point x="321" y="1313"/>
      <point x="314" y="1327"/>
      <point x="308" y="1333" type="curve" smooth="yes"/>
      <point x="307" y="1334"/>
      <point x="303" y="1337"/>
      <point x="297" y="1342" type="curve" smooth="yes"/>
      <point x="291" y="1347"/>
      <point x="287" y="1351"/>
      <point x="286" y="1352" type="curve"/>
      <point x="289" y="1345"/>
      <point x="287" y="1340"/>
      <point x="281" y="1334" type="curve" smooth="yes"/>
      <point x="275" y="1328"/>
      <point x="268" y="1323"/>
      <point x="258" y="1319" type="curve" smooth="yes"/>
      <point x="248" y="1315"/>
      <point x="243" y="1312"/>
      <point x="242" y="1311" type="curve" smooth="yes"/>
      <point x="239" y="1311"/>
      <point x="237" y="1313"/>
      <point x="234" y="1317" type="curve" smooth="yes"/>
      <point x="231" y="1321"/>
      <point x="229" y="1326"/>
      <point x="227" y="1332" type="curve" smooth="yes"/>
      <point x="225" y="1338"/>
      <point x="223" y="1343"/>
      <point x="221" y="1349" type="curve" smooth="yes"/>
      <point x="219" y="1355"/>
      <point x="219" y="1360"/>
      <point x="217" y="1366" type="curve" smooth="yes"/>
      <point x="215" y="1372"/>
      <point x="214" y="1376"/>
      <point x="214" y="1377" type="curve" smooth="yes"/>
      <point x="207" y="1398"/>
      <point x="210" y="1417"/>
      <point x="221" y="1434" type="curve" smooth="yes"/>
      <point x="230" y="1448"/>
      <point x="241" y="1457"/>
      <point x="253" y="1461" type="curve" smooth="yes"/>
      <point x="265" y="1465"/>
      <point x="277" y="1464"/>
      <point x="289" y="1458" type="curve" smooth="yes"/>
      <point x="301" y="1452"/>
      <point x="312" y="1444"/>
      <point x="322" y="1434" type="curve" smooth="yes"/>
      <point x="332" y="1424"/>
      <point x="341" y="1412"/>
      <point x="347" y="1399" type="curve" smooth="yes"/>
      <point x="353" y="1386"/>
      <point x="356" y="1375"/>
    </contour>
  </outline>
</glyph>
<glyph name="parenleft" format="2">
  <advance width="2194"/>
  <unicode hex="0028"/>
  <outline>
    <contour>
      <point x="1192" y="2420" type="line"/>
      <point x="1200.67" y="2386"/>
      <point x="1204.5" y="2347"/>
      <point x="1203.5" y="2303" type="curve" smooth="yes"/>
      <point x="1202.5" y="2259"/>
      <point x="1197.33" y="2224"/>
      <point x="1188" y="2198" type="curve" smooth="yes"/>
      <point x="1188" y="2192"/>
      <point x="1188" y="2192"/>
      <point x="1188" y="2186" type="curve" smooth="yes"/>
      <point x="1188" y="2150.67"/>
      <point x="1183" y="2105.33"/>
      <point x="1173" y="2050" type="curve" smooth="yes"/>
      <point x="1161.67" y="1987.33"/>
      <point x="1156" y="1940"/>
      <point x="1156" y="1908" type="curve" smooth="yes"/>
      <point x="1156" y="1646" type="line"/>
      <point x="1193.33" y="1284.67"/>
      <point x="1212" y="962.667"/>
      <point x="1212" y="680" type="curve" smooth="yes"/>
      <point x="1212" y="592" type="line"/>
      <point x="1267.33" y="293.333"/>
      <point x="1311.83" y="75.1667"/>
      <point x="1345.5" y="-62.5" type="curve" smooth="yes"/>
      <point x="1379.17" y="-200.167"/>
      <point x="1444.67" y="-427.333"/>
      <point x="1542" y="-744" type="curve"/>
      <point x="1542" y="-822" type="line" smooth="yes"/>
      <point x="1543.33" y="-826.667"/>
      <point x="1550.33" y="-834.833"/>
      <point x="1563" y="-846.5" type="curve" smooth="yes"/>
      <point x="1575.67" y="-858.167"/>
      <point x="1582" y="-867.333"/>
      <point x="1582" y="-874" type="curve" smooth="yes"/>
      <point x="1582" y="-898.667"/>
      <point x="1569.83" y="-919.5"/>
      <point x="1545.5" y="-936.5" type="curve" smooth="yes"/>
      <point x="1521.17" y="-953.5"/>
      <point x="1494" y="-962"/>
      <point x="1464" y="-962" type="curve" smooth="yes"/>
      <point x="1424.67" y="-962"/>
      <point x="1398" y="-940.667"/>
      <point x="1384" y="-898" type="curve"/>
      <point x="1384" y="-816" type="line" smooth="yes"/>
      <point x="1382" y="-814"/>
      <point x="1375.83" y="-803.667"/>
      <point x="1365.5" y="-785" type="curve" smooth="yes"/>
      <point x="1355.17" y="-766.333"/>
      <point x="1340" y="-733.167"/>
      <point x="1320" y="-685.5" type="curve" smooth="yes"/>
      <point x="1300" y="-637.833"/>
      <point x="1281.33" y="-586"/>
      <point x="1264" y="-530" type="curve" smooth="yes"/>
      <point x="1252" y="-491.333"/>
      <point x="1240.33" y="-451.833"/>
      <point x="1229" y="-411.5" type="curve" smooth="yes"/>
      <point x="1217.67" y="-371.167"/>
      <point x="1207.67" y="-335.667"/>
      <point x="1199" y="-305" type="curve" smooth="yes"/>
      <point x="1190.33" y="-274.333"/>
      <point x="1180.67" y="-236.333"/>
      <point x="1170" y="-191" type="curve" smooth="yes"/>
      <point x="1159.33" y="-145.667"/>
      <point x="1151.17" y="-111.667"/>
      <point x="1145.5" y="-89" type="curve" smooth="yes"/>
      <point x="1139.83" y="-66.3333"/>
      <point x="1131.83" y="-29"/>
      <point x="1121.5" y="23" type="curve" smooth="yes"/>
      <point x="1111.17" y="75"/>
      <point x="1104.17" y="109"/>
      <point x="1100.5" y="125" type="curve" smooth="yes"/>
      <point x="1096.83" y="141"/>
      <point x="1089.5" y="179"/>
      <point x="1078.5" y="239" type="curve" smooth="yes"/>
      <point x="1067.5" y="299"/>
      <point x="1061" y="334.333"/>
      <point x="1059" y="345" type="curve" smooth="yes"/>
      <point x="1057" y="355.667"/>
      <point x="1049.67" y="395.667"/>
      <point x="1037" y="465" type="curve" smooth="yes"/>
      <point x="1024.33" y="534.333"/>
      <point x="1017.33" y="573.333"/>
      <point x="1016" y="582" type="curve" smooth="yes"/>
      <point x="1016" y="680" type="line" smooth="yes"/>
      <point x="1016.67" y="686.667"/>
      <point x="1017" y="695"/>
      <point x="1017" y="705" type="curve" smooth="yes"/>
      <point x="1017" y="778.333"/>
      <point x="1003.67" y="942"/>
      <point x="977" y="1196" type="curve" smooth="yes"/>
      <point x="947" y="1484"/>
      <point x="932" y="1644.67"/>
      <point x="932" y="1678" type="curve" smooth="yes"/>
      <point x="932" y="2076" type="line"/>
      <point x="935.333" y="2092.67"/>
      <point x="944.833" y="2112.83"/>
      <point x="960.5" y="2136.5" type="curve" smooth="yes"/>
      <point x="976.167" y="2160.17"/>
      <point x="984" y="2180"/>
      <point x="984" y="2196" type="curve" smooth="yes"/>
      <point x="984" y="2384" type="line" smooth="yes"/>
      <point x="984" y="2440"/>
      <point x="991.667" y="2494"/>
      <point x="1007" y="2546" type="curve" smooth="yes"/>
      <point x="1022.33" y="2598"/>
      <point x="1040.5" y="2650.17"/>
      <point x="1061.5" y="2702.5" type="curve" smooth="yes"/>
      <point x="1082.5" y="2754.83"/>
      <point x="1096.67" y="2800.67"/>
      <point x="1104" y="2840" type="curve" smooth="yes"/>
      <point x="1106.67" y="2854.67"/>
      <point x="1112.33" y="2879.33"/>
      <point x="1121" y="2914" type="curve" smooth="yes"/>
      <point x="1129.67" y="2948.67"/>
      <point x="1135.33" y="2976"/>
      <point x="1138" y="2996" type="curve"/>
      <point x="1138" y="3050" type="line"/>
      <point x="1148" y="3122.67"/>
      <point x="1179.33" y="3215.33"/>
      <point x="1232" y="3328" type="curve" smooth="yes"/>
      <point x="1240" y="3345.33"/>
      <point x="1253" y="3358.33"/>
      <point x="1271" y="3367" type="curve" smooth="yes"/>
      <point x="1289" y="3375.67"/>
      <point x="1307.67" y="3379.17"/>
      <point x="1327" y="3377.5" type="curve" smooth="yes"/>
      <point x="1346.33" y="3375.83"/>
      <point x="1364.5" y="3371.17"/>
      <point x="1381.5" y="3363.5" type="curve" smooth="yes"/>
      <point x="1398.5" y="3355.83"/>
      <point x="1411.5" y="3344"/>
      <point x="1420.5" y="3328" type="curve" smooth="yes"/>
      <point x="1429.5" y="3312"/>
      <point x="1431.33" y="3294.67"/>
      <point x="1426" y="3276" type="curve" smooth="yes"/>
    </contour>
  </outline>
</glyph>
<glyph name="parenright" format="2">
  <advance width="2194"/>
  <unicode hex="0029"/>
  <outline>
    <contour>
      <point x="1300" y="1824" type="line"/>
      <point x="1289.33" y="1877.33"/>
      <point x="1273" y="1959.83"/>
      <point x="1251" y="2071.5" type="curve" smooth="yes"/>
      <point x="1229" y="2183.17"/>
      <point x="1214.5" y="2255.5"/>
      <point x="1207.5" y="2288.5" type="curve" smooth="yes"/>
      <point x="1200.5" y="2321.5"/>
      <point x="1188" y="2378.33"/>
      <point x="1170" y="2459" type="curve" smooth="yes"/>
      <point x="1152" y="2539.67"/>
      <point x="1135.33" y="2606.83"/>
      <point x="1120" y="2660.5" type="curve" smooth="yes"/>
      <point x="1104.67" y="2714.17"/>
      <point x="1084.33" y="2784"/>
      <point x="1059" y="2870" type="curve" smooth="yes"/>
      <point x="1033.67" y="2956"/>
      <point x="1004" y="3052.67"/>
      <point x="970" y="3160" type="curve"/>
      <point x="970" y="3238" type="line" smooth="yes"/>
      <point x="968.667" y="3242"/>
      <point x="962" y="3250.17"/>
      <point x="950" y="3262.5" type="curve" smooth="yes"/>
      <point x="938" y="3274.83"/>
      <point x="932" y="3284.67"/>
      <point x="932" y="3292" type="curve" smooth="yes"/>
      <point x="932" y="3316.67"/>
      <point x="944" y="3337.5"/>
      <point x="968" y="3354.5" type="curve" smooth="yes"/>
      <point x="992" y="3371.5"/>
      <point x="1019.33" y="3380"/>
      <point x="1050" y="3380" type="curve" smooth="yes"/>
      <point x="1087.33" y="3380"/>
      <point x="1114" y="3358"/>
      <point x="1130" y="3314" type="curve"/>
      <point x="1130" y="3232" type="line" smooth="yes"/>
      <point x="1132" y="3230"/>
      <point x="1138.17" y="3219.5"/>
      <point x="1148.5" y="3200.5" type="curve" smooth="yes"/>
      <point x="1158.83" y="3181.5"/>
      <point x="1174" y="3148.33"/>
      <point x="1194" y="3101" type="curve" smooth="yes"/>
      <point x="1214" y="3053.67"/>
      <point x="1232.67" y="3002"/>
      <point x="1250" y="2946" type="curve" smooth="yes"/>
      <point x="1262" y="2907.33"/>
      <point x="1273.67" y="2868"/>
      <point x="1285" y="2828" type="curve" smooth="yes"/>
      <point x="1296.33" y="2788"/>
      <point x="1306.5" y="2752.5"/>
      <point x="1315.5" y="2721.5" type="curve" smooth="yes"/>
      <point x="1324.5" y="2690.5"/>
      <point x="1334.17" y="2652.5"/>
      <point x="1344.5" y="2607.5" type="curve" smooth="yes"/>
      <point x="1354.83" y="2562.5"/>
      <point x="1363" y="2528.33"/>
      <point x="1369" y="2505" type="curve" smooth="yes"/>
      <point x="1375" y="2481.67"/>
      <point x="1383" y="2444.5"/>
      <point x="1393" y="2393.5" type="curve" smooth="yes"/>
      <point x="1403" y="2342.5"/>
      <point x="1409.83" y="2308.67"/>
      <point x="1413.5" y="2292" type="curve" smooth="yes"/>
      <point x="1417.17" y="2275.33"/>
      <point x="1424.5" y="2237.5"/>
      <point x="1435.5" y="2178.5" type="curve" smooth="yes"/>
      <point x="1446.5" y="2119.5"/>
      <point x="1453.17" y="2084.17"/>
      <point x="1455.5" y="2072.5" type="curve" smooth="yes"/>
      <point x="1457.83" y="2060.83"/>
      <point x="1465" y="2021"/>
      <point x="1477" y="1953" type="curve" smooth="yes"/>
      <point x="1489" y="1885"/>
      <point x="1496" y="1846"/>
      <point x="1498" y="1836" type="curve" smooth="yes"/>
      <point x="1498" y="1736" type="line" smooth="yes"/>
      <point x="1498" y="1729"/>
      <point x="1498" y="1729"/>
      <point x="1498" y="1720" type="curve" smooth="yes"/>
      <point x="1498" y="1652"/>
      <point x="1511.33" y="1486.67"/>
      <point x="1538" y="1224" type="curve" smooth="yes"/>
      <point x="1567.33" y="936.667"/>
      <point x="1582" y="774.667"/>
      <point x="1582" y="738" type="curve" smooth="yes"/>
      <point x="1582" y="340" type="line"/>
      <point x="1578" y="324"/>
      <point x="1568.33" y="304.333"/>
      <point x="1553" y="281" type="curve" smooth="yes"/>
      <point x="1537.67" y="257.667"/>
      <point x="1530" y="238"/>
      <point x="1530" y="222" type="curve" smooth="yes"/>
      <point x="1530" y="32" type="line" smooth="yes"/>
      <point x="1530" y="-11.3333"/>
      <point x="1524.5" y="-54.6667"/>
      <point x="1513.5" y="-98" type="curve" smooth="yes"/>
      <point x="1502.5" y="-141.333"/>
      <point x="1490.17" y="-178"/>
      <point x="1476.5" y="-208" type="curve" smooth="yes"/>
      <point x="1462.83" y="-238"/>
      <point x="1449.5" y="-272.667"/>
      <point x="1436.5" y="-312" type="curve" smooth="yes"/>
      <point x="1423.5" y="-351.333"/>
      <point x="1415.33" y="-388"/>
      <point x="1412" y="-422" type="curve" smooth="yes"/>
      <point x="1410.67" y="-429.333"/>
      <point x="1405.33" y="-448.333"/>
      <point x="1396" y="-479" type="curve" smooth="yes"/>
      <point x="1386.67" y="-509.667"/>
      <point x="1382" y="-530"/>
      <point x="1382" y="-540" type="curve" smooth="yes"/>
      <point x="1382" y="-676" type="line" smooth="yes"/>
      <point x="1382" y="-695.333"/>
      <point x="1375.67" y="-719.333"/>
      <point x="1363" y="-748" type="curve" smooth="yes"/>
      <point x="1350.33" y="-776.667"/>
      <point x="1334.83" y="-807.333"/>
      <point x="1316.5" y="-840" type="curve" smooth="yes"/>
      <point x="1298.17" y="-872.667"/>
      <point x="1286.67" y="-894.667"/>
      <point x="1282" y="-906" type="curve" smooth="yes"/>
      <point x="1268.67" y="-936.667"/>
      <point x="1245.83" y="-954.667"/>
      <point x="1213.5" y="-960" type="curve" smooth="yes"/>
      <point x="1181.17" y="-965.333"/>
      <point x="1151.67" y="-958"/>
      <point x="1125" y="-938" type="curve" smooth="yes"/>
      <point x="1098.33" y="-918"/>
      <point x="1086" y="-892"/>
      <point x="1088" y="-860" type="curve"/>
      <point x="1329" y="22" type="line"/>
      <point x="1292" y="220" type="line" smooth="yes"/>
      <point x="1292" y="225"/>
      <point x="1292" y="225"/>
      <point x="1292" y="231" type="curve" smooth="yes"/>
      <point x="1292" y="265"/>
      <point x="1302.33" y="310.333"/>
      <point x="1323" y="367" type="curve" smooth="yes"/>
      <point x="1346.33" y="430.333"/>
      <point x="1358" y="477.333"/>
      <point x="1358" y="508" type="curve" smooth="yes"/>
      <point x="1358" y="770" type="line"/>
      <point x="1348" y="878"/>
      <point x="1335.83" y="1044"/>
      <point x="1321.5" y="1268" type="curve" smooth="yes"/>
      <point x="1307.17" y="1492"/>
      <point x="1300" y="1648"/>
      <point x="1300" y="1736" type="curve" smooth="yes"/>
    </contour>
  </outline>
</glyph>
<glyph name="asterisk" format="2">
  <advance width="1720"/>
  <unicode hex="002A"/>
  <outline>
    <contour>
      <point x="342" y="2158" type="curve"/>
      <point x="361.333" y="2164"/>
      <point x="389.833" y="2149.83"/>
      <point x="427.5" y="2115.5" type="curve" smooth="yes"/>
      <point x="465.167" y="2081.17"/>
      <point x="501.333" y="2041.67"/>
      <point x="536" y="1997" type="curve" smooth="yes"/>
      <point x="570.667" y="1952.33"/>
      <point x="604.833" y="1911"/>
      <point x="638.5" y="1873" type="curve" smooth="yes"/>
      <point x="672.167" y="1835"/>
      <point x="695.333" y="1816"/>
      <point x="708" y="1816" type="curve"/>
      <point x="697.333" y="1940.67"/>
      <point x="692" y="2053"/>
      <point x="692" y="2153" type="curve" smooth="yes"/>
      <point x="692" y="2161"/>
      <point x="692" y="2161"/>
      <point x="692" y="2170" type="curve" smooth="yes"/>
      <point x="692" y="2199.33"/>
      <point x="702" y="2224"/>
      <point x="722" y="2244" type="curve" smooth="yes"/>
      <point x="742" y="2264"/>
      <point x="766.667" y="2274"/>
      <point x="796" y="2274" type="curve" smooth="yes"/>
      <point x="828.667" y="2272.67"/>
      <point x="853.833" y="2259.83"/>
      <point x="871.5" y="2235.5" type="curve" smooth="yes"/>
      <point x="889.167" y="2211.17"/>
      <point x="898" y="2178.67"/>
      <point x="898" y="2138" type="curve" smooth="yes"/>
      <point x="898" y="2026"/>
      <point x="904" y="1910"/>
      <point x="916" y="1790" type="curve"/>
      <point x="1055.33" y="1882"/>
      <point x="1153.33" y="1996"/>
      <point x="1210" y="2132" type="curve" smooth="yes"/>
      <point x="1220.67" y="2158"/>
      <point x="1238.17" y="2175.17"/>
      <point x="1262.5" y="2183.5" type="curve" smooth="yes"/>
      <point x="1286.83" y="2191.83"/>
      <point x="1310.83" y="2192.33"/>
      <point x="1334.5" y="2185" type="curve" smooth="yes"/>
      <point x="1358.17" y="2177.67"/>
      <point x="1378.83" y="2164.5"/>
      <point x="1396.5" y="2145.5" type="curve" smooth="yes"/>
      <point x="1414.17" y="2126.5"/>
      <point x="1422.67" y="2105.33"/>
      <point x="1422" y="2082" type="curve" smooth="yes"/>
      <point x="1422" y="2038.67"/>
      <point x="1404" y="2008"/>
      <point x="1368" y="1990" type="curve"/>
      <point x="1313.33" y="1886.67"/>
      <point x="1239.33" y="1793.33"/>
      <point x="1146" y="1710" type="curve"/>
      <point x="1353.33" y="1705.33"/>
      <point x="1486" y="1702"/>
      <point x="1544" y="1700" type="curve" smooth="yes"/>
      <point x="1570" y="1700"/>
      <point x="1592.83" y="1689.67"/>
      <point x="1612.5" y="1669" type="curve" smooth="yes"/>
      <point x="1632.17" y="1648.33"/>
      <point x="1642" y="1624.67"/>
      <point x="1642" y="1598" type="curve" smooth="yes"/>
      <point x="1642" y="1570"/>
      <point x="1631.83" y="1545.83"/>
      <point x="1611.5" y="1525.5" type="curve" smooth="yes"/>
      <point x="1591.17" y="1505.17"/>
      <point x="1567.33" y="1495.33"/>
      <point x="1540" y="1496" type="curve" smooth="yes"/>
      <point x="1320" y="1501.33"/>
      <point x="1173.33" y="1504"/>
      <point x="1100" y="1504" type="curve"/>
      <point x="1210.67" y="1389.33"/>
      <point x="1294" y="1305.33"/>
      <point x="1350" y="1252" type="curve" smooth="yes"/>
      <point x="1367.33" y="1235.33"/>
      <point x="1377.17" y="1216"/>
      <point x="1379.5" y="1194" type="curve" smooth="yes"/>
      <point x="1381.83" y="1172"/>
      <point x="1377.5" y="1152.33"/>
      <point x="1366.5" y="1135" type="curve" smooth="yes"/>
      <point x="1355.5" y="1117.67"/>
      <point x="1341.67" y="1103.17"/>
      <point x="1325" y="1091.5" type="curve" smooth="yes"/>
      <point x="1308.33" y="1079.83"/>
      <point x="1289.17" y="1074.83"/>
      <point x="1267.5" y="1076.5" type="curve" smooth="yes"/>
      <point x="1245.83" y="1078.17"/>
      <point x="1226" y="1088"/>
      <point x="1208" y="1106" type="curve" smooth="yes"/>
      <point x="1162" y="1154"/>
      <point x="1082" y="1234"/>
      <point x="968" y="1346" type="curve"/>
      <point x="968" y="1098" type="line" smooth="yes"/>
      <point x="968" y="1030"/>
      <point x="944" y="996"/>
      <point x="896" y="996" type="curve" smooth="yes"/>
      <point x="884.667" y="996"/>
      <point x="874.167" y="997"/>
      <point x="864.5" y="999" type="curve" smooth="yes"/>
      <point x="854.833" y="1001"/>
      <point x="846.5" y="1004.83"/>
      <point x="839.5" y="1010.5" type="curve" smooth="yes"/>
      <point x="832.5" y="1016.17"/>
      <point x="826.5" y="1021.33"/>
      <point x="821.5" y="1026" type="curve" smooth="yes"/>
      <point x="816.5" y="1030.67"/>
      <point x="812" y="1038"/>
      <point x="808" y="1048" type="curve" smooth="yes"/>
      <point x="804" y="1058"/>
      <point x="800.833" y="1066"/>
      <point x="798.5" y="1072" type="curve" smooth="yes"/>
      <point x="796.167" y="1078"/>
      <point x="794" y="1087.83"/>
      <point x="792" y="1101.5" type="curve" smooth="yes"/>
      <point x="790" y="1115.17"/>
      <point x="788.667" y="1125.17"/>
      <point x="788" y="1131.5" type="curve" smooth="yes"/>
      <point x="787.333" y="1137.83"/>
      <point x="786.333" y="1149"/>
      <point x="785" y="1165" type="curve" smooth="yes"/>
      <point x="783.667" y="1181"/>
      <point x="782.667" y="1192"/>
      <point x="782" y="1198" type="curve" smooth="yes"/>
      <point x="778" y="1222"/>
      <point x="774.5" y="1263.67"/>
      <point x="771.5" y="1323" type="curve" smooth="yes"/>
      <point x="768.5" y="1382.33"/>
      <point x="767" y="1414.33"/>
      <point x="767" y="1419" type="curve"/>
      <point x="368" y="1073" type="line"/>
      <point x="341.333" y="1073"/>
      <point x="311.333" y="1091"/>
      <point x="278" y="1127" type="curve" smooth="yes"/>
      <point x="244.667" y="1163"/>
      <point x="228" y="1195.33"/>
      <point x="228" y="1224" type="curve"/>
      <point x="540" y="1494" type="line"/>
      <point x="204" y="1508" type="line" smooth="yes"/>
      <point x="176.667" y="1508"/>
      <point x="152.833" y="1518.67"/>
      <point x="132.5" y="1540" type="curve" smooth="yes"/>
      <point x="112.167" y="1561.33"/>
      <point x="102" y="1586"/>
      <point x="102" y="1614" type="curve" smooth="yes"/>
      <point x="102" y="1642"/>
      <point x="112" y="1666"/>
      <point x="132" y="1686" type="curve" smooth="yes"/>
      <point x="152" y="1706"/>
      <point x="176" y="1716"/>
      <point x="204" y="1716" type="curve" smooth="yes"/>
      <point x="506" y="1716" type="line"/>
      <point x="494" y="1728"/>
      <point x="458.333" y="1771"/>
      <point x="399" y="1845" type="curve" smooth="yes"/>
      <point x="339.667" y="1919"/>
      <point x="301.333" y="1962.67"/>
      <point x="284" y="1976" type="curve" smooth="yes"/>
      <point x="259.333" y="1995.33"/>
      <point x="246" y="2019.5"/>
      <point x="244" y="2048.5" type="curve" smooth="yes"/>
      <point x="242" y="2077.5"/>
      <point x="250.5" y="2103"/>
      <point x="269.5" y="2125" type="curve" smooth="yes"/>
      <point x="288.5" y="2147"/>
      <point x="312.667" y="2158"/>
    </contour>
  </outline>
</glyph>
<glyph name="plus" format="2">
  <advance width="851"/>
  <unicode hex="002B"/>
  <outline>
    <contour>
      <point x="752" y="686" type="curve" smooth="yes"/>
      <point x="751" y="660"/>
      <point x="741" y="642"/>
      <point x="722" y="634" type="curve" smooth="yes"/>
      <point x="715" y="631"/>
      <point x="707" y="630"/>
      <point x="700" y="630" type="curve" smooth="yes"/>
      <point x="687" y="630"/>
      <point x="673" y="634"/>
      <point x="659" y="644" type="curve" smooth="yes"/>
      <point x="654" y="647"/>
      <point x="646" y="651"/>
      <point x="635" y="657" type="curve" smooth="yes"/>
      <point x="624" y="663"/>
      <point x="609" y="670"/>
      <point x="589" y="680" type="curve" smooth="yes"/>
      <point x="569" y="690"/>
      <point x="550" y="700"/>
      <point x="534" y="708" type="curve"/>
      <point x="509" y="711"/>
      <point x="477" y="713"/>
      <point x="439" y="714" type="curve"/>
      <point x="439" y="566" type="line" smooth="yes"/>
      <point x="439" y="488"/>
      <point x="430" y="440"/>
      <point x="413" y="423" type="curve" smooth="yes"/>
      <point x="372" y="382" type="line" smooth="yes"/>
      <point x="358" y="367"/>
      <point x="342" y="363"/>
      <point x="323" y="369" type="curve" smooth="yes"/>
      <point x="304" y="375"/>
      <point x="292" y="387"/>
      <point x="287" y="404" type="curve" smooth="yes"/>
      <point x="282" y="421"/>
      <point x="286" y="438"/>
      <point x="300" y="454" type="curve"/>
      <point x="340" y="486" type="line"/>
      <point x="340" y="714" type="line"/>
      <point x="318" y="713"/>
      <point x="302" y="712"/>
      <point x="293" y="712" type="curve" smooth="yes"/>
      <point x="284" y="712"/>
      <point x="272" y="709"/>
      <point x="256" y="706" type="curve" smooth="yes"/>
      <point x="240" y="703"/>
      <point x="226" y="699"/>
      <point x="215" y="694" type="curve" smooth="yes"/>
      <point x="84" y="630" type="line"/>
      <point x="74" y="630"/>
      <point x="64" y="636"/>
      <point x="56" y="644" type="curve" smooth="yes"/>
      <point x="48" y="652"/>
      <point x="41" y="662"/>
      <point x="38" y="673" type="curve" smooth="yes"/>
      <point x="35" y="684"/>
      <point x="36" y="696"/>
      <point x="40" y="708" type="curve" smooth="yes"/>
      <point x="44" y="720"/>
      <point x="52" y="728"/>
      <point x="64" y="734" type="curve" smooth="yes"/>
      <point x="174" y="788" type="line"/>
      <point x="232" y="804"/>
      <point x="283" y="813"/>
      <point x="326" y="816" type="curve"/>
      <point x="326" y="922" type="line"/>
      <point x="319" y="948"/>
      <point x="311" y="972"/>
      <point x="302" y="996" type="curve" smooth="yes"/>
      <point x="293" y="1020"/>
      <point x="285" y="1036"/>
      <point x="280" y="1048" type="curve" smooth="yes"/>
      <point x="275" y="1060"/>
      <point x="272" y="1067"/>
      <point x="272" y="1069" type="curve" smooth="yes"/>
      <point x="272" y="1081"/>
      <point x="278" y="1092"/>
      <point x="290" y="1100" type="curve" smooth="yes"/>
      <point x="302" y="1108"/>
      <point x="316" y="1112"/>
      <point x="332" y="1112" type="curve" smooth="yes"/>
      <point x="339" y="1112"/>
      <point x="344" y="1110"/>
      <point x="349" y="1108" type="curve" smooth="yes"/>
      <point x="354" y="1106"/>
      <point x="358" y="1103"/>
      <point x="361" y="1100" type="curve" smooth="yes"/>
      <point x="364" y="1097"/>
      <point x="367" y="1091"/>
      <point x="370" y="1084" type="curve" smooth="yes"/>
      <point x="373" y="1077"/>
      <point x="374" y="1071"/>
      <point x="376" y="1066" type="curve" smooth="yes"/>
      <point x="378" y="1061"/>
      <point x="380" y="1054"/>
      <point x="382" y="1044" type="curve" smooth="yes"/>
      <point x="384" y="1034"/>
      <point x="386" y="1027"/>
      <point x="388" y="1021" type="curve" smooth="yes"/>
      <point x="392" y="1009"/>
      <point x="396" y="996"/>
      <point x="402" y="982" type="curve" smooth="yes"/>
      <point x="408" y="968"/>
      <point x="411" y="960"/>
      <point x="411" y="959" type="curve" smooth="yes"/>
      <point x="411" y="817" type="line"/>
      <point x="504" y="815"/>
      <point x="558" y="810"/>
      <point x="572" y="803" type="curve" smooth="yes"/>
      <point x="664" y="756"/>
      <point x="711" y="733"/>
      <point x="712" y="732" type="curve" smooth="yes"/>
      <point x="739" y="719"/>
      <point x="752" y="704"/>
    </contour>
  </outline>
</glyph>
<glyph name="comma" format="2">
  <advance width="2048"/>
  <unicode hex="002C"/>
  <outline>
    <contour>
      <point x="999" y="473" type="line"/>
      <point x="997" y="467"/>
      <point x="995" y="461"/>
      <point x="993" y="455" type="curve" smooth="yes"/>
      <point x="991" y="449"/>
      <point x="988" y="442"/>
      <point x="984" y="435" type="curve" smooth="yes"/>
      <point x="980" y="428"/>
      <point x="975" y="422"/>
      <point x="970" y="418" type="curve" smooth="yes"/>
      <point x="965" y="414"/>
      <point x="960" y="411"/>
      <point x="953" y="409" type="curve" smooth="yes"/>
      <point x="946" y="407"/>
      <point x="939" y="408"/>
      <point x="932" y="412" type="curve"/>
      <point x="911" y="412"/>
      <point x="894" y="422"/>
      <point x="880" y="442" type="curve" smooth="yes"/>
      <point x="866" y="462"/>
      <point x="856" y="484"/>
      <point x="852" y="508" type="curve" smooth="yes"/>
      <point x="848" y="526"/>
      <point x="846" y="543"/>
      <point x="846" y="560" type="curve" smooth="yes"/>
      <point x="846" y="571"/>
      <point x="847" y="583"/>
      <point x="849" y="593" type="curve" smooth="yes"/>
      <point x="854" y="619"/>
      <point x="866" y="640"/>
      <point x="887" y="657" type="curve" smooth="yes"/>
      <point x="908" y="675"/>
      <point x="931" y="684"/>
      <point x="957" y="684" type="curve" smooth="yes"/>
      <point x="963" y="684"/>
      <point x="969" y="683"/>
      <point x="975" y="682" type="curve"/>
      <point x="999" y="687"/>
      <point x="1021" y="690"/>
      <point x="1042" y="690" type="curve" smooth="yes"/>
      <point x="1083" y="690"/>
      <point x="1121" y="680"/>
      <point x="1154" y="662" type="curve" smooth="yes"/>
      <point x="1204" y="634"/>
      <point x="1237" y="593"/>
      <point x="1255" y="539" type="curve" smooth="yes"/>
      <point x="1261" y="519"/>
      <point x="1264" y="498"/>
      <point x="1264" y="476" type="curve" smooth="yes"/>
      <point x="1264" y="457"/>
      <point x="1262" y="438"/>
      <point x="1257" y="418" type="curve"/>
      <point x="1257" y="401"/>
      <point x="1258" y="375"/>
      <point x="1260" y="342" type="curve" smooth="yes"/>
      <point x="1262" y="309"/>
      <point x="1263" y="282"/>
      <point x="1263" y="261" type="curve" smooth="yes"/>
      <point x="1263" y="258"/>
      <point x="1263" y="258"/>
      <point x="1263" y="254" type="curve" smooth="yes"/>
      <point x="1263" y="235"/>
      <point x="1262" y="213"/>
      <point x="1261" y="188" type="curve" smooth="yes"/>
      <point x="1260" y="160"/>
      <point x="1256" y="135"/>
      <point x="1250" y="111" type="curve" smooth="yes"/>
      <point x="1244" y="87"/>
      <point x="1236" y="64"/>
      <point x="1226" y="42" type="curve" smooth="yes"/>
      <point x="1194" y="-26"/>
      <point x="1139" y="-72"/>
      <point x="1061" y="-98" type="curve" smooth="yes"/>
      <point x="1060" y="-99"/>
      <point x="1045" y="-107"/>
      <point x="1017" y="-121" type="curve" smooth="yes"/>
      <point x="989" y="-135"/>
      <point x="962" y="-149"/>
      <point x="935" y="-163" type="curve" smooth="yes"/>
      <point x="908" y="-177"/>
      <point x="893" y="-183"/>
      <point x="890" y="-183" type="curve" smooth="yes"/>
      <point x="889" y="-183" type="line" smooth="yes"/>
      <point x="887" y="-183"/>
      <point x="886" y="-182"/>
      <point x="886" y="-180" type="curve" smooth="yes"/>
      <point x="886" y="-171"/>
      <point x="912" y="-143"/>
      <point x="965" y="-96" type="curve" smooth="yes"/>
      <point x="971" y="-91"/>
      <point x="977" y="-86"/>
      <point x="984" y="-80" type="curve" smooth="yes"/>
      <point x="1030" y="-39"/>
      <point x="1061" y="-11"/>
      <point x="1075" y="4" type="curve" smooth="yes"/>
      <point x="1089" y="19"/>
      <point x="1109" y="42"/>
      <point x="1132" y="74" type="curve" smooth="yes"/>
      <point x="1163" y="117"/>
      <point x="1179" y="167"/>
      <point x="1179" y="226" type="curve" smooth="yes"/>
      <point x="1179" y="239"/>
      <point x="1176" y="260"/>
      <point x="1172" y="289" type="curve" smooth="yes"/>
      <point x="1169" y="309"/>
      <point x="1168" y="328"/>
      <point x="1168" y="345" type="curve" smooth="yes"/>
      <point x="1168" y="353"/>
      <point x="1168" y="361"/>
      <point x="1169" y="368" type="curve" smooth="yes"/>
      <point x="1170" y="380"/>
      <point x="1170" y="392"/>
      <point x="1170" y="404" type="curve" smooth="yes"/>
      <point x="1170" y="428"/>
      <point x="1168" y="451"/>
      <point x="1164" y="474" type="curve" smooth="yes"/>
      <point x="1161" y="494"/>
      <point x="1152" y="509"/>
      <point x="1138" y="518" type="curve" smooth="yes"/>
      <point x="1124" y="527"/>
      <point x="1105" y="533"/>
      <point x="1079" y="535" type="curve"/>
      <point x="1006" y="535" type="line" smooth="yes"/>
      <point x="973" y="535"/>
      <point x="956" y="523"/>
      <point x="956" y="498" type="curve" smooth="yes"/>
      <point x="956" y="473" type="line"/>
    </contour>
  </outline>
</glyph>
<glyph name="hyphen" format="2">
  <advance width="851"/>
  <unicode hex="002D"/>
  <outline>
    <contour>
      <point x="389" y="637" type="curve" smooth="yes"/>
      <point x="378" y="637"/>
      <point x="366" y="637"/>
      <point x="354" y="636" type="curve" smooth="yes"/>
      <point x="342" y="635"/>
      <point x="329" y="634"/>
      <point x="315" y="632" type="curve" smooth="yes"/>
      <point x="301" y="630"/>
      <point x="289" y="628"/>
      <point x="280" y="627" type="curve" smooth="yes"/>
      <point x="271" y="626"/>
      <point x="259" y="623"/>
      <point x="242" y="620" type="curve" smooth="yes"/>
      <point x="225" y="617"/>
      <point x="213" y="615"/>
      <point x="208" y="614" type="curve" smooth="yes"/>
      <point x="203" y="613"/>
      <point x="192" y="610"/>
      <point x="172" y="606" type="curve" smooth="yes"/>
      <point x="152" y="602"/>
      <point x="143" y="600"/>
      <point x="142" y="600" type="curve" smooth="yes"/>
      <point x="132" y="600"/>
      <point x="122" y="605"/>
      <point x="112" y="616" type="curve" smooth="yes"/>
      <point x="102" y="627"/>
      <point x="98" y="638"/>
      <point x="98" y="649" type="curve" smooth="yes"/>
      <point x="98" y="660"/>
      <point x="100" y="669"/>
      <point x="103" y="676" type="curve" smooth="yes"/>
      <point x="106" y="683"/>
      <point x="112" y="690"/>
      <point x="120" y="694" type="curve" smooth="yes"/>
      <point x="128" y="698"/>
      <point x="134" y="702"/>
      <point x="140" y="704" type="curve" smooth="yes"/>
      <point x="146" y="706"/>
      <point x="155" y="708"/>
      <point x="168" y="711" type="curve" smooth="yes"/>
      <point x="247" y="730"/>
      <point x="317" y="740"/>
      <point x="378" y="740" type="curve" smooth="yes"/>
      <point x="431" y="740"/>
      <point x="468" y="738"/>
      <point x="488" y="733" type="curve"/>
      <point x="702" y="636" type="line" smooth="yes"/>
      <point x="712" y="631"/>
      <point x="718" y="623"/>
      <point x="722" y="611" type="curve" smooth="yes"/>
      <point x="726" y="599"/>
      <point x="727" y="588"/>
      <point x="724" y="577" type="curve" smooth="yes"/>
      <point x="721" y="566"/>
      <point x="715" y="556"/>
      <point x="707" y="548" type="curve" smooth="yes"/>
      <point x="699" y="540"/>
      <point x="689" y="536"/>
      <point x="678" y="536" type="curve"/>
      <point x="472" y="627" type="line"/>
      <point x="447" y="634"/>
      <point x="419" y="637"/>
    </contour>
  </outline>
</glyph>
<glyph name="period" format="2">
  <advance width="548"/>
  <unicode hex="002E"/>
  <outline>
    <contour>
      <point x="94" y="248" type="curve" smooth="yes"/>
      <point x="83.3333" y="277.333"/>
      <point x="79.3333" y="303.833"/>
      <point x="82" y="327.5" type="curve" smooth="yes"/>
      <point x="84.6667" y="351.167"/>
      <point x="91.1667" y="373.167"/>
      <point x="101.5" y="393.5" type="curve" smooth="yes"/>
      <point x="111.833" y="413.833"/>
      <point x="126" y="430.667"/>
      <point x="144" y="444" type="curve" smooth="yes"/>
      <point x="162" y="457.333"/>
      <point x="181.167" y="468.333"/>
      <point x="201.5" y="477" type="curve" smooth="yes"/>
      <point x="221.833" y="485.667"/>
      <point x="243.667" y="489.667"/>
      <point x="267" y="489" type="curve" smooth="yes"/>
      <point x="290.333" y="488.333"/>
      <point x="312.167" y="484.5"/>
      <point x="332.5" y="477.5" type="curve" smooth="yes"/>
      <point x="352.833" y="470.5"/>
      <point x="372" y="458.333"/>
      <point x="390" y="441" type="curve" smooth="yes"/>
      <point x="408" y="423.667"/>
      <point x="422" y="402"/>
      <point x="432" y="376" type="curve" smooth="yes"/>
      <point x="446" y="336.667"/>
      <point x="448.833" y="302.333"/>
      <point x="440.5" y="273" type="curve" smooth="yes"/>
      <point x="432.167" y="243.667"/>
      <point x="418.167" y="217.667"/>
      <point x="398.5" y="195" type="curve" smooth="yes"/>
      <point x="378.833" y="172.333"/>
      <point x="354.167" y="156.5"/>
      <point x="324.5" y="147.5" type="curve" smooth="yes"/>
      <point x="294.833" y="138.5"/>
      <point x="265.5" y="134.833"/>
      <point x="236.5" y="136.5" type="curve" smooth="yes"/>
      <point x="207.5" y="138.167"/>
      <point x="179.833" y="148.667"/>
      <point x="153.5" y="168" type="curve" smooth="yes"/>
      <point x="127.167" y="187.333"/>
      <point x="107.333" y="214"/>
    </contour>
  </outline>
</glyph>
<glyph name="slash" format="2">
  <advance width="2800"/>
  <unicode hex="002F"/>
  <outline>
    <contour>
      <point x="292" y="14" type="curve" smooth="yes"/>
      <point x="284" y="-20"/>
      <point x="263.667" y="-42.5"/>
      <point x="231" y="-53.5" type="curve" smooth="yes"/>
      <point x="198.333" y="-64.5"/>
      <point x="167" y="-62"/>
      <point x="137" y="-46" type="curve" smooth="yes"/>
      <point x="107" y="-30"/>
      <point x="91.3333" y="-6"/>
      <point x="90" y="26" type="curve" smooth="yes"/>
      <point x="90" y="40.6667"/>
      <point x="91.3333" y="54.6667"/>
      <point x="94" y="68" type="curve" smooth="yes"/>
      <point x="198.667" y="461.333"/>
      <point x="414" y="868"/>
      <point x="740" y="1288" type="curve" smooth="yes"/>
      <point x="762.667" y="1316.67"/>
      <point x="799.667" y="1375.83"/>
      <point x="851" y="1465.5" type="curve" smooth="yes"/>
      <point x="902.333" y="1555.17"/>
      <point x="956" y="1651"/>
      <point x="1012" y="1753" type="curve" smooth="yes"/>
      <point x="1068" y="1855"/>
      <point x="1102.67" y="1917.33"/>
      <point x="1116" y="1940" type="curve" smooth="yes"/>
      <point x="1271.33" y="2200.67"/>
      <point x="1438.67" y="2411.67"/>
      <point x="1618" y="2573" type="curve" smooth="yes"/>
      <point x="1797.33" y="2734.33"/>
      <point x="2010" y="2870"/>
      <point x="2256" y="2980" type="curve" smooth="yes"/>
      <point x="2276" y="2988.67"/>
      <point x="2298.83" y="2998.33"/>
      <point x="2324.5" y="3009" type="curve" smooth="yes"/>
      <point x="2350.17" y="3019.67"/>
      <point x="2366" y="3026.33"/>
      <point x="2372" y="3029" type="curve" smooth="yes"/>
      <point x="2378" y="3031.67"/>
      <point x="2388.33" y="3037"/>
      <point x="2403" y="3045" type="curve" smooth="yes"/>
      <point x="2417.67" y="3053"/>
      <point x="2430.33" y="3061"/>
      <point x="2441" y="3069" type="curve" smooth="yes"/>
      <point x="2451.67" y="3077"/>
      <point x="2468" y="3089.33"/>
      <point x="2490" y="3106" type="curve" smooth="yes"/>
      <point x="2538.67" y="3140.67"/>
      <point x="2586.67" y="3158"/>
      <point x="2634" y="3158" type="curve" smooth="yes"/>
      <point x="2662" y="3158"/>
      <point x="2687.33" y="3147.83"/>
      <point x="2710" y="3127.5" type="curve" smooth="yes"/>
      <point x="2732.67" y="3107.17"/>
      <point x="2744" y="3084"/>
      <point x="2744" y="3058" type="curve" smooth="yes"/>
      <point x="2744" y="3034"/>
      <point x="2735.33" y="3011.67"/>
      <point x="2718" y="2991" type="curve" smooth="yes"/>
      <point x="2700.67" y="2970.33"/>
      <point x="2681.33" y="2958.67"/>
      <point x="2660" y="2956" type="curve" smooth="yes"/>
      <point x="2644" y="2954"/>
      <point x="2613.67" y="2938.17"/>
      <point x="2569" y="2908.5" type="curve" smooth="yes"/>
      <point x="2524.33" y="2878.83"/>
      <point x="2499.33" y="2862.67"/>
      <point x="2494" y="2860" type="curve" smooth="yes"/>
      <point x="2282.67" y="2767.33"/>
      <point x="2153.33" y="2707.33"/>
      <point x="2106" y="2680" type="curve" smooth="yes"/>
      <point x="2052" y="2648.67"/>
      <point x="2000" y="2615"/>
      <point x="1950" y="2579" type="curve" smooth="yes"/>
      <point x="1900" y="2543"/>
      <point x="1853.83" y="2507.5"/>
      <point x="1811.5" y="2472.5" type="curve" smooth="yes"/>
      <point x="1769.17" y="2437.5"/>
      <point x="1727.17" y="2398.17"/>
      <point x="1685.5" y="2354.5" type="curve" smooth="yes"/>
      <point x="1643.83" y="2310.83"/>
      <point x="1606.33" y="2270"/>
      <point x="1573" y="2232" type="curve" smooth="yes"/>
      <point x="1539.67" y="2194"/>
      <point x="1504.33" y="2148.83"/>
      <point x="1467" y="2096.5" type="curve" smooth="yes"/>
      <point x="1429.67" y="2044.17"/>
      <point x="1397.17" y="1997.5"/>
      <point x="1369.5" y="1956.5" type="curve" smooth="yes"/>
      <point x="1341.83" y="1915.5"/>
      <point x="1309.83" y="1864.5"/>
      <point x="1273.5" y="1803.5" type="curve" smooth="yes"/>
      <point x="1237.17" y="1742.5"/>
      <point x="1206.17" y="1689.83"/>
      <point x="1180.5" y="1645.5" type="curve" smooth="yes"/>
      <point x="1154.83" y="1601.17"/>
      <point x="1122.67" y="1544.67"/>
      <point x="1084" y="1476" type="curve" smooth="yes"/>
      <point x="971.333" y="1276.67"/>
      <point x="910.667" y="1172.67"/>
      <point x="902" y="1164" type="curve" smooth="yes"/>
      <point x="582" y="780.667"/>
      <point x="378.667" y="397.333"/>
    </contour>
  </outline>
</glyph>
<glyph name="zero" format="2">
  <advance width="1260"/>
  <unicode hex="0030"/>
  <outline>
    <contour>
      <point x="950" y="978" type="curve" smooth="yes"/>
      <point x="950" y="1053.33"/>
      <point x="936.167" y="1173.33"/>
      <point x="908.5" y="1338" type="curve" smooth="yes"/>
      <point x="880.833" y="1502.67"/>
      <point x="866.667" y="1611.33"/>
      <point x="866" y="1664" type="curve"/>
      <point x="850.667" y="1714.67"/>
      <point x="837.333" y="1769.5"/>
      <point x="826" y="1828.5" type="curve" smooth="yes"/>
      <point x="814.667" y="1887.5"/>
      <point x="802.333" y="1963.83"/>
      <point x="789" y="2057.5" type="curve" smooth="yes"/>
      <point x="775.667" y="2151.17"/>
      <point x="766.667" y="2213.33"/>
      <point x="762" y="2244" type="curve" smooth="yes"/>
      <point x="755.333" y="2284.67"/>
      <point x="750.5" y="2332"/>
      <point x="747.5" y="2386" type="curve" smooth="yes"/>
      <point x="744.5" y="2440"/>
      <point x="742.333" y="2486"/>
      <point x="741" y="2524" type="curve" smooth="yes"/>
      <point x="739.667" y="2562"/>
      <point x="734.333" y="2604"/>
      <point x="725" y="2650" type="curve" smooth="yes"/>
      <point x="715.667" y="2696"/>
      <point x="702" y="2738"/>
      <point x="684" y="2776" type="curve" smooth="yes"/>
      <point x="659.333" y="2827.33"/>
      <point x="644" y="2884"/>
      <point x="638" y="2946" type="curve"/>
      <point x="616" y="2968"/>
      <point x="591.333" y="2985.33"/>
      <point x="564" y="2998" type="curve"/>
      <point x="556.667" y="2995.33"/>
      <point x="538.667" y="2981.17"/>
      <point x="510" y="2955.5" type="curve" smooth="yes"/>
      <point x="481.333" y="2929.83"/>
      <point x="460.667" y="2910.67"/>
      <point x="448" y="2898" type="curve" smooth="yes"/>
      <point x="402" y="2860.67"/>
      <point x="356.5" y="2784.33"/>
      <point x="311.5" y="2669" type="curve" smooth="yes"/>
      <point x="266.5" y="2553.67"/>
      <point x="244" y="2452.67"/>
      <point x="244" y="2366" type="curve" smooth="yes"/>
      <point x="244" y="1472" type="line" smooth="yes"/>
      <point x="243.333" y="1426"/>
      <point x="243" y="1382.33"/>
      <point x="243" y="1341" type="curve" smooth="yes"/>
      <point x="243" y="1198.33"/>
      <point x="246.667" y="1089"/>
      <point x="254" y="1013" type="curve" smooth="yes"/>
      <point x="263.333" y="915"/>
      <point x="286" y="796.667"/>
      <point x="322" y="658" type="curve" smooth="yes"/>
      <point x="324" y="650"/>
      <point x="327" y="638.333"/>
      <point x="331" y="623" type="curve" smooth="yes"/>
      <point x="343" y="577"/>
      <point x="343" y="577"/>
      <point x="349" y="554" type="curve" smooth="yes"/>
      <point x="353" y="538.667"/>
      <point x="359.333" y="517.833"/>
      <point x="368" y="491.5" type="curve" smooth="yes"/>
      <point x="376.667" y="465.167"/>
      <point x="384.667" y="444.833"/>
      <point x="392" y="430.5" type="curve" smooth="yes"/>
      <point x="399.333" y="416.167"/>
      <point x="409.167" y="398.667"/>
      <point x="421.5" y="378" type="curve" smooth="yes"/>
      <point x="433.833" y="357.333"/>
      <point x="447" y="340.5"/>
      <point x="461" y="327.5" type="curve" smooth="yes"/>
      <point x="475" y="314.5"/>
      <point x="492" y="300.833"/>
      <point x="512" y="286.5" type="curve" smooth="yes"/>
      <point x="532" y="272.167"/>
      <point x="554" y="259.333"/>
      <point x="578" y="248" type="curve" smooth="yes"/>
      <point x="591.333" y="242"/>
      <point x="603.667" y="237.167"/>
      <point x="615" y="233.5" type="curve" smooth="yes"/>
      <point x="626.333" y="229.833"/>
      <point x="636.5" y="226.833"/>
      <point x="645.5" y="224.5" type="curve" smooth="yes"/>
      <point x="654.5" y="222.167"/>
      <point x="663.167" y="221.833"/>
      <point x="671.5" y="223.5" type="curve" smooth="yes"/>
      <point x="679.833" y="225.167"/>
      <point x="687" y="226.5"/>
      <point x="693" y="227.5" type="curve" smooth="yes"/>
      <point x="699" y="228.5"/>
      <point x="705.5" y="232.167"/>
      <point x="712.5" y="238.5" type="curve" smooth="yes"/>
      <point x="719.5" y="244.833"/>
      <point x="725.167" y="250"/>
      <point x="729.5" y="254" type="curve" smooth="yes"/>
      <point x="733.833" y="258"/>
      <point x="739.833" y="265.667"/>
      <point x="747.5" y="277" type="curve" smooth="yes"/>
      <point x="755.167" y="288.333"/>
      <point x="761" y="297.333"/>
      <point x="765" y="304" type="curve" smooth="yes"/>
      <point x="769" y="310.667"/>
      <point x="775.833" y="321.667"/>
      <point x="785.5" y="337" type="curve" smooth="yes"/>
      <point x="795.167" y="352.333"/>
      <point x="802.667" y="364.667"/>
      <point x="808" y="374" type="curve" smooth="yes"/>
      <point x="902.667" y="526"/>
      <point x="950" y="727.333"/>
    </contour>
    <contour>
      <point x="1050" y="1660" type="curve" smooth="yes"/>
      <point x="1052" y="1640.67"/>
      <point x="1066.83" y="1541.17"/>
      <point x="1094.5" y="1361.5" type="curve" smooth="yes"/>
      <point x="1122.17" y="1181.83"/>
      <point x="1136" y="1051.33"/>
      <point x="1136" y="970" type="curve" smooth="yes"/>
      <point x="1136" y="795.333"/>
      <point x="1110.83" y="633"/>
      <point x="1060.5" y="483" type="curve" smooth="yes"/>
      <point x="1010.17" y="333"/>
      <point x="937.333" y="206"/>
      <point x="842" y="102" type="curve" smooth="yes"/>
      <point x="806.667" y="63.3333"/>
      <point x="752" y="42.6667"/>
      <point x="678" y="40" type="curve" smooth="yes"/>
      <point x="671" y="40"/>
      <point x="671" y="40"/>
      <point x="664" y="40" type="curve" smooth="yes"/>
      <point x="596" y="40"/>
      <point x="536" y="56.6667"/>
      <point x="484" y="90" type="curve" smooth="yes"/>
      <point x="321.333" y="194"/>
      <point x="224" y="320.667"/>
      <point x="192" y="470" type="curve" smooth="yes"/>
      <point x="191.333" y="472"/>
      <point x="182.833" y="495.333"/>
      <point x="166.5" y="540" type="curve" smooth="yes"/>
      <point x="150.167" y="584.667"/>
      <point x="140.667" y="618.667"/>
      <point x="138" y="642" type="curve" smooth="yes"/>
      <point x="136.667" y="646.667"/>
      <point x="130.833" y="657.333"/>
      <point x="120.5" y="674" type="curve" smooth="yes"/>
      <point x="110.167" y="690.667"/>
      <point x="100" y="707.833"/>
      <point x="90" y="725.5" type="curve" smooth="yes"/>
      <point x="80" y="743.167"/>
      <point x="70.8333" y="767.333"/>
      <point x="62.5" y="798" type="curve" smooth="yes"/>
      <point x="54.1667" y="828.667"/>
      <point x="50" y="860"/>
      <point x="50" y="892" type="curve" smooth="yes"/>
      <point x="50" y="2366" type="line" smooth="yes"/>
      <point x="50" y="2460.67"/>
      <point x="79.5" y="2580.33"/>
      <point x="138.5" y="2725" type="curve" smooth="yes"/>
      <point x="197.5" y="2869.67"/>
      <point x="260" y="2973.33"/>
      <point x="326" y="3036" type="curve" smooth="yes"/>
      <point x="329.333" y="3039.33"/>
      <point x="339.333" y="3049"/>
      <point x="356" y="3065" type="curve" smooth="yes"/>
      <point x="372.667" y="3081"/>
      <point x="384" y="3091.67"/>
      <point x="390" y="3097" type="curve" smooth="yes"/>
      <point x="396" y="3102.33"/>
      <point x="406.333" y="3111.33"/>
      <point x="421" y="3124" type="curve" smooth="yes"/>
      <point x="435.667" y="3136.67"/>
      <point x="447.833" y="3145.5"/>
      <point x="457.5" y="3150.5" type="curve" smooth="yes"/>
      <point x="467.167" y="3155.5"/>
      <point x="479" y="3161.67"/>
      <point x="493" y="3169" type="curve" smooth="yes"/>
      <point x="507" y="3176.33"/>
      <point x="520.667" y="3181.33"/>
      <point x="534" y="3184" type="curve" smooth="yes"/>
      <point x="547.333" y="3186.67"/>
      <point x="561.333" y="3188"/>
      <point x="576" y="3188" type="curve" smooth="yes"/>
      <point x="587.333" y="3188.67"/>
      <point x="598.5" y="3187.67"/>
      <point x="609.5" y="3185" type="curve" smooth="yes"/>
      <point x="620.5" y="3182.33"/>
      <point x="629.667" y="3179.67"/>
      <point x="637" y="3177" type="curve" smooth="yes"/>
      <point x="644.333" y="3174.33"/>
      <point x="653.333" y="3169.17"/>
      <point x="664" y="3161.5" type="curve" smooth="yes"/>
      <point x="674.667" y="3153.83"/>
      <point x="682" y="3148.33"/>
      <point x="686" y="3145" type="curve" smooth="yes"/>
      <point x="690" y="3141.67"/>
      <point x="697.5" y="3135"/>
      <point x="708.5" y="3125" type="curve" smooth="yes"/>
      <point x="719.5" y="3115"/>
      <point x="726" y="3109.33"/>
      <point x="728" y="3108" type="curve" smooth="yes"/>
      <point x="794" y="3050"/>
      <point x="828" y="2984.67"/>
      <point x="830" y="2912" type="curve"/>
      <point x="894" y="2754.67"/>
      <point x="926" y="2600"/>
      <point x="926" y="2448" type="curve" smooth="yes"/>
      <point x="926" y="2273.33"/>
      <point x="956" y="2067.33"/>
      <point x="1016" y="1830" type="curve" smooth="yes"/>
      <point x="1038.67" y="1747.33"/>
      <point x="1050" y="1690.67"/>
    </contour>
  </outline>
</glyph>
<glyph name="two" format="2">
  <advance width="835"/>
  <unicode hex="0032"/>
  <outline>
    <contour>
      <point x="636" y="1327" type="line" smooth="yes"/>
      <point x="636" y="1390"/>
      <point x="619" y="1441"/>
      <point x="586" y="1482" type="curve" smooth="yes"/>
      <point x="553" y="1523"/>
      <point x="509" y="1544"/>
      <point x="454" y="1544" type="curve" smooth="yes"/>
      <point x="397" y="1544" type="line" smooth="yes"/>
      <point x="364" y="1544"/>
      <point x="333" y="1533"/>
      <point x="304" y="1511" type="curve" smooth="yes"/>
      <point x="275" y="1489"/>
      <point x="252" y="1463"/>
      <point x="237" y="1432" type="curve"/>
      <point x="237" y="1417"/>
      <point x="233" y="1404"/>
      <point x="223" y="1394" type="curve" smooth="yes"/>
      <point x="213" y="1384"/>
      <point x="201" y="1378"/>
      <point x="187" y="1378" type="curve" smooth="yes"/>
      <point x="169" y="1378"/>
      <point x="154" y="1386"/>
      <point x="142" y="1401" type="curve" smooth="yes"/>
      <point x="130" y="1416"/>
      <point x="127" y="1433"/>
      <point x="135" y="1452" type="curve" smooth="yes"/>
      <point x="145" y="1477"/>
      <point x="159" y="1502"/>
      <point x="175" y="1524" type="curve" smooth="yes"/>
      <point x="191" y="1546"/>
      <point x="210" y="1567"/>
      <point x="232" y="1585" type="curve" smooth="yes"/>
      <point x="254" y="1603"/>
      <point x="278" y="1619"/>
      <point x="307" y="1630" type="curve" smooth="yes"/>
      <point x="336" y="1641"/>
      <point x="366" y="1646"/>
      <point x="397" y="1646" type="curve" smooth="yes"/>
      <point x="453" y="1646" type="line" smooth="yes"/>
      <point x="509" y="1646"/>
      <point x="559" y="1632"/>
      <point x="602" y="1604" type="curve" smooth="yes"/>
      <point x="645" y="1576"/>
      <point x="679" y="1538"/>
      <point x="702" y="1490" type="curve" smooth="yes"/>
      <point x="725" y="1442"/>
      <point x="736" y="1387"/>
      <point x="737" y="1327" type="curve" smooth="yes"/>
      <point x="737" y="1252" type="line" smooth="yes"/>
      <point x="738" y="1243"/>
      <point x="738" y="1233"/>
      <point x="738" y="1224" type="curve" smooth="yes"/>
      <point x="738" y="1207"/>
      <point x="736" y="1190"/>
      <point x="732" y="1174" type="curve" smooth="yes"/>
      <point x="726" y="1150"/>
      <point x="716" y="1124"/>
      <point x="702" y="1094" type="curve" smooth="yes"/>
      <point x="688" y="1064"/>
      <point x="678" y="1043"/>
      <point x="674" y="1031" type="curve" smooth="yes"/>
      <point x="661" y="993"/>
      <point x="639" y="946"/>
      <point x="608" y="892" type="curve" smooth="yes"/>
      <point x="577" y="838"/>
      <point x="547" y="789"/>
      <point x="516" y="743" type="curve" smooth="yes"/>
      <point x="485" y="697"/>
      <point x="453" y="649"/>
      <point x="420" y="598" type="curve" smooth="yes"/>
      <point x="387" y="547"/>
      <point x="364" y="505"/>
      <point x="350" y="475" type="curve" smooth="yes"/>
      <point x="316" y="403"/>
      <point x="299" y="329"/>
      <point x="299" y="253" type="curve" smooth="yes"/>
      <point x="299" y="247"/>
      <point x="299" y="246"/>
      <point x="299" y="240" type="curve"/>
      <point x="304" y="224"/>
      <point x="314" y="208"/>
      <point x="329" y="190" type="curve"/>
      <point x="418" y="162" type="line"/>
      <point x="591" y="162" type="line"/>
      <point x="662" y="205" type="line"/>
      <point x="662" y="260" type="line" smooth="yes"/>
      <point x="663" y="272"/>
      <point x="670" y="283"/>
      <point x="682" y="292" type="curve" smooth="yes"/>
      <point x="694" y="301"/>
      <point x="706" y="305"/>
      <point x="720" y="305" type="curve" smooth="yes"/>
      <point x="734" y="305"/>
      <point x="746" y="299"/>
      <point x="756" y="288" type="curve" smooth="yes"/>
      <point x="766" y="277"/>
      <point x="770" y="264"/>
      <point x="770" y="248" type="curve" smooth="yes"/>
      <point x="770" y="175" type="line" smooth="yes"/>
      <point x="769" y="166"/>
      <point x="763" y="155"/>
      <point x="750" y="143" type="curve" smooth="yes"/>
      <point x="737" y="131"/>
      <point x="726" y="123"/>
      <point x="717" y="118" type="curve" smooth="yes"/>
      <point x="627" y="68" type="line"/>
      <point x="397" y="68" type="line"/>
      <point x="299" y="92" type="line"/>
      <point x="274" y="96"/>
      <point x="250" y="116"/>
      <point x="228" y="151" type="curve" smooth="yes"/>
      <point x="207" y="185"/>
      <point x="197" y="216"/>
      <point x="197" y="246" type="curve" smooth="yes"/>
      <point x="197" y="249"/>
      <point x="197" y="250"/>
      <point x="197" y="252" type="curve" smooth="yes"/>
      <point x="198" y="283"/>
      <point x="202" y="313"/>
      <point x="207" y="342" type="curve" smooth="yes"/>
      <point x="212" y="371"/>
      <point x="218" y="399"/>
      <point x="224" y="423" type="curve" smooth="yes"/>
      <point x="230" y="447"/>
      <point x="239" y="472"/>
      <point x="251" y="499" type="curve" smooth="yes"/>
      <point x="263" y="526"/>
      <point x="273" y="549"/>
      <point x="283" y="569" type="curve" smooth="yes"/>
      <point x="293" y="589"/>
      <point x="307" y="611"/>
      <point x="323" y="638" type="curve" smooth="yes"/>
      <point x="339" y="665"/>
      <point x="353" y="687"/>
      <point x="365" y="705" type="curve" smooth="yes"/>
      <point x="377" y="723"/>
      <point x="392" y="747"/>
      <point x="412" y="776" type="curve" smooth="yes"/>
      <point x="425" y="795"/>
      <point x="435" y="809"/>
      <point x="442" y="819" type="curve" smooth="yes"/>
      <point x="457" y="841"/>
      <point x="471" y="863"/>
      <point x="484" y="884" type="curve" smooth="yes"/>
      <point x="497" y="905"/>
      <point x="507" y="923"/>
      <point x="515" y="937" type="curve" smooth="yes"/>
      <point x="523" y="951"/>
      <point x="532" y="969"/>
      <point x="543" y="992" type="curve" smooth="yes"/>
      <point x="554" y="1015"/>
      <point x="561" y="1031"/>
      <point x="565" y="1039" type="curve" smooth="yes"/>
      <point x="569" y="1047"/>
      <point x="577" y="1066"/>
      <point x="589" y="1095" type="curve" smooth="yes"/>
      <point x="601" y="1124"/>
      <point x="609" y="1143"/>
      <point x="613" y="1151" type="curve" smooth="yes"/>
      <point x="622" y="1173"/>
      <point x="628" y="1191"/>
      <point x="631" y="1204" type="curve" smooth="yes"/>
      <point x="634" y="1217"/>
      <point x="636" y="1232"/>
      <point x="636" y="1249" type="curve" smooth="yes"/>
    </contour>
  </outline>
</glyph>
<glyph name="three" format="2">
  <advance width="1802"/>
  <unicode hex="0033"/>
  <outline>
    <contour>
      <point x="1368" y="2572" type="curve"/>
      <point x="1372.67" y="2611.33"/>
      <point x="1369.67" y="2648"/>
      <point x="1359" y="2682" type="curve" smooth="yes"/>
      <point x="1348.33" y="2716"/>
      <point x="1333" y="2744.83"/>
      <point x="1313" y="2768.5" type="curve" smooth="yes"/>
      <point x="1293" y="2792.17"/>
      <point x="1269" y="2815.5"/>
      <point x="1241" y="2838.5" type="curve" smooth="yes"/>
      <point x="1213" y="2861.5"/>
      <point x="1185.67" y="2881.5"/>
      <point x="1159" y="2898.5" type="curve" smooth="yes"/>
      <point x="1132.33" y="2915.5"/>
      <point x="1105.33" y="2934.67"/>
      <point x="1078" y="2956" type="curve" smooth="yes"/>
      <point x="1050.67" y="2977.33"/>
      <point x="1029.33" y="2998"/>
      <point x="1014" y="3018" type="curve"/>
      <point x="820" y="3018" type="line"/>
      <point x="440" y="2922" type="line"/>
      <point x="419.333" y="2922"/>
      <point x="399.5" y="2934"/>
      <point x="380.5" y="2958" type="curve" smooth="yes"/>
      <point x="361.5" y="2982"/>
      <point x="352" y="3005.33"/>
      <point x="352" y="3028" type="curve" smooth="yes"/>
      <point x="352" y="3082"/>
      <point x="378" y="3116"/>
      <point x="430" y="3130" type="curve" smooth="yes"/>
      <point x="805" y="3226" type="line"/>
      <point x="1060" y="3224" type="line" smooth="yes"/>
      <point x="1094" y="3224"/>
      <point x="1123.33" y="3208.67"/>
      <point x="1148" y="3178" type="curve" smooth="yes"/>
      <point x="1162" y="3159.33"/>
      <point x="1210.33" y="3117.83"/>
      <point x="1293" y="3053.5" type="curve" smooth="yes"/>
      <point x="1375.67" y="2989.17"/>
      <point x="1422" y="2952"/>
      <point x="1432" y="2942" type="curve" smooth="yes"/>
      <point x="1518" y="2856"/>
      <point x="1564.67" y="2737.33"/>
      <point x="1572" y="2586" type="curve" smooth="yes"/>
      <point x="1573.33" y="2558.67"/>
      <point x="1574.83" y="2532.17"/>
      <point x="1576.5" y="2506.5" type="curve" smooth="yes"/>
      <point x="1578.17" y="2480.83"/>
      <point x="1579.83" y="2459.5"/>
      <point x="1581.5" y="2442.5" type="curve" smooth="yes"/>
      <point x="1583.17" y="2425.5"/>
      <point x="1584.67" y="2410.67"/>
      <point x="1586" y="2398" type="curve" smooth="yes"/>
      <point x="1587.33" y="2385.33"/>
      <point x="1588.33" y="2376"/>
      <point x="1589" y="2370" type="curve" smooth="yes"/>
      <point x="1590" y="2360" type="line"/>
      <point x="1590" y="2314" type="line" smooth="yes"/>
      <point x="1591.33" y="2297.33"/>
      <point x="1592" y="2281"/>
      <point x="1592" y="2265" type="curve" smooth="yes"/>
      <point x="1592" y="2213.67"/>
      <point x="1584" y="2164.67"/>
      <point x="1568" y="2118" type="curve" smooth="yes"/>
      <point x="1547.33" y="2056"/>
      <point x="1517" y="2003"/>
      <point x="1477" y="1959" type="curve" smooth="yes"/>
      <point x="1437" y="1915"/>
      <point x="1391.83" y="1877.67"/>
      <point x="1341.5" y="1847" type="curve" smooth="yes"/>
      <point x="1291.17" y="1816.33"/>
      <point x="1238" y="1793.33"/>
      <point x="1182" y="1778" type="curve" smooth="yes"/>
      <point x="1170" y="1774.67"/>
      <point x="1154.33" y="1770.5"/>
      <point x="1135" y="1765.5" type="curve" smooth="yes"/>
      <point x="1115.67" y="1760.5"/>
      <point x="1102.33" y="1757"/>
      <point x="1095" y="1755" type="curve" smooth="yes"/>
      <point x="1087.67" y="1753"/>
      <point x="1077.5" y="1750.17"/>
      <point x="1064.5" y="1746.5" type="curve" smooth="yes"/>
      <point x="1051.5" y="1742.83"/>
      <point x="1042.67" y="1739.83"/>
      <point x="1038" y="1737.5" type="curve" smooth="yes"/>
      <point x="1033.33" y="1735.17"/>
      <point x="1027" y="1732.33"/>
      <point x="1019" y="1729" type="curve" smooth="yes"/>
      <point x="1011" y="1725.67"/>
      <point x="1005" y="1722.17"/>
      <point x="1001" y="1718.5" type="curve" smooth="yes"/>
      <point x="997" y="1714.83"/>
      <point x="992.667" y="1710.67"/>
      <point x="988" y="1706" type="curve" smooth="yes"/>
      <point x="983.333" y="1701.33"/>
      <point x="978.667" y="1696"/>
      <point x="974" y="1690" type="curve"/>
      <point x="974" y="1392" type="line"/>
      <point x="969.333" y="1380.67"/>
      <point x="967.5" y="1372.17"/>
      <point x="968.5" y="1366.5" type="curve" smooth="yes"/>
      <point x="969.5" y="1360.83"/>
      <point x="972.333" y="1350.5"/>
      <point x="977" y="1335.5" type="curve" smooth="yes"/>
      <point x="981.667" y="1320.5"/>
      <point x="984.667" y="1308"/>
      <point x="986" y="1298" type="curve"/>
      <point x="1042.67" y="1272.67"/>
      <point x="1078.67" y="1251.33"/>
      <point x="1094" y="1234" type="curve"/>
      <point x="1134.67" y="1214.67"/>
      <point x="1178" y="1184"/>
      <point x="1224" y="1142" type="curve" smooth="yes"/>
      <point x="1233.33" y="1134"/>
      <point x="1250.67" y="1119.17"/>
      <point x="1276" y="1097.5" type="curve" smooth="yes"/>
      <point x="1301.33" y="1075.83"/>
      <point x="1320.17" y="1059.67"/>
      <point x="1332.5" y="1049" type="curve" smooth="yes"/>
      <point x="1344.83" y="1038.33"/>
      <point x="1363" y="1021.67"/>
      <point x="1387" y="999" type="curve" smooth="yes"/>
      <point x="1411" y="976.333"/>
      <point x="1429.67" y="957.333"/>
      <point x="1443" y="942" type="curve" smooth="yes"/>
      <point x="1456.33" y="926.667"/>
      <point x="1473" y="906.5"/>
      <point x="1493" y="881.5" type="curve" smooth="yes"/>
      <point x="1513" y="856.5"/>
      <point x="1528.5" y="833.667"/>
      <point x="1539.5" y="813" type="curve" smooth="yes"/>
      <point x="1550.5" y="792.333"/>
      <point x="1562.5" y="767.667"/>
      <point x="1575.5" y="739" type="curve" smooth="yes"/>
      <point x="1588.5" y="710.333"/>
      <point x="1598.17" y="682.167"/>
      <point x="1604.5" y="654.5" type="curve" smooth="yes"/>
      <point x="1610.83" y="626.833"/>
      <point x="1615.83" y="596"/>
      <point x="1619.5" y="562" type="curve" smooth="yes"/>
      <point x="1623.17" y="528"/>
      <point x="1624" y="493.333"/>
      <point x="1622" y="458" type="curve"/>
      <point x="1626" y="432"/>
      <point x="1628" y="407"/>
      <point x="1628" y="383" type="curve" smooth="yes"/>
      <point x="1628" y="335.667"/>
      <point x="1620.67" y="292"/>
      <point x="1606" y="252" type="curve" smooth="yes"/>
      <point x="1583.33" y="190.667"/>
      <point x="1548.5" y="141.167"/>
      <point x="1501.5" y="103.5" type="curve" smooth="yes"/>
      <point x="1454.5" y="65.8333"/>
      <point x="1399.83" y="37.1667"/>
      <point x="1337.5" y="17.5" type="curve" smooth="yes"/>
      <point x="1275.17" y="-2.16667"/>
      <point x="1208" y="-12"/>
      <point x="1136" y="-12" type="curve" smooth="yes"/>
      <point x="666" y="-12" type="line"/>
      <point x="526" y="68" type="line"/>
      <point x="499.333" y="73.3333"/>
      <point x="480.5" y="86.8333"/>
      <point x="469.5" y="108.5" type="curve" smooth="yes"/>
      <point x="458.5" y="130.167"/>
      <point x="455.167" y="152.5"/>
      <point x="459.5" y="175.5" type="curve" smooth="yes"/>
      <point x="463.833" y="198.5"/>
      <point x="474.167" y="219.333"/>
      <point x="490.5" y="238" type="curve" smooth="yes"/>
      <point x="506.833" y="256.667"/>
      <point x="526" y="266"/>
      <point x="548" y="266" type="curve" smooth="yes"/>
      <point x="555.333" y="266"/>
      <point x="564.5" y="259.167"/>
      <point x="575.5" y="245.5" type="curve" smooth="yes"/>
      <point x="586.5" y="231.833"/>
      <point x="593.333" y="224.667"/>
      <point x="596" y="224" type="curve" smooth="yes"/>
      <point x="1134" y="224" type="line" smooth="yes"/>
      <point x="1155.33" y="222.667"/>
      <point x="1175.67" y="222"/>
      <point x="1195" y="222" type="curve" smooth="yes"/>
      <point x="1347.67" y="222"/>
      <point x="1424" y="267.333"/>
      <point x="1424" y="358" type="curve" smooth="yes"/>
      <point x="1424" y="369.333"/>
      <point x="1423" y="383.5"/>
      <point x="1421" y="400.5" type="curve" smooth="yes"/>
      <point x="1419" y="417.5"/>
      <point x="1418" y="428"/>
      <point x="1418" y="432" type="curve" smooth="yes"/>
      <point x="1417.33" y="460"/>
      <point x="1417" y="481"/>
      <point x="1417" y="495" type="curve" smooth="yes"/>
      <point x="1417" y="509"/>
      <point x="1417.17" y="530.167"/>
      <point x="1417.5" y="558.5" type="curve" smooth="yes"/>
      <point x="1417.83" y="586.833"/>
      <point x="1418" y="608"/>
      <point x="1418" y="622" type="curve"/>
      <point x="1409.33" y="658"/>
      <point x="1391.5" y="694.5"/>
      <point x="1364.5" y="731.5" type="curve" smooth="yes"/>
      <point x="1337.5" y="768.5"/>
      <point x="1311" y="798.5"/>
      <point x="1285" y="821.5" type="curve" smooth="yes"/>
      <point x="1259" y="844.5"/>
      <point x="1225.33" y="872.667"/>
      <point x="1184" y="906" type="curve" smooth="yes"/>
      <point x="1142.67" y="939.333"/>
      <point x="1114" y="963.333"/>
      <point x="1098" y="978" type="curve" smooth="yes"/>
      <point x="1082" y="992"/>
      <point x="1068.33" y="1003.67"/>
      <point x="1057" y="1013" type="curve" smooth="yes"/>
      <point x="1045.67" y="1022.33"/>
      <point x="1036.17" y="1030"/>
      <point x="1028.5" y="1036" type="curve" smooth="yes"/>
      <point x="1020.83" y="1042"/>
      <point x="1011.83" y="1048.33"/>
      <point x="1001.5" y="1055" type="curve" smooth="yes"/>
      <point x="991.167" y="1061.67"/>
      <point x="983.167" y="1066.67"/>
      <point x="977.5" y="1070" type="curve" smooth="yes"/>
      <point x="971.833" y="1073.33"/>
      <point x="960.833" y="1079.5"/>
      <point x="944.5" y="1088.5" type="curve" smooth="yes"/>
      <point x="928.167" y="1097.5"/>
      <point x="914.667" y="1105.33"/>
      <point x="904" y="1112" type="curve" smooth="yes"/>
      <point x="878" y="1127.33"/>
      <point x="857" y="1142.17"/>
      <point x="841" y="1156.5" type="curve" smooth="yes"/>
      <point x="825" y="1170.83"/>
      <point x="812.667" y="1187"/>
      <point x="804" y="1205" type="curve" smooth="yes"/>
      <point x="795.333" y="1223"/>
      <point x="789.167" y="1239.17"/>
      <point x="785.5" y="1253.5" type="curve" smooth="yes"/>
      <point x="781.833" y="1267.83"/>
      <point x="777.333" y="1289"/>
      <point x="772" y="1317" type="curve" smooth="yes"/>
      <point x="766.667" y="1345"/>
      <point x="760.667" y="1370"/>
      <point x="754" y="1392" type="curve"/>
      <point x="754" y="1504" type="line" smooth="yes"/>
      <point x="755.333" y="1516.67"/>
      <point x="756.667" y="1535"/>
      <point x="758" y="1559" type="curve" smooth="yes"/>
      <point x="760" y="1589"/>
      <point x="761.667" y="1611.33"/>
      <point x="763" y="1626" type="curve" smooth="yes"/>
      <point x="764.333" y="1640.67"/>
      <point x="766.667" y="1660.33"/>
      <point x="770" y="1685" type="curve" smooth="yes"/>
      <point x="773.333" y="1709.67"/>
      <point x="777" y="1728.33"/>
      <point x="781" y="1741" type="curve" smooth="yes"/>
      <point x="785" y="1753.67"/>
      <point x="790.5" y="1769.33"/>
      <point x="797.5" y="1788" type="curve" smooth="yes"/>
      <point x="804.5" y="1806.67"/>
      <point x="812.833" y="1821.5"/>
      <point x="822.5" y="1832.5" type="curve" smooth="yes"/>
      <point x="832.167" y="1843.5"/>
      <point x="843.833" y="1855.5"/>
      <point x="857.5" y="1868.5" type="curve" smooth="yes"/>
      <point x="871.167" y="1881.5"/>
      <point x="887.167" y="1892.67"/>
      <point x="905.5" y="1902" type="curve" smooth="yes"/>
      <point x="923.833" y="1911.33"/>
      <point x="944.667" y="1920"/>
      <point x="968" y="1928" type="curve" smooth="yes"/>
      <point x="1028" y="1949.33"/>
      <point x="1084" y="1966"/>
      <point x="1136" y="1978" type="curve" smooth="yes"/>
      <point x="1199.33" y="1992.67"/>
      <point x="1257.17" y="2026.17"/>
      <point x="1309.5" y="2078.5" type="curve" smooth="yes"/>
      <point x="1361.83" y="2130.83"/>
      <point x="1388" y="2190.67"/>
      <point x="1388" y="2258" type="curve" smooth="yes"/>
      <point x="1388" y="2360" type="line"/>
      <point x="1386" y="2382" type="line" smooth="yes"/>
      <point x="1384" y="2397.33"/>
      <point x="1381.33" y="2422.5"/>
      <point x="1378" y="2457.5" type="curve" smooth="yes"/>
      <point x="1374.67" y="2492.5"/>
      <point x="1371.33" y="2530.67"/>
    </contour>
  </outline>
</glyph>
<glyph name="four" format="2">
  <advance width="1196"/>
  <unicode hex="0034"/>
  <outline>
    <contour>
      <point x="16" y="1357" type="line" smooth="yes"/>
      <point x="17" y="1390"/>
      <point x="20" y="1427"/>
      <point x="24" y="1469" type="curve" smooth="yes"/>
      <point x="28" y="1511"/>
      <point x="34" y="1543"/>
      <point x="41" y="1564" type="curve"/>
      <point x="41" y="1597" type="line"/>
      <point x="43" y="1618"/>
      <point x="50" y="1637"/>
      <point x="63" y="1656" type="curve" smooth="yes"/>
      <point x="76" y="1675"/>
      <point x="90" y="1684"/>
      <point x="105" y="1684" type="curve" smooth="yes"/>
      <point x="133" y="1684"/>
      <point x="154" y="1674"/>
      <point x="166" y="1654" type="curve" smooth="yes"/>
      <point x="172" y="1644"/>
      <point x="174" y="1634"/>
      <point x="174" y="1623" type="curve" smooth="yes"/>
      <point x="174" y="1611"/>
      <point x="171" y="1598"/>
      <point x="165" y="1585" type="curve"/>
      <point x="165" y="1553" type="line"/>
      <point x="160" y="1536"/>
      <point x="154" y="1504"/>
      <point x="148" y="1457" type="curve" smooth="yes"/>
      <point x="142" y="1410"/>
      <point x="138" y="1376"/>
      <point x="138" y="1356" type="curve" smooth="yes"/>
      <point x="138" y="1259" type="line" smooth="yes"/>
      <point x="138" y="1233"/>
      <point x="143" y="1205"/>
      <point x="155" y="1175" type="curve" smooth="yes"/>
      <point x="167" y="1145"/>
      <point x="183" y="1114"/>
      <point x="204" y="1086" type="curve" smooth="yes"/>
      <point x="225" y="1058"/>
      <point x="247" y="1032"/>
      <point x="273" y="1008" type="curve" smooth="yes"/>
      <point x="299" y="984"/>
      <point x="326" y="964"/>
      <point x="357" y="950" type="curve" smooth="yes"/>
      <point x="388" y="936"/>
      <point x="418" y="929"/>
      <point x="447" y="929" type="curve" smooth="yes"/>
      <point x="942" y="929" type="line"/>
      <point x="950" y="974"/>
      <point x="954" y="1033"/>
      <point x="954" y="1107" type="curve" smooth="yes"/>
      <point x="954" y="1285" type="line" smooth="yes"/>
      <point x="954" y="1346"/>
      <point x="942" y="1403"/>
      <point x="917" y="1456" type="curve" smooth="yes"/>
      <point x="892" y="1509"/>
      <point x="861" y="1552"/>
      <point x="823" y="1587" type="curve" smooth="yes"/>
      <point x="814" y="1596"/>
      <point x="808" y="1606"/>
      <point x="806" y="1619" type="curve" smooth="yes"/>
      <point x="804" y="1632"/>
      <point x="805" y="1644"/>
      <point x="809" y="1655" type="curve" smooth="yes"/>
      <point x="813" y="1666"/>
      <point x="821" y="1676"/>
      <point x="831" y="1684" type="curve" smooth="yes"/>
      <point x="841" y="1692"/>
      <point x="852" y="1695"/>
      <point x="865" y="1694" type="curve" smooth="yes"/>
      <point x="880" y="1694"/>
      <point x="895" y="1688"/>
      <point x="908" y="1677" type="curve" smooth="yes"/>
      <point x="957" y="1631"/>
      <point x="998" y="1574"/>
      <point x="1030" y="1506" type="curve" smooth="yes"/>
      <point x="1062" y="1438"/>
      <point x="1079" y="1364"/>
      <point x="1079" y="1286" type="curve" smooth="yes"/>
      <point x="1079" y="960" type="line"/>
      <point x="1109" y="963"/>
      <point x="1125" y="965"/>
      <point x="1127" y="965" type="curve" smooth="yes"/>
      <point x="1140" y="965"/>
      <point x="1152" y="958"/>
      <point x="1164" y="945" type="curve" smooth="yes"/>
      <point x="1176" y="932"/>
      <point x="1181" y="918"/>
      <point x="1181" y="904" type="curve" smooth="yes"/>
      <point x="1181" y="888"/>
      <point x="1176" y="874"/>
      <point x="1165" y="862" type="curve" smooth="yes"/>
      <point x="1154" y="850"/>
      <point x="1141" y="844"/>
      <point x="1126" y="842" type="curve"/>
      <point x="1043" y="842" type="line"/>
      <point x="1025" y="711"/>
      <point x="985" y="581"/>
      <point x="923" y="450" type="curve" smooth="yes"/>
      <point x="861" y="319"/>
      <point x="784" y="204"/>
      <point x="693" y="106" type="curve" smooth="yes"/>
      <point x="685" y="98"/>
      <point x="677" y="89"/>
      <point x="669" y="80" type="curve" smooth="yes"/>
      <point x="661" y="71"/>
      <point x="654" y="64"/>
      <point x="649" y="58" type="curve" smooth="yes"/>
      <point x="644" y="52"/>
      <point x="640" y="47"/>
      <point x="635" y="42" type="curve" smooth="yes"/>
      <point x="630" y="37"/>
      <point x="627" y="34"/>
      <point x="624" y="31" type="curve" smooth="yes"/>
      <point x="621" y="28"/>
      <point x="619" y="27"/>
      <point x="618" y="26" type="curve" smooth="yes"/>
      <point x="574" y="2" type="line" smooth="yes"/>
      <point x="563" y="-5"/>
      <point x="552" y="-8"/>
      <point x="542" y="-8" type="curve" smooth="yes"/>
      <point x="531" y="-8"/>
      <point x="521" y="-4"/>
      <point x="510" y="4" type="curve" smooth="yes"/>
      <point x="494" y="16"/>
      <point x="484" y="32"/>
      <point x="482" y="52" type="curve" smooth="yes"/>
      <point x="482" y="55"/>
      <point x="482" y="59"/>
      <point x="482" y="62" type="curve" smooth="yes"/>
      <point x="482" y="82"/>
      <point x="491" y="97"/>
      <point x="510" y="108" type="curve" smooth="yes"/>
      <point x="512" y="109"/>
      <point x="512" y="109"/>
      <point x="514" y="110" type="curve" smooth="yes"/>
      <point x="549" y="110" type="line"/>
      <point x="552" y="113"/>
      <point x="572" y="139"/>
      <point x="609" y="188" type="curve" smooth="yes"/>
      <point x="646" y="237"/>
      <point x="666" y="264"/>
      <point x="668" y="266" type="curve" smooth="yes"/>
      <point x="732" y="350"/>
      <point x="785" y="440"/>
      <point x="826" y="535" type="curve" smooth="yes"/>
      <point x="867" y="630"/>
      <point x="896" y="726"/>
      <point x="914" y="825" type="curve"/>
      <point x="426" y="785" type="line"/>
      <point x="403" y="789"/>
      <point x="375" y="800"/>
      <point x="342" y="818" type="curve" smooth="yes"/>
      <point x="309" y="836"/>
      <point x="281" y="855"/>
      <point x="256" y="873" type="curve" smooth="yes"/>
      <point x="231" y="891"/>
      <point x="210" y="909"/>
      <point x="191" y="926" type="curve" smooth="yes"/>
      <point x="125" y="986"/>
      <point x="78" y="1044"/>
      <point x="50" y="1100" type="curve" smooth="yes"/>
      <point x="26" y="1147"/>
      <point x="14" y="1200"/>
      <point x="14" y="1258" type="curve" smooth="yes"/>
      <point x="14" y="1270"/>
      <point x="15" y="1281"/>
      <point x="16" y="1293" type="curve" smooth="yes"/>
    </contour>
  </outline>
</glyph>
<glyph name="five" format="2">
  <advance width="1060"/>
  <unicode hex="0035"/>
  <outline>
    <contour>
      <point x="270" y="209" type="curve" smooth="yes"/>
      <point x="264" y="227"/>
      <point x="267" y="243"/>
      <point x="281" y="256" type="curve" smooth="yes"/>
      <point x="295" y="269"/>
      <point x="310" y="275"/>
      <point x="328" y="272" type="curve" smooth="yes"/>
      <point x="346" y="269"/>
      <point x="358" y="258"/>
      <point x="363" y="238" type="curve" smooth="yes"/>
      <point x="369" y="214"/>
      <point x="381" y="193"/>
      <point x="400" y="173" type="curve" smooth="yes"/>
      <point x="419" y="153"/>
      <point x="441" y="138"/>
      <point x="468" y="126" type="curve" smooth="yes"/>
      <point x="495" y="114"/>
      <point x="525" y="103"/>
      <point x="559" y="95" type="curve" smooth="yes"/>
      <point x="593" y="87"/>
      <point x="627" y="83"/>
      <point x="662" y="82" type="curve" smooth="yes"/>
      <point x="670" y="82"/>
      <point x="677" y="82"/>
      <point x="685" y="82" type="curve" smooth="yes"/>
      <point x="768" y="85" type="line"/>
      <point x="820" y="85" type="line" smooth="yes"/>
      <point x="854" y="85"/>
      <point x="882" y="104"/>
      <point x="904" y="142" type="curve" smooth="yes"/>
      <point x="926" y="180"/>
      <point x="937" y="235"/>
      <point x="937" y="308" type="curve" smooth="yes"/>
      <point x="937" y="344"/>
      <point x="936" y="377"/>
      <point x="932" y="405" type="curve" smooth="yes"/>
      <point x="928" y="433"/>
      <point x="924" y="457"/>
      <point x="919" y="478" type="curve" smooth="yes"/>
      <point x="914" y="499"/>
      <point x="904" y="518"/>
      <point x="892" y="536" type="curve" smooth="yes"/>
      <point x="880" y="554"/>
      <point x="868" y="568"/>
      <point x="858" y="580" type="curve" smooth="yes"/>
      <point x="848" y="592"/>
      <point x="832" y="605"/>
      <point x="810" y="618" type="curve" smooth="yes"/>
      <point x="788" y="631"/>
      <point x="769" y="641"/>
      <point x="752" y="649" type="curve" smooth="yes"/>
      <point x="735" y="657"/>
      <point x="711" y="669"/>
      <point x="679" y="683" type="curve" smooth="yes"/>
      <point x="653" y="694"/>
      <point x="629" y="705"/>
      <point x="605" y="716" type="curve" smooth="yes"/>
      <point x="581" y="727"/>
      <point x="561" y="737"/>
      <point x="543" y="746" type="curve" smooth="yes"/>
      <point x="516" y="760"/>
      <point x="516" y="760"/>
      <point x="508" y="764" type="curve" smooth="yes"/>
      <point x="471" y="781"/>
      <point x="434" y="800"/>
      <point x="398" y="822" type="curve" smooth="yes"/>
      <point x="362" y="844"/>
      <point x="325" y="868"/>
      <point x="289" y="896" type="curve" smooth="yes"/>
      <point x="253" y="924"/>
      <point x="219" y="953"/>
      <point x="188" y="986" type="curve" smooth="yes"/>
      <point x="157" y="1019"/>
      <point x="130" y="1053"/>
      <point x="106" y="1089" type="curve" smooth="yes"/>
      <point x="82" y="1125"/>
      <point x="63" y="1163"/>
      <point x="49" y="1205" type="curve" smooth="yes"/>
      <point x="35" y="1247"/>
      <point x="29" y="1289"/>
      <point x="29" y="1331" type="curve" smooth="yes"/>
      <point x="29" y="1395"/>
      <point x="38" y="1453"/>
      <point x="55" y="1506" type="curve" smooth="yes"/>
      <point x="72" y="1559"/>
      <point x="97" y="1601"/>
      <point x="130" y="1634" type="curve"/>
      <point x="310" y="1634" type="line"/>
      <point x="480" y="1606" type="line"/>
      <point x="597" y="1474" type="line"/>
      <point x="631" y="1455"/>
      <point x="675" y="1446"/>
      <point x="729" y="1446" type="curve" smooth="yes"/>
      <point x="788" y="1446"/>
      <point x="826" y="1457"/>
      <point x="844" y="1480" type="curve"/>
      <point x="844" y="1513" type="line"/>
      <point x="842" y="1535"/>
      <point x="849" y="1551"/>
      <point x="866" y="1563" type="curve" smooth="yes"/>
      <point x="883" y="1575"/>
      <point x="901" y="1578"/>
      <point x="919" y="1572" type="curve" smooth="yes"/>
      <point x="937" y="1566"/>
      <point x="947" y="1553"/>
      <point x="949" y="1531" type="curve" smooth="yes"/>
      <point x="949" y="1519"/>
      <point x="948" y="1510"/>
      <point x="945" y="1503" type="curve"/>
      <point x="945" y="1465" type="line" smooth="yes"/>
      <point x="945" y="1450"/>
      <point x="929" y="1427"/>
      <point x="896" y="1394" type="curve" smooth="yes"/>
      <point x="866" y="1364"/>
      <point x="811" y="1349"/>
      <point x="732" y="1349" type="curve" smooth="yes"/>
      <point x="709" y="1349"/>
      <point x="687" y="1352"/>
      <point x="665" y="1357" type="curve" smooth="yes"/>
      <point x="643" y="1362"/>
      <point x="625" y="1367"/>
      <point x="613" y="1373" type="curve" smooth="yes"/>
      <point x="601" y="1379"/>
      <point x="584" y="1386"/>
      <point x="563" y="1397" type="curve" smooth="yes"/>
      <point x="542" y="1408"/>
      <point x="527" y="1416"/>
      <point x="518" y="1420" type="curve"/>
      <point x="421" y="1517" type="line"/>
      <point x="190" y="1560" type="line"/>
      <point x="170" y="1535"/>
      <point x="155" y="1501"/>
      <point x="144" y="1461" type="curve" smooth="yes"/>
      <point x="133" y="1421"/>
      <point x="127" y="1379"/>
      <point x="127" y="1337" type="curve" smooth="yes"/>
      <point x="127" y="1293"/>
      <point x="136" y="1250"/>
      <point x="154" y="1207" type="curve" smooth="yes"/>
      <point x="172" y="1164"/>
      <point x="194" y="1126"/>
      <point x="222" y="1092" type="curve" smooth="yes"/>
      <point x="250" y="1058"/>
      <point x="284" y="1027"/>
      <point x="322" y="995" type="curve" smooth="yes"/>
      <point x="360" y="963"/>
      <point x="397" y="936"/>
      <point x="434" y="914" type="curve" smooth="yes"/>
      <point x="471" y="892"/>
      <point x="510" y="871"/>
      <point x="550" y="852" type="curve" smooth="yes"/>
      <point x="557" y="849"/>
      <point x="578" y="838"/>
      <point x="614" y="821" type="curve" smooth="yes"/>
      <point x="650" y="804"/>
      <point x="684" y="787"/>
      <point x="716" y="772" type="curve" smooth="yes"/>
      <point x="748" y="757"/>
      <point x="769" y="747"/>
      <point x="781" y="742" type="curve" smooth="yes"/>
      <point x="821" y="724"/>
      <point x="856" y="705"/>
      <point x="884" y="684" type="curve" smooth="yes"/>
      <point x="912" y="663"/>
      <point x="936" y="640"/>
      <point x="956" y="615" type="curve" smooth="yes"/>
      <point x="976" y="590"/>
      <point x="991" y="562"/>
      <point x="1002" y="530" type="curve" smooth="yes"/>
      <point x="1013" y="498"/>
      <point x="1022" y="463"/>
      <point x="1027" y="427" type="curve" smooth="yes"/>
      <point x="1032" y="391"/>
      <point x="1034" y="348"/>
      <point x="1034" y="300" type="curve" smooth="yes"/>
      <point x="1034" y="182"/>
      <point x="1011" y="97"/>
      <point x="965" y="44" type="curve" smooth="yes"/>
      <point x="929" y="3"/>
      <point x="882" y="-18"/>
      <point x="822" y="-18" type="curve" smooth="yes"/>
      <point x="805" y="-18"/>
      <point x="786" y="-16"/>
      <point x="767" y="-13" type="curve"/>
      <point x="746" y="-14"/>
      <point x="724" y="-14"/>
      <point x="704" y="-14" type="curve" smooth="yes"/>
      <point x="631" y="-14"/>
      <point x="564" y="-7"/>
      <point x="503" y="8" type="curve" smooth="yes"/>
      <point x="446" y="22"/>
      <point x="397" y="47"/>
      <point x="357" y="82" type="curve" smooth="yes"/>
      <point x="317" y="117"/>
      <point x="288" y="159"/>
    </contour>
  </outline>
</glyph>
<glyph name="six" format="2">
  <advance width="1884"/>
  <unicode hex="0036"/>
  <outline>
    <contour>
      <point x="278" y="2810" type="curve" smooth="yes"/>
      <point x="277.333" y="2886.67"/>
      <point x="301.5" y="2962.5"/>
      <point x="350.5" y="3037.5" type="curve" smooth="yes"/>
      <point x="399.5" y="3112.5"/>
      <point x="462.5" y="3173.33"/>
      <point x="539.5" y="3220" type="curve" smooth="yes"/>
      <point x="616.5" y="3266.67"/>
      <point x="693.333" y="3290"/>
      <point x="770" y="3290" type="curve" smooth="yes"/>
      <point x="798.667" y="3290"/>
      <point x="823.5" y="3280.17"/>
      <point x="844.5" y="3260.5" type="curve" smooth="yes"/>
      <point x="865.5" y="3240.83"/>
      <point x="876" y="3217.33"/>
      <point x="876" y="3190" type="curve" smooth="yes"/>
      <point x="876" y="3168.67"/>
      <point x="872.5" y="3151"/>
      <point x="865.5" y="3137" type="curve" smooth="yes"/>
      <point x="858.5" y="3123"/>
      <point x="848" y="3111.83"/>
      <point x="834" y="3103.5" type="curve" smooth="yes"/>
      <point x="820" y="3095.17"/>
      <point x="806.167" y="3088.67"/>
      <point x="792.5" y="3084" type="curve" smooth="yes"/>
      <point x="778.833" y="3079.33"/>
      <point x="761.5" y="3073.67"/>
      <point x="740.5" y="3067" type="curve" smooth="yes"/>
      <point x="719.5" y="3060.33"/>
      <point x="702" y="3054"/>
      <point x="688" y="3048" type="curve" smooth="yes"/>
      <point x="636.667" y="3025.33"/>
      <point x="589.833" y="2992.5"/>
      <point x="547.5" y="2949.5" type="curve" smooth="yes"/>
      <point x="505.167" y="2906.5"/>
      <point x="484" y="2860"/>
      <point x="484" y="2810" type="curve" smooth="yes"/>
      <point x="484" y="2744" type="line" smooth="yes"/>
      <point x="484" y="2739.33"/>
      <point x="481.667" y="2733"/>
      <point x="477" y="2725" type="curve" smooth="yes"/>
      <point x="472.333" y="2717"/>
      <point x="470" y="2712.67"/>
      <point x="470" y="2712" type="curve" smooth="yes"/>
      <point x="470" y="2632" type="line"/>
      <point x="456" y="2607" type="line" smooth="yes"/>
      <point x="446" y="2590.33"/>
      <point x="437.167" y="2569.33"/>
      <point x="429.5" y="2544" type="curve" smooth="yes"/>
      <point x="421.833" y="2518.67"/>
      <point x="418" y="2491.33"/>
      <point x="418" y="2462" type="curve" smooth="yes"/>
      <point x="418" y="960" type="line" smooth="yes"/>
      <point x="420" y="956"/>
      <point x="428.167" y="949.167"/>
      <point x="442.5" y="939.5" type="curve" smooth="yes"/>
      <point x="456.833" y="929.833"/>
      <point x="462.667" y="920"/>
      <point x="460" y="910" type="curve"/>
      <point x="460" y="840" type="line"/>
      <point x="474.667" y="803.333"/>
      <point x="487.333" y="763"/>
      <point x="498" y="719" type="curve" smooth="yes"/>
      <point x="508.667" y="675"/>
      <point x="519" y="626.167"/>
      <point x="529" y="572.5" type="curve" smooth="yes"/>
      <point x="539" y="518.833"/>
      <point x="547.333" y="478.667"/>
      <point x="554" y="452" type="curve" smooth="yes"/>
      <point x="561.333" y="422.667"/>
      <point x="571.5" y="398.333"/>
      <point x="584.5" y="379" type="curve" smooth="yes"/>
      <point x="597.5" y="359.667"/>
      <point x="614" y="338.667"/>
      <point x="634" y="316" type="curve" smooth="yes"/>
      <point x="654" y="293.333"/>
      <point x="671.333" y="269.333"/>
      <point x="686" y="244" type="curve"/>
      <point x="804" y="164" type="line"/>
      <point x="1470" y="164" type="line"/>
      <point x="1474.67" y="171.333"/>
      <point x="1487.67" y="180"/>
      <point x="1509" y="190" type="curve" smooth="yes"/>
      <point x="1530.33" y="200"/>
      <point x="1544.67" y="210"/>
      <point x="1552" y="220" type="curve"/>
      <point x="1550" y="927" type="line"/>
      <point x="980" y="1024" type="line"/>
      <point x="980" y="1004"/>
      <point x="980.167" y="973.833"/>
      <point x="980.5" y="933.5" type="curve" smooth="yes"/>
      <point x="980.833" y="893.167"/>
      <point x="981" y="862.833"/>
      <point x="981" y="842.5" type="curve" smooth="yes"/>
      <point x="981" y="822.167"/>
      <point x="980.667" y="792"/>
      <point x="980" y="752" type="curve" smooth="yes"/>
      <point x="979.333" y="727.333"/>
      <point x="965.167" y="705.167"/>
      <point x="937.5" y="685.5" type="curve" smooth="yes"/>
      <point x="909.833" y="665.833"/>
      <point x="881.333" y="656"/>
      <point x="852" y="656" type="curve" smooth="yes"/>
      <point x="824" y="656"/>
      <point x="799.667" y="666.167"/>
      <point x="779" y="686.5" type="curve" smooth="yes"/>
      <point x="758.333" y="706.833"/>
      <point x="748.667" y="730.667"/>
      <point x="750" y="758" type="curve" smooth="yes"/>
      <point x="750" y="922" type="line" smooth="yes"/>
      <point x="749.333" y="930.667"/>
      <point x="753.167" y="954.167"/>
      <point x="761.5" y="992.5" type="curve" smooth="yes"/>
      <point x="769.833" y="1030.83"/>
      <point x="774" y="1063.33"/>
      <point x="774" y="1090" type="curve" smooth="yes"/>
      <point x="774" y="1127.33"/>
      <point x="792.333" y="1160"/>
      <point x="829" y="1188" type="curve" smooth="yes"/>
      <point x="865.667" y="1216"/>
      <point x="906" y="1230"/>
      <point x="950" y="1230" type="curve" smooth="yes"/>
      <point x="1010" y="1230"/>
      <point x="1104.83" y="1217.67"/>
      <point x="1234.5" y="1193" type="curve" smooth="yes"/>
      <point x="1364.17" y="1168.33"/>
      <point x="1454" y="1154.67"/>
      <point x="1504" y="1152" type="curve" smooth="yes"/>
      <point x="1578.67" y="1148"/>
      <point x="1637.33" y="1126.17"/>
      <point x="1680" y="1086.5" type="curve" smooth="yes"/>
      <point x="1722.67" y="1046.83"/>
      <point x="1744" y="993.333"/>
      <point x="1744" y="926" type="curve" smooth="yes"/>
      <point x="1744" y="212" type="line" smooth="yes"/>
      <point x="1744" y="164.667"/>
      <point x="1721.33" y="116"/>
      <point x="1676" y="66" type="curve" smooth="yes"/>
      <point x="1663.33" y="53.3333"/>
      <point x="1651.5" y="38"/>
      <point x="1640.5" y="20" type="curve" smooth="yes"/>
      <point x="1629.5" y="2"/>
      <point x="1619.67" y="-15.1667"/>
      <point x="1611" y="-31.5" type="curve" smooth="yes"/>
      <point x="1602.33" y="-47.8333"/>
      <point x="1596.67" y="-58"/>
      <point x="1594" y="-62" type="curve"/>
      <point x="754" y="-62" type="line" smooth="yes"/>
      <point x="746.667" y="-61.3333"/>
      <point x="737.667" y="-54.5"/>
      <point x="727" y="-41.5" type="curve" smooth="yes"/>
      <point x="716.333" y="-28.5"/>
      <point x="710" y="-21.3333"/>
      <point x="708" y="-20" type="curve" smooth="yes"/>
      <point x="552" y="88" type="line" smooth="yes"/>
      <point x="544.667" y="92.6667"/>
      <point x="532" y="109.333"/>
      <point x="514" y="138" type="curve" smooth="yes"/>
      <point x="504.667" y="151.333"/>
      <point x="491.5" y="167.5"/>
      <point x="474.5" y="186.5" type="curve" smooth="yes"/>
      <point x="457.5" y="205.5"/>
      <point x="442.667" y="222.167"/>
      <point x="430" y="236.5" type="curve" smooth="yes"/>
      <point x="417.333" y="250.833"/>
      <point x="404.833" y="269"/>
      <point x="392.5" y="291" type="curve" smooth="yes"/>
      <point x="380.167" y="313"/>
      <point x="371.333" y="335.667"/>
      <point x="366" y="359" type="curve" smooth="yes"/>
      <point x="238" y="938" type="line"/>
      <point x="253" y="1652" type="line" smooth="yes"/>
      <point x="252.333" y="1653.33"/>
      <point x="248" y="1654.83"/>
      <point x="240" y="1656.5" type="curve" smooth="yes"/>
      <point x="232" y="1658.17"/>
      <point x="224" y="1659.33"/>
      <point x="216" y="1660" type="curve" smooth="yes"/>
      <point x="208" y="1660.67"/>
      <point x="204" y="1661.33"/>
      <point x="204" y="1662" type="curve" smooth="yes"/>
      <point x="204" y="2484" type="line"/>
      <point x="206.667" y="2528"/>
      <point x="219.5" y="2592.83"/>
      <point x="242.5" y="2678.5" type="curve" smooth="yes"/>
      <point x="265.5" y="2764.17"/>
      <point x="277.333" y="2808"/>
    </contour>
  </outline>
</glyph>
<glyph name="seven" format="2">
  <advance width="897"/>
  <unicode hex="0037"/>
  <outline>
    <contour>
      <point x="666" y="1425" type="line"/>
      <point x="646" y="1420"/>
      <point x="624" y="1411"/>
      <point x="600" y="1401" type="curve" smooth="yes"/>
      <point x="576" y="1391"/>
      <point x="554" y="1382"/>
      <point x="537" y="1374" type="curve" smooth="yes"/>
      <point x="520" y="1366"/>
      <point x="498" y="1358"/>
      <point x="472" y="1352" type="curve" smooth="yes"/>
      <point x="449" y="1347"/>
      <point x="425" y="1345"/>
      <point x="400" y="1345" type="curve" smooth="yes"/>
      <point x="394" y="1345"/>
      <point x="394" y="1345"/>
      <point x="388" y="1345" type="curve" smooth="yes"/>
      <point x="378" y="1345"/>
      <point x="367" y="1346"/>
      <point x="355" y="1346" type="curve" smooth="yes"/>
      <point x="343" y="1346"/>
      <point x="331" y="1345"/>
      <point x="317" y="1345" type="curve" smooth="yes"/>
      <point x="303" y="1345"/>
      <point x="292" y="1345"/>
      <point x="284" y="1345" type="curve" smooth="yes"/>
      <point x="282" y="1345"/>
      <point x="282" y="1345"/>
      <point x="280" y="1345" type="curve" smooth="yes"/>
      <point x="180" y="1345"/>
      <point x="77" y="1415"/>
      <point x="-30" y="1554" type="curve" smooth="yes"/>
      <point x="-37" y="1564"/>
      <point x="-40" y="1575"/>
      <point x="-40" y="1586" type="curve" smooth="yes"/>
      <point x="-40" y="1597"/>
      <point x="-37" y="1606"/>
      <point x="-30" y="1614" type="curve" smooth="yes"/>
      <point x="-23" y="1622"/>
      <point x="-15" y="1629"/>
      <point x="-6" y="1633" type="curve" smooth="yes"/>
      <point x="3" y="1637"/>
      <point x="12" y="1638"/>
      <point x="23" y="1636" type="curve" smooth="yes"/>
      <point x="34" y="1634"/>
      <point x="43" y="1627"/>
      <point x="51" y="1617" type="curve" smooth="yes"/>
      <point x="66" y="1598"/>
      <point x="79" y="1582"/>
      <point x="90" y="1569" type="curve" smooth="yes"/>
      <point x="101" y="1556"/>
      <point x="115" y="1540"/>
      <point x="132" y="1524" type="curve" smooth="yes"/>
      <point x="149" y="1508"/>
      <point x="164" y="1494"/>
      <point x="179" y="1484" type="curve" smooth="yes"/>
      <point x="194" y="1474"/>
      <point x="211" y="1466"/>
      <point x="229" y="1459" type="curve" smooth="yes"/>
      <point x="247" y="1452"/>
      <point x="266" y="1448"/>
      <point x="284" y="1448" type="curve" smooth="yes"/>
      <point x="380" y="1448" type="line" smooth="yes"/>
      <point x="441" y="1448"/>
      <point x="486" y="1457"/>
      <point x="514" y="1476" type="curve"/>
      <point x="521" y="1478"/>
      <point x="535" y="1484"/>
      <point x="557" y="1494" type="curve" smooth="yes"/>
      <point x="579" y="1504"/>
      <point x="602" y="1512"/>
      <point x="624" y="1518" type="curve" smooth="yes"/>
      <point x="646" y="1524"/>
      <point x="667" y="1528"/>
      <point x="689" y="1528" type="curve" smooth="yes"/>
      <point x="726" y="1528"/>
      <point x="760" y="1514"/>
      <point x="791" y="1487" type="curve" smooth="yes"/>
      <point x="822" y="1460"/>
      <point x="840" y="1429"/>
      <point x="845" y="1396" type="curve" smooth="yes"/>
      <point x="850" y="1364"/>
      <point x="852" y="1335"/>
      <point x="852" y="1308" type="curve" smooth="yes"/>
      <point x="852" y="1302"/>
      <point x="852" y="1296"/>
      <point x="852" y="1290" type="curve" smooth="yes"/>
      <point x="851" y="1273"/>
      <point x="848" y="1257"/>
      <point x="844" y="1241" type="curve" smooth="yes"/>
      <point x="840" y="1225"/>
      <point x="835" y="1213"/>
      <point x="830" y="1203" type="curve" smooth="yes"/>
      <point x="825" y="1193"/>
      <point x="819" y="1181"/>
      <point x="811" y="1166" type="curve" smooth="yes"/>
      <point x="803" y="1151"/>
      <point x="797" y="1140"/>
      <point x="793" y="1132" type="curve" smooth="yes"/>
      <point x="791" y="1128"/>
      <point x="781" y="1108"/>
      <point x="762" y="1072" type="curve" smooth="yes"/>
      <point x="743" y="1036"/>
      <point x="726" y="1001"/>
      <point x="710" y="968" type="curve" smooth="yes"/>
      <point x="694" y="935"/>
      <point x="685" y="912"/>
      <point x="682" y="900" type="curve" smooth="yes"/>
      <point x="656" y="787"/>
      <point x="636" y="689"/>
      <point x="622" y="608" type="curve" smooth="yes"/>
      <point x="608" y="527"/>
      <point x="602" y="454"/>
      <point x="602" y="391" type="curve" smooth="yes"/>
      <point x="602" y="384"/>
      <point x="602" y="373"/>
      <point x="602" y="360" type="curve" smooth="yes"/>
      <point x="602" y="347"/>
      <point x="603" y="335"/>
      <point x="603" y="324" type="curve" smooth="yes"/>
      <point x="603" y="313"/>
      <point x="603" y="303"/>
      <point x="602" y="293" type="curve" smooth="yes"/>
      <point x="601" y="276"/>
      <point x="601" y="259"/>
      <point x="603" y="241" type="curve" smooth="yes"/>
      <point x="605" y="223"/>
      <point x="608" y="203"/>
      <point x="612" y="182" type="curve" smooth="yes"/>
      <point x="616" y="161"/>
      <point x="620" y="144"/>
      <point x="623" y="133" type="curve" smooth="yes"/>
      <point x="626" y="122"/>
      <point x="631" y="105"/>
      <point x="638" y="82" type="curve" smooth="yes"/>
      <point x="645" y="59"/>
      <point x="648" y="48"/>
      <point x="648" y="46" type="curve" smooth="yes"/>
      <point x="665" y="28"/>
      <point x="669" y="9"/>
      <point x="660" y="-12" type="curve" smooth="yes"/>
      <point x="651" y="-33"/>
      <point x="635" y="-43"/>
      <point x="611" y="-43" type="curve" smooth="yes"/>
      <point x="599" y="-43"/>
      <point x="587" y="-36"/>
      <point x="573" y="-22" type="curve" smooth="yes"/>
      <point x="559" y="-8"/>
      <point x="552" y="3"/>
      <point x="550" y="13" type="curve" smooth="yes"/>
      <point x="549" y="16"/>
      <point x="544" y="36"/>
      <point x="533" y="73" type="curve" smooth="yes"/>
      <point x="522" y="110"/>
      <point x="513" y="145"/>
      <point x="505" y="180" type="curve" smooth="yes"/>
      <point x="500" y="205"/>
      <point x="497" y="224"/>
      <point x="497" y="238" type="curve" smooth="yes"/>
      <point x="497" y="243"/>
      <point x="497" y="248"/>
      <point x="498" y="251" type="curve" smooth="yes"/>
      <point x="498" y="282"/>
      <point x="499" y="311"/>
      <point x="500" y="338" type="curve"/>
      <point x="500" y="394" type="line" smooth="yes"/>
      <point x="500" y="523"/>
      <point x="528" y="701"/>
      <point x="583" y="927" type="curve" smooth="yes"/>
      <point x="597" y="984"/>
      <point x="644" y="1080"/>
      <point x="723" y="1215" type="curve" smooth="yes"/>
      <point x="732" y="1231"/>
      <point x="739" y="1250"/>
      <point x="744" y="1273" type="curve" smooth="yes"/>
      <point x="748" y="1293"/>
      <point x="751" y="1312"/>
      <point x="751" y="1331" type="curve" smooth="yes"/>
      <point x="751" y="1336"/>
      <point x="751" y="1336"/>
      <point x="751" y="1341" type="curve" smooth="yes"/>
      <point x="750" y="1363"/>
      <point x="744" y="1382"/>
      <point x="733" y="1398" type="curve" smooth="yes"/>
      <point x="722" y="1414"/>
      <point x="707" y="1424"/>
      <point x="687" y="1425" type="curve"/>
    </contour>
  </outline>
</glyph>
<glyph name="eight" format="2">
  <advance width="1007"/>
  <unicode hex="0038"/>
  <outline>
    <contour>
      <point x="809" y="887" type="curve"/>
      <point x="851" y="858"/>
      <point x="890" y="803"/>
      <point x="924" y="722" type="curve" smooth="yes"/>
      <point x="958" y="641"/>
      <point x="976" y="566"/>
      <point x="977" y="498" type="curve" smooth="yes"/>
      <point x="977" y="445" type="line" smooth="yes"/>
      <point x="977" y="358"/>
      <point x="959" y="287"/>
      <point x="925" y="230" type="curve" smooth="yes"/>
      <point x="891" y="173"/>
      <point x="831" y="116"/>
      <point x="745" y="59" type="curve" smooth="yes"/>
      <point x="722" y="45"/>
      <point x="701" y="38"/>
      <point x="682" y="38" type="curve" smooth="yes"/>
      <point x="353" y="38" type="line" smooth="yes"/>
      <point x="347" y="38"/>
      <point x="341" y="40"/>
      <point x="335" y="44" type="curve" smooth="yes"/>
      <point x="329" y="48"/>
      <point x="320" y="53"/>
      <point x="312" y="59" type="curve" smooth="yes"/>
      <point x="304" y="65"/>
      <point x="297" y="70"/>
      <point x="292" y="73" type="curve" smooth="yes"/>
      <point x="247" y="102"/>
      <point x="210" y="131"/>
      <point x="180" y="157" type="curve" smooth="yes"/>
      <point x="150" y="183"/>
      <point x="126" y="212"/>
      <point x="105" y="243" type="curve" smooth="yes"/>
      <point x="84" y="274"/>
      <point x="70" y="307"/>
      <point x="63" y="342" type="curve" smooth="yes"/>
      <point x="59" y="363"/>
      <point x="57" y="385"/>
      <point x="57" y="408" type="curve" smooth="yes"/>
      <point x="57" y="424"/>
      <point x="58" y="442"/>
      <point x="60" y="459" type="curve"/>
      <point x="60" y="513" type="line"/>
      <point x="64" y="595"/>
      <point x="83" y="669"/>
      <point x="114" y="737" type="curve" smooth="yes"/>
      <point x="145" y="805"/>
      <point x="183" y="859"/>
      <point x="227" y="901" type="curve"/>
      <point x="211" y="907"/>
      <point x="197" y="913"/>
      <point x="184" y="920" type="curve" smooth="yes"/>
      <point x="171" y="927"/>
      <point x="159" y="935"/>
      <point x="148" y="945" type="curve" smooth="yes"/>
      <point x="137" y="955"/>
      <point x="128" y="965"/>
      <point x="120" y="975" type="curve" smooth="yes"/>
      <point x="112" y="985"/>
      <point x="105" y="998"/>
      <point x="96" y="1014" type="curve" smooth="yes"/>
      <point x="87" y="1030"/>
      <point x="79" y="1045"/>
      <point x="73" y="1058" type="curve" smooth="yes"/>
      <point x="67" y="1071"/>
      <point x="59" y="1090"/>
      <point x="49" y="1114" type="curve"/>
      <point x="49" y="1299" type="line" smooth="yes"/>
      <point x="49" y="1332"/>
      <point x="54" y="1360"/>
      <point x="64" y="1384" type="curve" smooth="yes"/>
      <point x="74" y="1408"/>
      <point x="90" y="1429"/>
      <point x="114" y="1447" type="curve" smooth="yes"/>
      <point x="115" y="1447"/>
      <point x="128" y="1458"/>
      <point x="152" y="1478" type="curve" smooth="yes"/>
      <point x="176" y="1498"/>
      <point x="194" y="1511"/>
      <point x="205" y="1516" type="curve" smooth="yes"/>
      <point x="247" y="1534"/>
      <point x="282" y="1548"/>
      <point x="310" y="1558" type="curve" smooth="yes"/>
      <point x="338" y="1568"/>
      <point x="366" y="1577"/>
      <point x="396" y="1584" type="curve" smooth="yes"/>
      <point x="426" y="1591"/>
      <point x="452" y="1595"/>
      <point x="474" y="1596" type="curve" smooth="yes"/>
      <point x="478" y="1596"/>
      <point x="482" y="1597"/>
      <point x="487" y="1597" type="curve" smooth="yes"/>
      <point x="506" y="1597"/>
      <point x="527" y="1595"/>
      <point x="550" y="1592" type="curve" smooth="yes"/>
      <point x="579" y="1588"/>
      <point x="608" y="1582"/>
      <point x="636" y="1574" type="curve" smooth="yes"/>
      <point x="664" y="1566"/>
      <point x="699" y="1554"/>
      <point x="740" y="1539" type="curve" smooth="yes"/>
      <point x="761" y="1532"/>
      <point x="792" y="1514"/>
      <point x="836" y="1486" type="curve" smooth="yes"/>
      <point x="880" y="1458"/>
      <point x="906" y="1442"/>
      <point x="915" y="1438" type="curve" smooth="yes"/>
      <point x="971" y="1411"/>
      <point x="998" y="1367"/>
      <point x="998" y="1304" type="curve" smooth="yes"/>
      <point x="998" y="1298"/>
      <point x="998" y="1293"/>
      <point x="998" y="1287" type="curve" smooth="yes"/>
      <point x="998" y="1100" type="line"/>
      <point x="977" y="1039"/>
      <point x="950" y="990"/>
      <point x="916" y="954" type="curve" smooth="yes"/>
      <point x="882" y="918"/>
      <point x="846" y="895"/>
    </contour>
    <contour>
      <point x="346" y="906" type="curve"/>
      <point x="346" y="889"/>
      <point x="332" y="870"/>
      <point x="304" y="850" type="curve" smooth="yes"/>
      <point x="255" y="815"/>
      <point x="217" y="762"/>
      <point x="190" y="692" type="curve" smooth="yes"/>
      <point x="164" y="624"/>
      <point x="151" y="579"/>
      <point x="151" y="556" type="curve" smooth="yes"/>
      <point x="151" y="411" type="line" smooth="yes"/>
      <point x="151" y="344"/>
      <point x="176" y="285"/>
      <point x="227" y="234" type="curve" smooth="yes"/>
      <point x="283" y="178"/>
      <point x="328" y="147"/>
      <point x="363" y="140" type="curve"/>
      <point x="672" y="94" type="line"/>
      <point x="675" y="126" type="line"/>
      <point x="681" y="126"/>
      <point x="689" y="129"/>
      <point x="699" y="134" type="curve" smooth="yes"/>
      <point x="828" y="213"/>
      <point x="892" y="300"/>
      <point x="892" y="397" type="curve" smooth="yes"/>
      <point x="892" y="542" type="line" smooth="yes"/>
      <point x="892" y="545"/>
      <point x="890" y="550"/>
      <point x="886" y="558" type="curve" smooth="yes"/>
      <point x="882" y="566"/>
      <point x="880" y="572"/>
      <point x="879" y="577" type="curve" smooth="yes"/>
      <point x="845" y="704"/>
      <point x="796" y="790"/>
      <point x="732" y="836" type="curve" smooth="yes"/>
      <point x="718" y="846"/>
      <point x="707" y="856"/>
      <point x="700" y="864" type="curve" smooth="yes"/>
      <point x="693" y="872"/>
      <point x="690" y="881"/>
      <point x="690" y="890" type="curve" smooth="yes"/>
      <point x="690" y="912"/>
      <point x="696" y="928"/>
      <point x="708" y="938" type="curve" smooth="yes"/>
      <point x="720" y="948"/>
      <point x="740" y="957"/>
      <point x="766" y="965" type="curve" smooth="yes"/>
      <point x="834" y="984"/>
      <point x="878" y="1022"/>
      <point x="899" y="1079" type="curve"/>
      <point x="899" y="1358" type="line"/>
      <point x="897" y="1359"/>
      <point x="888" y="1363"/>
      <point x="874" y="1370" type="curve" smooth="yes"/>
      <point x="860" y="1377"/>
      <point x="854" y="1382"/>
      <point x="855" y="1383" type="curve" smooth="yes"/>
      <point x="855" y="1390"/>
      <point x="851" y="1396"/>
      <point x="842" y="1402" type="curve" smooth="yes"/>
      <point x="833" y="1408"/>
      <point x="821" y="1414"/>
      <point x="809" y="1419" type="curve" smooth="yes"/>
      <point x="797" y="1424"/>
      <point x="789" y="1428"/>
      <point x="786" y="1430" type="curve" smooth="yes"/>
      <point x="754" y="1454" type="line"/>
      <point x="704" y="1470" type="line" smooth="yes"/>
      <point x="671" y="1481"/>
      <point x="654" y="1488"/>
      <point x="651" y="1491" type="curve" smooth="yes"/>
      <point x="635" y="1508"/>
      <point x="615" y="1516"/>
      <point x="590" y="1516" type="curve" smooth="yes"/>
      <point x="588" y="1516"/>
      <point x="588" y="1516"/>
      <point x="586" y="1516" type="curve" smooth="yes"/>
      <point x="503" y="1516" type="line" smooth="yes"/>
      <point x="442" y="1516"/>
      <point x="355" y="1490"/>
      <point x="242" y="1437" type="curve" smooth="yes"/>
      <point x="238" y="1436"/>
      <point x="226" y="1426"/>
      <point x="204" y="1408" type="curve" smooth="yes"/>
      <point x="182" y="1390"/>
      <point x="171" y="1380"/>
      <point x="169" y="1379" type="curve" smooth="yes"/>
      <point x="141" y="1360"/>
      <point x="127" y="1334"/>
      <point x="127" y="1300" type="curve" smooth="yes"/>
      <point x="127" y="1152" type="line"/>
      <point x="131" y="1147"/>
      <point x="138" y="1135"/>
      <point x="147" y="1114" type="curve" smooth="yes"/>
      <point x="156" y="1093"/>
      <point x="165" y="1073"/>
      <point x="175" y="1054" type="curve" smooth="yes"/>
      <point x="185" y="1035"/>
      <point x="194" y="1022"/>
      <point x="201" y="1017" type="curve"/>
      <point x="208" y="1007"/>
      <point x="218" y="1000"/>
      <point x="230" y="994" type="curve" smooth="yes"/>
      <point x="242" y="988"/>
      <point x="255" y="983"/>
      <point x="267" y="980" type="curve" smooth="yes"/>
      <point x="279" y="977"/>
      <point x="290" y="973"/>
      <point x="302" y="969" type="curve" smooth="yes"/>
      <point x="314" y="965"/>
      <point x="324" y="957"/>
      <point x="332" y="947" type="curve" smooth="yes"/>
      <point x="340" y="937"/>
      <point x="344" y="923"/>
    </contour>
  </outline>
</glyph>
<glyph name="nine" format="2">
  <advance width="1884"/>
  <unicode hex="0039"/>
  <outline>
    <contour>
      <point x="1688" y="418" type="curve" smooth="yes"/>
      <point x="1688" y="342.667"/>
      <point x="1663.17" y="269.5"/>
      <point x="1613.5" y="198.5" type="curve" smooth="yes"/>
      <point x="1563.83" y="127.5"/>
      <point x="1501.33" y="69.3333"/>
      <point x="1426" y="24" type="curve" smooth="yes"/>
      <point x="1350.67" y="-21.3333"/>
      <point x="1274" y="-49.3333"/>
      <point x="1196" y="-60" type="curve" smooth="yes"/>
      <point x="1172" y="-63.3333"/>
      <point x="1151.5" y="-59.3333"/>
      <point x="1134.5" y="-48" type="curve" smooth="yes"/>
      <point x="1117.5" y="-36.6667"/>
      <point x="1106.17" y="-21.5"/>
      <point x="1100.5" y="-2.5" type="curve" smooth="yes"/>
      <point x="1094.83" y="16.5"/>
      <point x="1093" y="36"/>
      <point x="1095" y="56" type="curve" smooth="yes"/>
      <point x="1097" y="76"/>
      <point x="1104.83" y="94.3333"/>
      <point x="1118.5" y="111" type="curve" smooth="yes"/>
      <point x="1132.17" y="127.667"/>
      <point x="1150" y="138"/>
      <point x="1172" y="142" type="curve" smooth="yes"/>
      <point x="1198" y="147.333"/>
      <point x="1224.67" y="155.167"/>
      <point x="1252" y="165.5" type="curve" smooth="yes"/>
      <point x="1279.33" y="175.833"/>
      <point x="1306.67" y="189.167"/>
      <point x="1334" y="205.5" type="curve" smooth="yes"/>
      <point x="1361.33" y="221.833"/>
      <point x="1385.67" y="240.167"/>
      <point x="1407" y="260.5" type="curve" smooth="yes"/>
      <point x="1428.33" y="280.833"/>
      <point x="1445.83" y="304.667"/>
      <point x="1459.5" y="332" type="curve" smooth="yes"/>
      <point x="1473.17" y="359.333"/>
      <point x="1480.67" y="388"/>
      <point x="1482" y="418" type="curve" smooth="yes"/>
      <point x="1482" y="484" type="line" smooth="yes"/>
      <point x="1482" y="486.667"/>
      <point x="1486.67" y="491.333"/>
      <point x="1496" y="498" type="curve" smooth="yes"/>
      <point x="1505.33" y="504.667"/>
      <point x="1515.67" y="513"/>
      <point x="1527" y="523" type="curve" smooth="yes"/>
      <point x="1538.33" y="533"/>
      <point x="1546" y="543.333"/>
      <point x="1550" y="554" type="curve"/>
      <point x="1550" y="2268" type="line" smooth="yes"/>
      <point x="1548" y="2272"/>
      <point x="1539.5" y="2278.83"/>
      <point x="1524.5" y="2288.5" type="curve" smooth="yes"/>
      <point x="1509.5" y="2298.17"/>
      <point x="1503.33" y="2308"/>
      <point x="1506" y="2318" type="curve"/>
      <point x="1506" y="2388" type="line"/>
      <point x="1494" y="2424.67"/>
      <point x="1479.5" y="2480.33"/>
      <point x="1462.5" y="2555" type="curve" smooth="yes"/>
      <point x="1445.5" y="2629.67"/>
      <point x="1434.67" y="2675.33"/>
      <point x="1430" y="2692" type="curve" smooth="yes"/>
      <point x="1428" y="2700"/>
      <point x="1424.5" y="2714.5"/>
      <point x="1419.5" y="2735.5" type="curve" smooth="yes"/>
      <point x="1414.5" y="2756.5"/>
      <point x="1410.33" y="2773.5"/>
      <point x="1407" y="2786.5" type="curve" smooth="yes"/>
      <point x="1403.67" y="2799.5"/>
      <point x="1398.5" y="2813.83"/>
      <point x="1391.5" y="2829.5" type="curve" smooth="yes"/>
      <point x="1384.5" y="2845.17"/>
      <point x="1376.67" y="2857.33"/>
      <point x="1368" y="2866" type="curve" smooth="yes"/>
      <point x="1351.33" y="2882.67"/>
      <point x="1322" y="2922"/>
      <point x="1280" y="2984" type="curve"/>
      <point x="1162" y="3064" type="line"/>
      <point x="496" y="3064" type="line"/>
      <point x="491.333" y="3056.67"/>
      <point x="478.167" y="3048"/>
      <point x="456.5" y="3038" type="curve" smooth="yes"/>
      <point x="434.833" y="3028"/>
      <point x="420.667" y="3018"/>
      <point x="414" y="3008" type="curve"/>
      <point x="416" y="2301" type="line"/>
      <point x="986" y="2204" type="line"/>
      <point x="986" y="2476" type="line" smooth="yes"/>
      <point x="986" y="2500.67"/>
      <point x="1000" y="2522.83"/>
      <point x="1028" y="2542.5" type="curve" smooth="yes"/>
      <point x="1056" y="2562.17"/>
      <point x="1084.67" y="2572"/>
      <point x="1114" y="2572" type="curve" smooth="yes"/>
      <point x="1142" y="2572"/>
      <point x="1166.33" y="2561.83"/>
      <point x="1187" y="2541.5" type="curve" smooth="yes"/>
      <point x="1207.67" y="2521.17"/>
      <point x="1217.33" y="2497.33"/>
      <point x="1216" y="2470" type="curve" smooth="yes"/>
      <point x="1216" y="2306" type="line" smooth="yes"/>
      <point x="1216.67" y="2297.33"/>
      <point x="1212.83" y="2273.83"/>
      <point x="1204.5" y="2235.5" type="curve" smooth="yes"/>
      <point x="1196.17" y="2197.17"/>
      <point x="1192" y="2164.67"/>
      <point x="1192" y="2138" type="curve" smooth="yes"/>
      <point x="1192" y="2101.33"/>
      <point x="1173.83" y="2068.83"/>
      <point x="1137.5" y="2040.5" type="curve" smooth="yes"/>
      <point x="1101.17" y="2012.17"/>
      <point x="1061.33" y="1998"/>
      <point x="1018" y="1998" type="curve" smooth="yes"/>
      <point x="960" y="1998"/>
      <point x="866.333" y="2010.5"/>
      <point x="737" y="2035.5" type="curve" smooth="yes"/>
      <point x="607.667" y="2060.5"/>
      <point x="517.333" y="2074"/>
      <point x="466" y="2076" type="curve" smooth="yes"/>
      <point x="400.667" y="2078.67"/>
      <point x="350" y="2098"/>
      <point x="314" y="2134" type="curve"/>
      <point x="280" y="2164"/>
      <point x="256.167" y="2189.83"/>
      <point x="242.5" y="2211.5" type="curve" smooth="yes"/>
      <point x="228.833" y="2233.17"/>
      <point x="222" y="2263.33"/>
      <point x="222" y="2302" type="curve" smooth="yes"/>
      <point x="222" y="3016" type="line" smooth="yes"/>
      <point x="222" y="3064.67"/>
      <point x="245.333" y="3113.33"/>
      <point x="292" y="3162" type="curve" smooth="yes"/>
      <point x="304" y="3175.33"/>
      <point x="315.5" y="3190.5"/>
      <point x="326.5" y="3207.5" type="curve" smooth="yes"/>
      <point x="337.5" y="3224.5"/>
      <point x="347.667" y="3241.67"/>
      <point x="357" y="3259" type="curve" smooth="yes"/>
      <point x="366.333" y="3276.33"/>
      <point x="372" y="3286.67"/>
      <point x="374" y="3290" type="curve"/>
      <point x="1212" y="3290" type="line" smooth="yes"/>
      <point x="1218.67" y="3289.33"/>
      <point x="1227.33" y="3282.33"/>
      <point x="1238" y="3269" type="curve" smooth="yes"/>
      <point x="1248.67" y="3255.67"/>
      <point x="1255.33" y="3248"/>
      <point x="1258" y="3246" type="curve" smooth="yes"/>
      <point x="1414" y="3140" type="line" smooth="yes"/>
      <point x="1426" y="3128.67"/>
      <point x="1443.5" y="3106.67"/>
      <point x="1466.5" y="3074" type="curve" smooth="yes"/>
      <point x="1489.5" y="3041.33"/>
      <point x="1508.67" y="3017.33"/>
      <point x="1524" y="3002" type="curve" smooth="yes"/>
      <point x="1543.33" y="2982"/>
      <point x="1564.5" y="2945.5"/>
      <point x="1587.5" y="2892.5" type="curve" smooth="yes"/>
      <point x="1610.5" y="2839.5"/>
      <point x="1622" y="2798"/>
      <point x="1622" y="2768" type="curve"/>
      <point x="1729" y="2290" type="line"/>
      <point x="1713" y="1574" type="line"/>
      <point x="1762" y="1574" type="line"/>
      <point x="1762" y="744" type="line"/>
      <point x="1759.33" y="707.333"/>
      <point x="1746.33" y="653"/>
      <point x="1723" y="581" type="curve" smooth="yes"/>
      <point x="1699.67" y="509"/>
      <point x="1688" y="454.667"/>
    </contour>
  </outline>
</glyph>
<glyph name="colon" format="2">
  <advance width="548"/>
  <unicode hex="003A"/>
  <outline>
    <contour>
      <point x="94" y="1722" type="curve" smooth="yes"/>
      <point x="83.3333" y="1751.33"/>
      <point x="79.3333" y="1777.83"/>
      <point x="82" y="1801.5" type="curve" smooth="yes"/>
      <point x="84.6667" y="1825.17"/>
      <point x="91.1667" y="1847.17"/>
      <point x="101.5" y="1867.5" type="curve" smooth="yes"/>
      <point x="111.833" y="1887.83"/>
      <point x="126" y="1904.67"/>
      <point x="144" y="1918" type="curve" smooth="yes"/>
      <point x="162" y="1931.33"/>
      <point x="181.167" y="1942.33"/>
      <point x="201.5" y="1951" type="curve" smooth="yes"/>
      <point x="221.833" y="1959.67"/>
      <point x="243.667" y="1963.67"/>
      <point x="267" y="1963" type="curve" smooth="yes"/>
      <point x="290.333" y="1962.33"/>
      <point x="312.167" y="1958.5"/>
      <point x="332.5" y="1951.5" type="curve" smooth="yes"/>
      <point x="352.833" y="1944.5"/>
      <point x="372" y="1932.33"/>
      <point x="390" y="1915" type="curve" smooth="yes"/>
      <point x="408" y="1897.67"/>
      <point x="422" y="1876"/>
      <point x="432" y="1850" type="curve" smooth="yes"/>
      <point x="442.667" y="1819.33"/>
      <point x="446.5" y="1789.83"/>
      <point x="443.5" y="1761.5" type="curve" smooth="yes"/>
      <point x="440.5" y="1733.17"/>
      <point x="431.167" y="1709.17"/>
      <point x="415.5" y="1689.5" type="curve" smooth="yes"/>
      <point x="399.833" y="1669.83"/>
      <point x="381.167" y="1652.83"/>
      <point x="359.5" y="1638.5" type="curve" smooth="yes"/>
      <point x="337.833" y="1624.17"/>
      <point x="313.833" y="1615.33"/>
      <point x="287.5" y="1612" type="curve" smooth="yes"/>
      <point x="261.167" y="1608.67"/>
      <point x="236" y="1609.5"/>
      <point x="212" y="1614.5" type="curve" smooth="yes"/>
      <point x="188" y="1619.5"/>
      <point x="165.167" y="1631.33"/>
      <point x="143.5" y="1650" type="curve" smooth="yes"/>
      <point x="121.833" y="1668.67"/>
      <point x="105.333" y="1692.67"/>
    </contour>
    <contour>
      <point x="94" y="552" type="curve" smooth="yes"/>
      <point x="83.3333" y="581.333"/>
      <point x="79.3333" y="607.833"/>
      <point x="82" y="631.5" type="curve" smooth="yes"/>
      <point x="84.6667" y="655.167"/>
      <point x="91.1667" y="677.333"/>
      <point x="101.5" y="698" type="curve" smooth="yes"/>
      <point x="111.833" y="718.667"/>
      <point x="126" y="735.5"/>
      <point x="144" y="748.5" type="curve" smooth="yes"/>
      <point x="162" y="761.5"/>
      <point x="181.333" y="772"/>
      <point x="202" y="780" type="curve" smooth="yes"/>
      <point x="222.667" y="788"/>
      <point x="244.5" y="791.667"/>
      <point x="267.5" y="791" type="curve" smooth="yes"/>
      <point x="290.5" y="790.333"/>
      <point x="312.333" y="786.5"/>
      <point x="333" y="779.5" type="curve" smooth="yes"/>
      <point x="353.667" y="772.5"/>
      <point x="372.833" y="760.167"/>
      <point x="390.5" y="742.5" type="curve" smooth="yes"/>
      <point x="408.167" y="724.833"/>
      <point x="422" y="703.333"/>
      <point x="432" y="678" type="curve" smooth="yes"/>
      <point x="442.667" y="649.333"/>
      <point x="446.833" y="623.333"/>
      <point x="444.5" y="600" type="curve" smooth="yes"/>
      <point x="442.167" y="576.667"/>
      <point x="435.833" y="554.667"/>
      <point x="425.5" y="534" type="curve" smooth="yes"/>
      <point x="415.167" y="513.333"/>
      <point x="401" y="496.333"/>
      <point x="383" y="483" type="curve" smooth="yes"/>
      <point x="365" y="469.667"/>
      <point x="345.667" y="458.667"/>
      <point x="325" y="450" type="curve" smooth="yes"/>
      <point x="304.333" y="441.333"/>
      <point x="282.333" y="437.167"/>
      <point x="259" y="437.5" type="curve" smooth="yes"/>
      <point x="235.667" y="437.833"/>
      <point x="213.667" y="441.5"/>
      <point x="193" y="448.5" type="curve" smooth="yes"/>
      <point x="172.333" y="455.5"/>
      <point x="153.167" y="468"/>
      <point x="135.5" y="486" type="curve" smooth="yes"/>
      <point x="117.833" y="504"/>
      <point x="104" y="526"/>
    </contour>
  </outline>
</glyph>
<glyph name="semicolon" format="2">
  <advance width="1802"/>
  <unicode hex="003B"/>
  <outline>
    <contour>
      <point x="960" y="2386" type="curve" smooth="yes"/>
      <point x="973.333" y="2343.33"/>
      <point x="974.5" y="2303.5"/>
      <point x="963.5" y="2266.5" type="curve" smooth="yes"/>
      <point x="952.5" y="2229.5"/>
      <point x="931" y="2201.5"/>
      <point x="899" y="2182.5" type="curve" smooth="yes"/>
      <point x="867" y="2163.5"/>
      <point x="833.667" y="2151.17"/>
      <point x="799" y="2145.5" type="curve" smooth="yes"/>
      <point x="764.333" y="2139.83"/>
      <point x="730.167" y="2147"/>
      <point x="696.5" y="2167" type="curve" smooth="yes"/>
      <point x="662.833" y="2187"/>
      <point x="638.667" y="2218"/>
      <point x="624" y="2260" type="curve" smooth="yes"/>
      <point x="612.667" y="2290.67"/>
      <point x="608.167" y="2320"/>
      <point x="610.5" y="2348" type="curve" smooth="yes"/>
      <point x="612.833" y="2376"/>
      <point x="621.833" y="2399.83"/>
      <point x="637.5" y="2419.5" type="curve" smooth="yes"/>
      <point x="653.167" y="2439.17"/>
      <point x="671.667" y="2456"/>
      <point x="693" y="2470" type="curve" smooth="yes"/>
      <point x="714.333" y="2484"/>
      <point x="738.333" y="2492.5"/>
      <point x="765" y="2495.5" type="curve" smooth="yes"/>
      <point x="791.667" y="2498.5"/>
      <point x="817.167" y="2497.67"/>
      <point x="841.5" y="2493" type="curve" smooth="yes"/>
      <point x="865.833" y="2488.33"/>
      <point x="888.833" y="2476.67"/>
      <point x="910.5" y="2458" type="curve" smooth="yes"/>
      <point x="932.167" y="2439.33"/>
      <point x="948.667" y="2415.33"/>
    </contour>
    <contour>
      <point x="1220" y="452" type="curve" smooth="yes"/>
      <point x="1220" y="477.333"/>
      <point x="1215.67" y="519.333"/>
      <point x="1207" y="578" type="curve" smooth="yes"/>
      <point x="1201" y="618"/>
      <point x="1198" y="655.333"/>
      <point x="1198" y="690" type="curve" smooth="yes"/>
      <point x="1198" y="706"/>
      <point x="1198.67" y="721.333"/>
      <point x="1200" y="736" type="curve" smooth="yes"/>
      <point x="1202.67" y="762"/>
      <point x="1204" y="788.333"/>
      <point x="1204" y="815" type="curve" smooth="yes"/>
      <point x="1204" y="859"/>
      <point x="1200" y="903.333"/>
      <point x="1192" y="948" type="curve" smooth="yes"/>
      <point x="1185.33" y="988"/>
      <point x="1168.17" y="1017.33"/>
      <point x="1140.5" y="1036" type="curve" smooth="yes"/>
      <point x="1112.83" y="1054.67"/>
      <point x="1072.67" y="1066"/>
      <point x="1020" y="1070" type="curve"/>
      <point x="872" y="1070" type="line" smooth="yes"/>
      <point x="837.333" y="1070"/>
      <point x="812.333" y="1064.67"/>
      <point x="797" y="1054" type="curve" smooth="yes"/>
      <point x="781.667" y="1043.33"/>
      <point x="774" y="1024"/>
      <point x="774" y="996" type="curve" smooth="yes"/>
      <point x="774" y="946" type="line"/>
      <point x="860" y="946" type="line"/>
      <point x="856.667" y="940"/>
      <point x="852" y="930.833"/>
      <point x="846" y="918.5" type="curve" smooth="yes"/>
      <point x="840" y="906.167"/>
      <point x="835" y="895.833"/>
      <point x="831" y="887.5" type="curve" smooth="yes"/>
      <point x="827" y="879.167"/>
      <point x="821" y="869.167"/>
      <point x="813" y="857.5" type="curve" smooth="yes"/>
      <point x="805" y="845.833"/>
      <point x="797.333" y="837.833"/>
      <point x="790" y="833.5" type="curve" smooth="yes"/>
      <point x="782.667" y="829.167"/>
      <point x="773" y="825"/>
      <point x="761" y="821" type="curve" smooth="yes"/>
      <point x="749" y="817"/>
      <point x="736.667" y="818"/>
      <point x="724" y="824" type="curve"/>
      <point x="682.667" y="824"/>
      <point x="647.667" y="844"/>
      <point x="619" y="884" type="curve" smooth="yes"/>
      <point x="590.333" y="924"/>
      <point x="572" y="968"/>
      <point x="564" y="1016" type="curve" smooth="yes"/>
      <point x="556" y="1052.67"/>
      <point x="552" y="1087.67"/>
      <point x="552" y="1121" type="curve" smooth="yes"/>
      <point x="552" y="1143.67"/>
      <point x="554" y="1165.33"/>
      <point x="558" y="1186" type="curve" smooth="yes"/>
      <point x="567.333" y="1238"/>
      <point x="592.667" y="1280.67"/>
      <point x="634" y="1314" type="curve" smooth="yes"/>
      <point x="677.333" y="1349.33"/>
      <point x="724.667" y="1367"/>
      <point x="776" y="1367" type="curve" smooth="yes"/>
      <point x="788" y="1367"/>
      <point x="800" y="1366"/>
      <point x="812" y="1364" type="curve"/>
      <point x="859.333" y="1374"/>
      <point x="904.333" y="1379"/>
      <point x="947" y="1379" type="curve" smooth="yes"/>
      <point x="1029" y="1379"/>
      <point x="1103" y="1360.67"/>
      <point x="1169" y="1324" type="curve" smooth="yes"/>
      <point x="1269" y="1268.67"/>
      <point x="1336.67" y="1186.67"/>
      <point x="1372" y="1078" type="curve" smooth="yes"/>
      <point x="1384" y="1037.33"/>
      <point x="1390" y="995.333"/>
      <point x="1390" y="952" type="curve" smooth="yes"/>
      <point x="1390" y="914"/>
      <point x="1385.33" y="875.333"/>
      <point x="1376" y="836" type="curve"/>
      <point x="1376.67" y="801.333"/>
      <point x="1378.67" y="750.833"/>
      <point x="1382" y="684.5" type="curve" smooth="yes"/>
      <point x="1385.33" y="618.167"/>
      <point x="1387.33" y="564"/>
      <point x="1388" y="522" type="curve" smooth="yes"/>
      <point x="1388" y="516"/>
      <point x="1388" y="516"/>
      <point x="1388" y="508" type="curve" smooth="yes"/>
      <point x="1388" y="470"/>
      <point x="1386.67" y="426.333"/>
      <point x="1384" y="377" type="curve" smooth="yes"/>
      <point x="1381.33" y="321.667"/>
      <point x="1374.17" y="270"/>
      <point x="1362.5" y="222" type="curve" smooth="yes"/>
      <point x="1350.83" y="174"/>
      <point x="1334.67" y="128"/>
      <point x="1314" y="84" type="curve" smooth="yes"/>
      <point x="1249.33" y="-51.3333"/>
      <point x="1139.33" y="-144.667"/>
      <point x="984" y="-196" type="curve" smooth="yes"/>
      <point x="981.333" y="-197.333"/>
      <point x="952.167" y="-212.5"/>
      <point x="896.5" y="-241.5" type="curve" smooth="yes"/>
      <point x="840.833" y="-270.5"/>
      <point x="786" y="-298.5"/>
      <point x="732" y="-325.5" type="curve" smooth="yes"/>
      <point x="678" y="-352.5"/>
      <point x="648" y="-366"/>
      <point x="642" y="-366" type="curve" smooth="yes"/>
      <point x="641" y="-366"/>
      <point x="641" y="-366"/>
      <point x="640" y="-366" type="curve" smooth="yes"/>
      <point x="635.333" y="-366"/>
      <point x="633" y="-364.333"/>
      <point x="633" y="-361" type="curve" smooth="yes"/>
      <point x="633" y="-343.667"/>
      <point x="686" y="-287.667"/>
      <point x="792" y="-193" type="curve" smooth="yes"/>
      <point x="804" y="-182.333"/>
      <point x="816.667" y="-171.333"/>
      <point x="830" y="-160" type="curve" smooth="yes"/>
      <point x="922.667" y="-78"/>
      <point x="983.5" y="-22.1667"/>
      <point x="1012.5" y="7.5" type="curve" smooth="yes"/>
      <point x="1041.5" y="37.1667"/>
      <point x="1079.33" y="84"/>
      <point x="1126" y="148" type="curve" smooth="yes"/>
      <point x="1188.67" y="233.333"/>
      <point x="1220" y="334.667"/>
    </contour>
  </outline>
</glyph>
<glyph name="less" format="2">
  <advance width="851"/>
  <unicode hex="003C"/>
  <outline>
    <contour>
      <point x="616" y="914" type="curve" smooth="yes"/>
      <point x="633" y="926"/>
      <point x="649" y="932"/>
      <point x="664" y="932" type="curve" smooth="yes"/>
      <point x="670" y="932"/>
      <point x="676" y="930"/>
      <point x="682" y="928" type="curve" smooth="yes"/>
      <point x="702" y="921"/>
      <point x="713" y="904"/>
      <point x="715" y="876" type="curve" smooth="yes"/>
      <point x="715" y="861"/>
      <point x="706" y="848"/>
      <point x="687" y="835" type="curve" smooth="yes"/>
      <point x="669" y="823"/>
      <point x="635" y="810"/>
      <point x="584" y="797" type="curve" smooth="yes"/>
      <point x="533" y="784"/>
      <point x="480" y="772"/>
      <point x="426" y="760" type="curve" smooth="yes"/>
      <point x="372" y="748"/>
      <point x="336" y="738"/>
      <point x="319" y="731" type="curve" smooth="yes"/>
      <point x="286" y="719"/>
      <point x="262" y="704"/>
      <point x="246" y="686" type="curve" smooth="yes"/>
      <point x="230" y="668"/>
      <point x="222" y="642"/>
      <point x="222" y="607" type="curve" smooth="yes"/>
      <point x="222" y="570"/>
      <point x="234" y="540"/>
      <point x="258" y="516" type="curve" smooth="yes"/>
      <point x="283" y="491"/>
      <point x="339" y="461"/>
      <point x="427" y="424" type="curve" smooth="yes"/>
      <point x="493" y="397"/>
      <point x="539" y="376"/>
      <point x="564" y="363" type="curve" smooth="yes"/>
      <point x="589" y="350"/>
      <point x="618" y="331"/>
      <point x="652" y="305" type="curve" smooth="yes"/>
      <point x="668" y="293"/>
      <point x="673" y="278"/>
      <point x="668" y="258" type="curve" smooth="yes"/>
      <point x="663" y="238"/>
      <point x="653" y="225"/>
      <point x="637" y="218" type="curve" smooth="yes"/>
      <point x="621" y="211"/>
      <point x="604" y="213"/>
      <point x="587" y="226" type="curve"/>
      <point x="573" y="239"/>
      <point x="539" y="259"/>
      <point x="487" y="284" type="curve" smooth="yes"/>
      <point x="435" y="309"/>
      <point x="382" y="333"/>
      <point x="328" y="358" type="curve" smooth="yes"/>
      <point x="274" y="383"/>
      <point x="240" y="400"/>
      <point x="226" y="411" type="curve" smooth="yes"/>
      <point x="155" y="463"/>
      <point x="120" y="525"/>
      <point x="120" y="595" type="curve" smooth="yes"/>
      <point x="120" y="701"/>
      <point x="165" y="775"/>
      <point x="256" y="816" type="curve" smooth="yes"/>
      <point x="273" y="823"/>
      <point x="287" y="830"/>
      <point x="298" y="834" type="curve" smooth="yes"/>
      <point x="309" y="838"/>
      <point x="321" y="842"/>
      <point x="335" y="846" type="curve" smooth="yes"/>
      <point x="349" y="850"/>
      <point x="360" y="851"/>
      <point x="367" y="853" type="curve" smooth="yes"/>
      <point x="374" y="855"/>
      <point x="390" y="858"/>
      <point x="414" y="862" type="curve" smooth="yes"/>
      <point x="438" y="866"/>
      <point x="459" y="871"/>
      <point x="475" y="874" type="curve" smooth="yes"/>
      <point x="552" y="889"/>
      <point x="599" y="902"/>
    </contour>
  </outline>
</glyph>
<glyph name="equal" format="2">
  <advance width="851"/>
  <unicode hex="003D"/>
  <outline>
    <contour>
      <point x="690" y="774" type="line" smooth="yes"/>
      <point x="700" y="768"/>
      <point x="706" y="760"/>
      <point x="710" y="748" type="curve" smooth="yes"/>
      <point x="714" y="736"/>
      <point x="715" y="725"/>
      <point x="712" y="714" type="curve" smooth="yes"/>
      <point x="709" y="703"/>
      <point x="703" y="692"/>
      <point x="695" y="684" type="curve" smooth="yes"/>
      <point x="687" y="676"/>
      <point x="677" y="672"/>
      <point x="666" y="672" type="curve"/>
      <point x="460" y="765" type="line"/>
      <point x="440" y="770"/>
      <point x="412" y="773"/>
      <point x="376" y="774" type="curve" smooth="yes"/>
      <point x="374" y="774"/>
      <point x="375" y="774"/>
      <point x="373" y="774" type="curve" smooth="yes"/>
      <point x="358" y="774"/>
      <point x="331" y="772"/>
      <point x="293" y="767" type="curve" smooth="yes"/>
      <point x="253" y="762"/>
      <point x="225" y="758"/>
      <point x="210" y="754" type="curve"/>
      <point x="137" y="754" type="line" smooth="yes"/>
      <point x="103" y="754"/>
      <point x="86" y="765"/>
      <point x="86" y="786" type="curve" smooth="yes"/>
      <point x="86" y="796"/>
      <point x="88" y="805"/>
      <point x="91" y="812" type="curve" smooth="yes"/>
      <point x="94" y="819"/>
      <point x="99" y="825"/>
      <point x="105" y="829" type="curve" smooth="yes"/>
      <point x="111" y="833"/>
      <point x="118" y="837"/>
      <point x="125" y="839" type="curve" smooth="yes"/>
      <point x="132" y="841"/>
      <point x="141" y="844"/>
      <point x="151" y="846" type="curve" smooth="yes"/>
      <point x="153" y="846"/>
      <point x="155" y="847"/>
      <point x="156" y="847" type="curve" smooth="yes"/>
      <point x="236" y="867"/>
      <point x="306" y="877"/>
      <point x="366" y="877" type="curve" smooth="yes"/>
      <point x="398" y="877"/>
      <point x="424" y="875"/>
      <point x="445" y="873" type="curve" smooth="yes"/>
      <point x="466" y="871"/>
      <point x="480" y="869"/>
      <point x="486" y="866" type="curve" smooth="yes"/>
    </contour>
    <contour>
      <point x="690" y="515" type="line" smooth="yes"/>
      <point x="700" y="510"/>
      <point x="706" y="502"/>
      <point x="710" y="490" type="curve" smooth="yes"/>
      <point x="714" y="478"/>
      <point x="715" y="467"/>
      <point x="712" y="456" type="curve" smooth="yes"/>
      <point x="709" y="445"/>
      <point x="703" y="434"/>
      <point x="695" y="426" type="curve" smooth="yes"/>
      <point x="687" y="418"/>
      <point x="677" y="414"/>
      <point x="666" y="414" type="curve"/>
      <point x="460" y="507" type="line"/>
      <point x="440" y="512"/>
      <point x="412" y="515"/>
      <point x="376" y="516" type="curve" smooth="yes"/>
      <point x="374" y="516"/>
      <point x="375" y="516"/>
      <point x="373" y="516" type="curve" smooth="yes"/>
      <point x="358" y="516"/>
      <point x="331" y="514"/>
      <point x="293" y="509" type="curve" smooth="yes"/>
      <point x="253" y="504"/>
      <point x="225" y="500"/>
      <point x="210" y="496" type="curve"/>
      <point x="137" y="496" type="line" smooth="yes"/>
      <point x="103" y="496"/>
      <point x="86" y="507"/>
      <point x="86" y="528" type="curve" smooth="yes"/>
      <point x="86" y="538"/>
      <point x="88" y="547"/>
      <point x="91" y="554" type="curve" smooth="yes"/>
      <point x="94" y="561"/>
      <point x="99" y="567"/>
      <point x="105" y="571" type="curve" smooth="yes"/>
      <point x="111" y="575"/>
      <point x="118" y="579"/>
      <point x="125" y="581" type="curve" smooth="yes"/>
      <point x="132" y="583"/>
      <point x="141" y="586"/>
      <point x="151" y="588" type="curve" smooth="yes"/>
      <point x="153" y="588"/>
      <point x="155" y="589"/>
      <point x="156" y="589" type="curve" smooth="yes"/>
      <point x="236" y="609"/>
      <point x="306" y="619"/>
      <point x="366" y="619" type="curve" smooth="yes"/>
      <point x="398" y="619"/>
      <point x="424" y="617"/>
      <point x="445" y="615" type="curve" smooth="yes"/>
      <point x="466" y="613"/>
      <point x="480" y="611"/>
      <point x="486" y="608" type="curve" smooth="yes"/>
    </contour>
  </outline>
</glyph>
